<svg xmlns="http://www.w3.org/2000/svg" xmlns:svg="http://www.w3.org/2000/svg" xmlns:xlink="http://www.w3.org/1999/xlink" id="svg2" width="192" height="192" version="1.1" viewBox="0 0 192 192"><defs id="defs4"><linearGradient id="linearGradient5000"><stop id="stop5002" offset="0" stop-color="#fff" stop-opacity=".1"/><stop id="stop5004" offset="1" stop-color="#fff" stop-opacity="0"/></linearGradient><linearGradient id="linearGradient4957"><stop id="stop4959" offset="0" stop-color="#1a237e" stop-opacity=".2"/><stop id="stop4961" offset="1" stop-color="#1a237e" stop-opacity="0"/></linearGradient><linearGradient id="linearGradient4963" x1="70" x2="138" y1="76" y2="144" gradientUnits="userSpaceOnUse" xlink:href="#linearGradient4957"/><filter id="filter4973" width="2" height="2" x="-.5" y="-.5" color-interpolation-filters="sRGB"><feFlood id="feFlood4975" flood-color="#1A237E" flood-opacity=".2" result="flood"/><feComposite id="feComposite4977" in="flood" in2="SourceGraphic" operator="in" result="composite1"/><feGaussianBlur id="feGaussianBlur4979" in="composite1" result="blur" stdDeviation="4"/><feOffset id="feOffset4981" dx="4" dy="4" result="offset"/><feComposite id="feComposite4983" in="SourceGraphic" in2="offset" operator="over" result="composite2"/></filter><radialGradient id="radialGradient5006" cx="20" cy="890.362" r="76" fx="20" fy="890.362" gradientTransform="matrix(1.526316,1.5263161,-1.526316,1.526316,1348.4478,-481.13822)" gradientUnits="userSpaceOnUse" xlink:href="#linearGradient5000"/><filter id="filter5009" color-interpolation-filters="sRGB"><feFlood id="feFlood5011" flood-color="#000" flood-opacity=".12" result="flood"/><feComposite id="feComposite5013" in="flood" in2="SourceGraphic" operator="in" result="composite1"/><feGaussianBlur id="feGaussianBlur5015" in="composite1" result="blur" stdDeviation="2"/><feOffset id="feOffset5017" dx="0" dy="0" result="offset"/><feComposite id="feComposite5019" in="SourceGraphic" in2="offset" operator="over" result="fbSourceGraphic"/><feColorMatrix id="feColorMatrix5021" in="fbSourceGraphic" result="fbSourceGraphicAlpha" values="0 0 0 -1 0 0 0 0 -1 0 0 0 0 -1 0 0 0 0 1 0"/><feFlood id="feFlood5023" flood-color="#000" flood-opacity=".24" in="fbSourceGraphic" result="flood"/><feComposite id="feComposite5025" in="flood" in2="fbSourceGraphic" operator="in" result="composite1"/><feGaussianBlur id="feGaussianBlur5027" in="composite1" result="blur" stdDeviation="2"/><feOffset id="feOffset5029" dx="0" dy="4" result="offset"/><feComposite id="feComposite5031" in="fbSourceGraphic" in2="offset" operator="over" result="composite2"/></filter></defs><metadata id="metadata7"/><g id="layer1" transform="translate(0,-860.36216)"><path color="#000" style="isolation:auto;mix-blend-mode:normal;solid-color:#000;solid-opacity:1" id="rect3410" fill="#4285f4" fill-opacity="1" fill-rule="evenodd" stroke="none" stroke-dasharray="none" stroke-dashoffset="0" stroke-linecap="butt" stroke-linejoin="round" stroke-miterlimit="4" stroke-opacity="1" stroke-width=".5" d="M 32 48 C 25.352 48 20 53.352 20 60 L 20 130 L 20 132 L 20 164 L 44.705078 144 L 160 144 C 166.648 144 172 138.648 172 132 L 172 60 C 172 53.352 166.648 48 160 48 L 32 48 z" clip-rule="nonzero" color-interpolation="sRGB" color-interpolation-filters="linearRGB" color-rendering="auto" display="inline" enable-background="accumulate" filter="url(#filter5009)" image-rendering="auto" opacity="1" overflow="visible" shape-rendering="auto" text-rendering="auto" transform="translate(0,860.36216)" visibility="visible"/><path id="path4515" fill="url(#linearGradient4963)" fill-opacity="1" d="M 44 76 C 39.6 76 36 79.6 36 84 L 36 116 L 64 144 L 160 144 C 166.648 144 172 138.648 172 132 L 172 96.833984 L 154.41406 79.248047 C 152.95275 77.283807 150.62198 76 148 76 L 140 76 C 135.6 76 132 79.6 132 84 L 132 100.08008 C 132 100.08008 108 75.99996 108 76 L 100 76 L 100 100.08008 L 76 76 L 68 76 L 68 88.958984 L 58.414062 79.248047 C 56.952746 77.283807 54.621983 76 52 76 L 44 76 z" opacity="1" transform="translate(0,860.36216)"/><path id="L-0" fill="#f5f5f5" fill-opacity="1" d="m 108,968.36212 0,-32 -8,0 0,40 24,0 0,-8 z m -56,-32 -8,0 c -4.4,0 -8,3.6 -8,8 l 0,32 8,0 0,-8 8,0 0,8 8,0 0,-32 c 0,-4.4 -3.6,-8 -8,-8 z m 0,24 -8,0 0,-16 8,0 0,16 z m 24,8 0,-32 -8,0 0,40 24,0 0,-8 z m 56,-24 0,24.00008 c 0,4.4 3.6,8 8,8 l 8,0 c 4.4,0 8,-3.6 8,-8 l 0,-24.00008 c 0,-4.4 -3.6,-8 -8,-8 l -8,0 c -4.4,0 -8,3.6 -8,8 z m 16,24.00008 -8,0 0,-24.00008 8,0 0,24.00008 z" filter="url(#filter4973)"/><path id="L-0-4" fill="#fff" fill-opacity="1" d="m 44,936.36216 c -4.4,0 -8,3.6 -8,8 l 0,1 c 0,-4.4 3.6,-8 8,-8 l 8,0 c 4.4,0 8,3.6 8,8 l 0,-1 c 0,-4.4 -3.6,-8 -8,-8 l -8,0 z m 24,0 0,1 8,0 0,-1 -8,0 z m 32,0 0,1 8,0 0,-1 -8,0 z m 40,0 c -4.4,0 -8,3.6 -8,8 l 0,1 c 0,-4.4 3.6,-8 8,-8 l 8,0 c 4.4,0 8,3.6 8,8 l 0,-1 c 0,-4.4 -3.6,-8 -8,-8 l -8,0 z m -96,24 0,1 8,0 0,-1 -8,0 z m 32,8 0,1 16,0 0,-1 -16,0 z m 32,0 0,1 16,0 0,-1 -16,0 z m 32,0 0,1 8,0 0,-1 -8,0 z" opacity=".4"/><path id="L-0-3" fill="#1a237e" fill-opacity="1" d="M 44 84 L 44 85 L 52 85 L 52 84 L 44 84 z M 140 84 L 140 85 L 148 85 L 148 84 L 140 84 z M 44 108 L 44 109 L 52 109 L 52 108 L 44 108 z M 132 108 L 132 109 C 132 113.4 135.6 117 140 117 L 148 117 C 152.4 117 156 113.4 156 109 L 156 108 C 156 112.4 152.4 116 148 116 L 140 116 C 135.6 116 132 112.4 132 108 z M 36 116 L 36 117 L 44 117 L 44 116 L 36 116 z M 52 116 L 52 117 L 60 117 L 60 116 L 52 116 z M 68 116 L 68 117 L 92 117 L 92 116 L 68 116 z M 100 116 L 100 117 L 124 117 L 124 116 L 100 116 z" opacity=".2" transform="translate(0,860.36216)"/><path id="rect3410-5" fill="#fff" fill-opacity="1" fill-rule="evenodd" stroke="none" stroke-dasharray="none" stroke-dashoffset="0" stroke-linecap="butt" stroke-linejoin="round" stroke-miterlimit="4" stroke-opacity="1" stroke-width=".5" d="m 32,908.36216 c -6.648,0 -12,5.352 -12,12 l 0,1 c 0,-6.648 5.352,-12 12,-12 l 128,0 c 6.648,0 12,5.352 12,12 l 0,-1 c 0,-6.648 -5.352,-12 -12,-12 l -128,0 z" clip-rule="nonzero" color="#000" color-interpolation="sRGB" color-interpolation-filters="linearRGB" color-rendering="auto" display="inline" enable-background="accumulate" image-rendering="auto" opacity=".2" overflow="visible" shape-rendering="auto" text-rendering="auto" visibility="visible" style="isolation:auto;mix-blend-mode:normal;solid-color:#000;solid-opacity:1"/><path id="rect3410-3" fill="#1a237e" fill-opacity="1" fill-rule="evenodd" stroke="none" stroke-dasharray="none" stroke-dashoffset="0" stroke-linecap="butt" stroke-linejoin="round" stroke-miterlimit="4" stroke-opacity="1" stroke-width=".5" d="m 172,991.36216 c 0,6.648 -5.352,12.00004 -12,12.00004 l -115.294922,0 -24.705078,20 0,1 24.705078,-20 115.294922,0 c 6.648,0 12,-5.35206 12,-12.00004 l 0,-1 z" clip-rule="nonzero" color="#000" color-interpolation="sRGB" color-interpolation-filters="linearRGB" color-rendering="auto" display="inline" enable-background="accumulate" image-rendering="auto" opacity=".2" overflow="visible" shape-rendering="auto" text-rendering="auto" visibility="visible" style="isolation:auto;mix-blend-mode:normal;solid-color:#000;solid-opacity:1"/></g><g id="layer2"><path id="rect3410-8" fill="url(#radialGradient5006)" fill-opacity="1" fill-rule="evenodd" stroke="none" stroke-dasharray="none" stroke-dashoffset="0" stroke-linecap="butt" stroke-linejoin="round" stroke-miterlimit="4" stroke-opacity="1" stroke-width=".5" d="m 32,908.36216 c -6.648,0 -12,5.352 -12,12 l 0,70 0,2 0,32.00004 24.705078,-20 115.294922,0 c 6.648,0 12,-5.35204 12,-12.00004 l 0,-72 c 0,-6.648 -5.352,-12 -12,-12 l -128,0 z" clip-rule="nonzero" color="#000" color-interpolation="sRGB" color-interpolation-filters="linearRGB" color-rendering="auto" display="inline" enable-background="accumulate" image-rendering="auto" opacity="1" overflow="visible" shape-rendering="auto" text-rendering="auto" transform="translate(0,-860.36216)" visibility="visible" style="isolation:auto;mix-blend-mode:normal;solid-color:#000;solid-opacity:1"/></g></svg>