<svg xmlns="http://www.w3.org/2000/svg" xmlns:svg="http://www.w3.org/2000/svg" xmlns:xlink="http://www.w3.org/1999/xlink" id="svg2" width="192" height="192" version="1.1" viewBox="0 0 192 192"><defs id="defs4"><linearGradient id="linearGradient4194"><stop id="stop4196" offset="0" stop-color="#fff" stop-opacity="1"/><stop id="stop4198" offset="1" stop-color="#fff" stop-opacity="0"/></linearGradient><clipPath id="clipPath10430" clipPathUnits="userSpaceOnUse"><path id="path10432" d="m 1241.028,39.3409 224.537,0 0,178.031 -224.537,0 0,-178.031 z"/></clipPath><clipPath id="clipPath10438" clipPathUnits="userSpaceOnUse"><path id="path10440" d="m 1260.156,213.3477 0,-170.2268 191.3337,0 0,170.2268"/></clipPath><radialGradient id="radialGradient4200" cx="20" cy="880.362" r="76" fx="20" fy="880.362" gradientTransform="matrix(2.6607556e-7,1.9999998,-2.0000002,2.6629458e-7,1780.725,840.36195)" gradientUnits="userSpaceOnUse" xlink:href="#linearGradient4194"/><filter id="filter5248" color-interpolation-filters="sRGB"><feFlood id="feFlood5250" flood-color="#000" flood-opacity=".2" result="flood"/><feComposite id="feComposite5252" in="flood" in2="SourceGraphic" operator="in" result="composite1"/><feGaussianBlur id="feGaussianBlur5254" in="composite1" result="blur" stdDeviation="2"/><feOffset id="feOffset5256" dx="0" dy="4" result="offset"/><feComposite id="feComposite5258" in="SourceGraphic" in2="offset" operator="over" result="fbSourceGraphic"/><feColorMatrix id="feColorMatrix4177" in="fbSourceGraphic" result="fbSourceGraphicAlpha" values="0 0 0 -1 0 0 0 0 -1 0 0 0 0 -1 0 0 0 0 1 0"/><feFlood id="feFlood4179" flood-color="#000" flood-opacity=".2" in="fbSourceGraphic" result="flood"/><feComposite id="feComposite4181" in="flood" in2="fbSourceGraphic" operator="in" result="composite1"/><feGaussianBlur id="feGaussianBlur4183" in="composite1" result="blur" stdDeviation="2"/><feOffset id="feOffset4185" dx="0" dy="0" result="offset"/><feComposite id="feComposite4187" in="fbSourceGraphic" in2="offset" operator="over" result="composite2"/></filter></defs><metadata id="metadata7"/><g id="layer2"><path id="path5588" fill="#f5f5f5" fill-opacity="1" fill-rule="evenodd" stroke="none" stroke-linecap="butt" stroke-linejoin="miter" stroke-opacity="1" stroke-width="1" d="m 32,880.36216 128,0 c 6,0 12,6 12,12 l 0,128.00004 c 0,6 -6,12 -12,12 l -128,0 c -6,0 -12,-6 -12,-12 l 0,-128.00004 c 0,-6 6,-12 12,-12 z" filter="url(#filter5248)" transform="translate(0,-860.36216)"/></g><g id="layer1" transform="translate(0,-860.36216)"><path id="path10567" fill="#90ca0a" fill-opacity=".973" fill-rule="nonzero" stroke="none" d="m 96.223636,921.60549 c -22.410684,0 -40.642437,18.23454 -40.642437,40.64631 0,10.37038 3.910059,20.24463 11.015625,27.81246 l 0.002,-0.002 c 0.954555,1.00927 2.544538,1.05891 3.559154,0.10438 l 4.38229,-4.12144 c 1.008186,-0.94918 1.0587,-2.53594 0.115936,-3.54949 l 0.0039,-0.006 c -5.168565,-5.50641 -8.016808,-12.69798 -8.016808,-20.24006 0,-16.31117 13.269287,-29.58238 29.580443,-29.58238 16.312245,0 29.584315,13.27121 29.584315,29.58238 0,7.54208 -2.84697,14.73365 -8.01874,20.24006 l 0.0101,0.0101 c -0.94061,1.01462 -0.88646,2.59857 0.12173,3.54564 l 4.38229,4.12144 c 1.01247,0.95457 2.60482,0.90513 3.55724,-0.10629 l -0.003,-0.002 c 7.10235,-7.56674 11.01175,-17.44056 11.01175,-27.80665 l 0.002,0 c 0,-22.41176 -18.23346,-40.6463 -40.646303,-40.6463 z m -51.354692,22.44667 c -0.969612,0.0946 -1.836704,0.75248 -2.154438,1.73707 l -0.0099,-0.006 c -1.644195,5.2533 -2.480974,10.72604 -2.480974,16.2732 0,9.81159 2.660681,19.44111 7.684464,27.84337 l 0.0099,-0.006 c 0.717529,1.18088 2.255712,1.56535 3.445156,0.85211 l 5.159039,-3.09542 c 1.185161,-0.71107 1.572244,-2.23833 0.877233,-3.42777 l 0.0039,-0.002 c -4.00057,-6.6862 -6.115494,-14.35005 -6.115494,-22.16456 0,-4.42422 0.664523,-8.78189 1.970872,-12.95945 l 0.002,0 0,-0.002 0,-0.002 c 0.40971,-1.3278 -0.333265,-2.7366 -1.657847,-3.14952 l -5.746486,-1.78891 c -0.329536,-0.10214 -0.664156,-0.13394 -0.987361,-0.10248 z m 102.228256,0.003 c -0.1652,0.0167 -0.33181,0.0513 -0.49657,0.10237 l -5.74452,1.78538 c -1.32672,0.41077 -2.06841,1.81892 -1.65978,3.14565 l -0.006,0.003 c 1.30313,4.1786 1.97086,8.53909 1.97086,12.9633 0,7.81346 -2.11385,15.4773 -6.11548,22.16457 l 0.006,0.006 c -0.70358,1.18944 -0.31716,2.72612 0.87336,3.43937 l 5.16097,3.09542 c 1.19267,0.71537 2.73429,0.32789 3.45289,-0.86371 5.02592,-8.40119 7.68253,-18.02771 7.68253,-27.84144 l 0.002,0 c 0,-5.53751 -0.83033,-10.99973 -2.47131,-16.24229 l 0.002,0 c -0.002,-0.002 -0.006,-0.008 -0.006,-0.0116 -0.002,-0.003 -0.002,-0.009 -0.003,-0.0174 -0.3735,-1.14306 -1.49077,-1.84564 -2.64716,-1.72935 z" display="inline"/></g><g id="layer3"><path id="path4180" fill="#fff" fill-opacity="1" fill-rule="evenodd" stroke="none" stroke-linecap="butt" stroke-linejoin="miter" stroke-opacity="1" stroke-width="1" d="m 32,20 c -6,0 -12,6 -12,12 l 0,1 c 0,-6 6,-12 12,-12 l 128,0 c 6,0 12,6 12,12 l 0,-1 c 0,-6 -6,-12 -12,-12 L 32,20 Z" opacity=".1"/><path id="path4186" fill="#030303" fill-opacity="1" fill-rule="evenodd" stroke="none" stroke-linecap="butt" stroke-linejoin="miter" stroke-opacity="1" stroke-width="1" d="m 20,159 0,1 c 0,6 6,12 12,12 l 128,0 c 6,0 12,-6 12,-12 l 0,-1 c 0,6 -6,12 -12,12 l -128,0 c -6,0 -12,-6 -12,-12 z" opacity=".2"/><path id="path4192" fill="url(#radialGradient4200)" fill-opacity="1" fill-rule="evenodd" stroke="none" stroke-dasharray="none" stroke-linecap="butt" stroke-linejoin="miter" stroke-miterlimit="4" stroke-opacity="1" stroke-width=".1" d="m 32,880.36216 128,0 c 6,0 12,6 12,12 l 0,128.00004 c 0,6 -6,12 -12,12 l -128,0 c -6,0 -12,-6 -12,-12 l 0,-128.00004 c 0,-6 6,-12 12,-12 z" opacity=".1" transform="translate(0,-860.36216)"/></g></svg>