<svg xmlns="http://www.w3.org/2000/svg" xmlns:svg="http://www.w3.org/2000/svg" xmlns:xlink="http://www.w3.org/1999/xlink" id="svg2" width="192" height="192" version="1.1" viewBox="0 0 192 192"><defs id="defs4"><linearGradient id="linearGradient5829"><stop id="stop5831" offset="0" stop-color="#fff" stop-opacity=".102"/><stop id="stop5833" offset="1" stop-color="#fff" stop-opacity="0"/></linearGradient><linearGradient id="linearGradient5794"><stop id="stop5796" offset="0" stop-color="#1a237e" stop-opacity=".2"/><stop id="stop5798" offset="1" stop-color="#1a237e" stop-opacity="0"/></linearGradient><linearGradient id="linearGradient5800" x1="68" x2="144" y1="58" y2="134" gradientUnits="userSpaceOnUse" xlink:href="#linearGradient5794"/><filter id="filter5802" width="2" height="2" x="-.5" y="-.5" color-interpolation-filters="sRGB"><feFlood id="feFlood5804" flood-color="#1A237E" flood-opacity=".2" result="flood"/><feComposite id="feComposite5806" in="flood" in2="SourceGraphic" operator="in" result="composite1"/><feGaussianBlur id="feGaussianBlur5808" in="composite1" result="blur" stdDeviation="4"/><feOffset id="feOffset5810" dx="4" dy="4" result="offset"/><feComposite id="feComposite5812" in="SourceGraphic" in2="offset" operator="over" result="composite2"/></filter><radialGradient id="radialGradient5835" cx="20" cy="880.362" r="76" fx="20" fy="880.362" gradientTransform="matrix(1.5263164,1.5263163,-1.5263162,1.5263162,1333.1847,-475.87521)" gradientUnits="userSpaceOnUse" xlink:href="#linearGradient5829"/><filter id="filter5838" color-interpolation-filters="sRGB"><feFlood id="feFlood5840" flood-color="#000" flood-opacity=".12" result="flood"/><feComposite id="feComposite5842" in="flood" in2="SourceGraphic" operator="in" result="composite1"/><feGaussianBlur id="feGaussianBlur5844" in="composite1" result="blur" stdDeviation="2"/><feOffset id="feOffset5846" dx="0" dy="0" result="offset"/><feComposite id="feComposite5848" in="SourceGraphic" in2="offset" operator="over" result="fbSourceGraphic"/><feColorMatrix id="feColorMatrix5850" in="fbSourceGraphic" result="fbSourceGraphicAlpha" values="0 0 0 -1 0 0 0 0 -1 0 0 0 0 -1 0 0 0 0 1 0"/><feFlood id="feFlood5852" flood-color="#000" flood-opacity=".24" in="fbSourceGraphic" result="flood"/><feComposite id="feComposite5854" in="flood" in2="fbSourceGraphic" operator="in" result="composite1"/><feGaussianBlur id="feGaussianBlur5856" in="composite1" result="blur" stdDeviation="2"/><feOffset id="feOffset5858" dx="0" dy="4" result="offset"/><feComposite id="feComposite5860" in="fbSourceGraphic" in2="offset" operator="over" result="composite2"/></filter></defs><metadata id="metadata7"/><g id="layer1" transform="translate(0,-860.36216)"><path id="rect3410" fill="#5c8ccf" fill-opacity="1" fill-rule="evenodd" stroke="none" stroke-dasharray="none" stroke-dashoffset="0" stroke-linecap="butt" stroke-linejoin="round" stroke-miterlimit="4" stroke-opacity="1" stroke-width=".5" d="m 32,898.36214 c -6.648,0 -12,5.352 -12,12 l 0,70 0,2 0,32.00006 24.705078,-20.00006 115.294922,0 c 6.648,0 12,-5.352 12,-12 l 0,-72 c 0,-6.648 -5.352,-12 -12,-12 l -128,0 z" clip-rule="nonzero" color="#000" color-interpolation="sRGB" color-interpolation-filters="linearRGB" color-rendering="auto" display="inline" enable-background="accumulate" filter="url(#filter5838)" image-rendering="auto" opacity="1" overflow="visible" shape-rendering="auto" text-rendering="auto" visibility="visible" style="isolation:auto;mix-blend-mode:normal;solid-color:#000;solid-opacity:1"/><path id="path5349" fill="url(#linearGradient5800)" fill-opacity="1" stroke="none" d="M 96 58 C 80.536039 58 68 70.53604 68 86 C 68.000198 93.983604 71.34636 101.18264 76.707031 106.2832 L 104.42383 134 L 160 134 C 166.5115 134 171.76687 128.86199 171.98047 122.4043 L 116.2832 66.707031 C 111.18251 61.346477 103.98365 58 96 58 z" display="inline" enable-background="new" opacity="1" transform="translate(0,860.36216)"/><path id="path35543-5" fill="#f5f5f5" fill-opacity="1" stroke="none" d="m 96,918.36216 c -15.463961,0 -28,12.53605 -28,28.00001 0,15.46396 12.536039,28 28,28 15.46396,0 28,-12.53604 28,-28 0,-15.46396 -12.53604,-28.00001 -28,-28.00001 z" display="inline" enable-background="new" filter="url(#filter5802)"/><path color="#000" style="isolation:auto;mix-blend-mode:normal;solid-color:#000;solid-opacity:1" id="rect4175" fill="#5c8ccf" fill-opacity="1" fill-rule="evenodd" stroke="none" stroke-dasharray="none" stroke-dashoffset="0" stroke-linecap="butt" stroke-linejoin="round" stroke-miterlimit="4" stroke-opacity="1" stroke-width=".5" d="m 84,73.875 0,8.375 4,0 0,-8.375 z m 19.875,0 0,8.375 4.125,0 0,-8.375 z M 114.25,87.25 C 110.12884,91.31856 103.64864,94 96.375,94 89.427675,94 83.384517,91.50973 79.25,87.75 c 2.115637,6.01573 9.042278,10.5 17.375,10.5 8.58376,0 15.75332,-4.70648 17.625,-11 z" clip-rule="nonzero" color-interpolation="sRGB" color-interpolation-filters="linearRGB" color-rendering="auto" display="inline" enable-background="accumulate" image-rendering="auto" opacity="1" overflow="visible" shape-rendering="auto" text-rendering="auto" transform="translate(0,860.36216)" visibility="visible"/><path id="rect3410-8" fill="#fff" fill-opacity="1" fill-rule="evenodd" stroke="none" stroke-dasharray="none" stroke-dashoffset="0" stroke-linecap="butt" stroke-linejoin="round" stroke-miterlimit="4" stroke-opacity="1" stroke-width=".5" d="m 32,898.36216 c -6.648,0 -12,5.352 -12,12 l 0,1 c 0,-6.648 5.352,-12 12,-12 l 128,0 c 6.648,0 12,5.352 12,12 l 0,-1 c 0,-6.648 -5.352,-12 -12,-12 l -128,0 z" clip-rule="nonzero" color="#000" color-interpolation="sRGB" color-interpolation-filters="linearRGB" color-rendering="auto" display="inline" enable-background="accumulate" image-rendering="auto" opacity=".2" overflow="visible" shape-rendering="auto" text-rendering="auto" visibility="visible" style="isolation:auto;mix-blend-mode:normal;solid-color:#000;solid-opacity:1"/><path id="rect3410-87" fill="#1a237e" fill-opacity="1" fill-rule="evenodd" stroke="none" stroke-dasharray="none" stroke-dashoffset="0" stroke-linecap="butt" stroke-linejoin="round" stroke-miterlimit="4" stroke-opacity="1" stroke-width=".5" d="m 172,981.36216 c 0,6.648 -5.352,12 -12,12 l -115.294922,0 L 20,1013.3622 l 0,1 24.705078,-20.00004 115.294922,0 c 6.648,0 12,-5.352 12,-12 l 0,-1 z" clip-rule="nonzero" color="#000" color-interpolation="sRGB" color-interpolation-filters="linearRGB" color-rendering="auto" display="inline" enable-background="accumulate" image-rendering="auto" opacity=".2" overflow="visible" shape-rendering="auto" text-rendering="auto" visibility="visible" style="isolation:auto;mix-blend-mode:normal;solid-color:#000;solid-opacity:1"/><path id="path35543-5-5-88" fill="#fff" fill-opacity="1" stroke="none" d="m 96,918.36216 c -15.463961,0 -28,12.53605 -28,28 0,0.16764 0.01074,0.33306 0.01367,0.5 0.267732,-15.2324 12.690005,-27.5 27.986328,-27.5 15.29632,0 27.7186,12.26759 27.98633,27.5 0.003,-0.16694 0.0137,-0.33236 0.0137,-0.5 0,-15.46396 -12.53604,-28 -28,-28 z" display="inline" enable-background="new" opacity=".4"/><path id="path35543-5-5-4" fill="#1a237e" fill-opacity="1" stroke="none" d="M 68.013672 86.5 C 68.010738 86.666937 68 86.832362 68 87 C 68 102.46397 80.536039 115 96 115 C 111.46396 115 124 102.46397 124 87 C 124 86.832362 123.98926 86.666937 123.98633 86.5 C 123.7186 101.73242 111.29632 114 96 114 C 80.703677 114 68.281404 101.73242 68.013672 86.5 z" display="inline" enable-background="new" opacity=".2" transform="translate(0,860.36216)"/></g><g id="layer2"><path id="rect3410-3" fill="url(#radialGradient5835)" fill-opacity="1" fill-rule="evenodd" stroke="none" stroke-dasharray="none" stroke-dashoffset="0" stroke-linecap="butt" stroke-linejoin="round" stroke-miterlimit="4" stroke-opacity="1" stroke-width=".5" d="m 32,898.36214 c -6.648,0 -12,5.352 -12,12 l 0,70 0,2 0,32.00006 24.705078,-20.00006 115.294922,0 c 6.648,0 12,-5.352 12,-12 l 0,-72 c 0,-6.648 -5.352,-12 -12,-12 l -128,0 z" clip-rule="nonzero" color="#000" color-interpolation="sRGB" color-interpolation-filters="linearRGB" color-rendering="auto" display="inline" enable-background="accumulate" image-rendering="auto" opacity="1" overflow="visible" shape-rendering="auto" text-rendering="auto" transform="translate(0,-860.36216)" visibility="visible" style="isolation:auto;mix-blend-mode:normal;solid-color:#000;solid-opacity:1"/></g></svg>