<svg xmlns="http://www.w3.org/2000/svg" xmlns:svg="http://www.w3.org/2000/svg" xmlns:xlink="http://www.w3.org/1999/xlink" id="svg2" width="192" height="192" version="1.1" viewBox="0 0 192 192"><defs id="defs4"><linearGradient id="linearGradient4360"><stop id="stop4362" offset="0" stop-color="#fff" stop-opacity=".1"/><stop id="stop4364" offset="1" stop-color="#fff" stop-opacity="0"/></linearGradient><filter id="filter4281" color-interpolation-filters="sRGB"><feFlood id="feFlood4283" flood-color="#000" flood-opacity=".12" result="flood"/><feComposite id="feComposite4285" in="flood" in2="SourceGraphic" operator="in" result="composite1"/><feGaussianBlur id="feGaussianBlur4287" in="composite1" result="blur" stdDeviation="2"/><feOffset id="feOffset4289" dx="0" dy="0" result="offset"/><feComposite id="feComposite4291" in="SourceGraphic" in2="offset" operator="over" result="fbSourceGraphic"/><feColorMatrix id="feColorMatrix4293" in="fbSourceGraphic" result="fbSourceGraphicAlpha" values="0 0 0 -1 0 0 0 0 -1 0 0 0 0 -1 0 0 0 0 1 0"/><feFlood id="feFlood4295" flood-color="#000" flood-opacity=".24" in="fbSourceGraphic" result="flood"/><feComposite id="feComposite4297" in="flood" in2="fbSourceGraphic" operator="in" result="composite1"/><feGaussianBlur id="feGaussianBlur4299" in="composite1" result="blur" stdDeviation="2"/><feOffset id="feOffset4301" dx="0" dy="4" result="offset"/><feComposite id="feComposite4303" in="fbSourceGraphic" in2="offset" operator="over" result="composite2"/></filter><filter id="filter4281-0" color-interpolation-filters="sRGB"><feFlood id="feFlood4283-3" flood-color="#000" flood-opacity=".12" result="flood"/><feComposite id="feComposite4285-2" in="flood" in2="SourceGraphic" operator="in" result="composite1"/><feGaussianBlur id="feGaussianBlur4287-1" in="composite1" result="blur" stdDeviation="2"/><feOffset id="feOffset4289-5" dx="0" dy="0" result="offset"/><feComposite id="feComposite4291-3" in="SourceGraphic" in2="offset" operator="over" result="fbSourceGraphic"/><feColorMatrix id="feColorMatrix4293-4" in="fbSourceGraphic" result="fbSourceGraphicAlpha" values="0 0 0 -1 0 0 0 0 -1 0 0 0 0 -1 0 0 0 0 1 0"/><feFlood id="feFlood4295-8" flood-color="#000" flood-opacity=".24" in="fbSourceGraphic" result="flood"/><feComposite id="feComposite4297-2" in="flood" in2="fbSourceGraphic" operator="in" result="composite1"/><feGaussianBlur id="feGaussianBlur4299-3" in="composite1" result="blur" stdDeviation="2"/><feOffset id="feOffset4301-4" dx="0" dy="4" result="offset"/><feComposite id="feComposite4303-9" in="fbSourceGraphic" in2="offset" operator="over" result="composite2"/></filter><radialGradient id="radialGradient4366" cx="20" cy="880.362" r="76" fx="20" fy="880.362" gradientTransform="matrix(2.0000006,1.9999995,-1.999999,2,1740.7235,-920.3622)" gradientUnits="userSpaceOnUse" xlink:href="#linearGradient4360"/></defs><metadata id="metadata7"/><g id="layer1" transform="translate(0,-860.36216)"><rect clip-rule="nonzero" style="isolation:auto;mix-blend-mode:normal;solid-color:#000;solid-opacity:1" id="rect3403" width="152" height="152" x="20" y="880.362" fill="#f44336" fill-opacity="1" fill-rule="evenodd" stroke="none" stroke-dasharray="none" stroke-dashoffset="0" stroke-linecap="butt" stroke-linejoin="round" stroke-miterlimit="4" stroke-opacity="1" stroke-width=".3" color="#000" color-interpolation="sRGB" color-interpolation-filters="linearRGB" color-rendering="auto" display="inline" enable-background="accumulate" filter="url(#filter4281)" image-rendering="auto" opacity="1" overflow="visible" rx="12" ry="12" shape-rendering="auto" text-rendering="auto" visibility="visible"/><path id="rect3403-6" fill="#3e2723" fill-opacity="1" fill-rule="evenodd" stroke="none" stroke-dasharray="none" stroke-dashoffset="0" stroke-linecap="butt" stroke-linejoin="round" stroke-miterlimit="4" stroke-opacity="1" stroke-width=".3" d="m 20,1019.3622 0,1 c 0,6.648 5.352,12 12,12 l 128,0 c 6.648,0 12,-5.352 12,-12 l 0,-1 c 0,6.648 -5.352,12 -12,12 l -128,0 c -6.648,0 -12,-5.352 -12,-12 z" clip-rule="nonzero" color="#000" color-interpolation="sRGB" color-interpolation-filters="linearRGB" color-rendering="auto" display="inline" enable-background="accumulate" image-rendering="auto" opacity=".2" overflow="visible" shape-rendering="auto" text-rendering="auto" visibility="visible" style="isolation:auto;mix-blend-mode:normal;solid-color:#000;solid-opacity:1"/><path id="rect3403-5" fill="#fff" fill-opacity="1" fill-rule="evenodd" stroke="none" stroke-dasharray="none" stroke-dashoffset="0" stroke-linecap="butt" stroke-linejoin="round" stroke-miterlimit="4" stroke-opacity="1" stroke-width=".3" d="m 32,880.36216 c -6.648,0 -12,5.352 -12,12 l 0,1 c 0,-6.648 5.352,-12 12,-12 l 128,0 c 6.648,0 12,5.352 12,12 l 0,-1 c 0,-6.648 -5.352,-12 -12,-12 l -128,0 z" clip-rule="nonzero" color="#000" color-interpolation="sRGB" color-interpolation-filters="linearRGB" color-rendering="auto" display="inline" enable-background="accumulate" image-rendering="auto" opacity=".2" overflow="visible" shape-rendering="auto" text-rendering="auto" visibility="visible" style="isolation:auto;mix-blend-mode:normal;solid-color:#000;solid-opacity:1"/><path id="path14726" fill="#fafafa" fill-opacity="1" fill-rule="nonzero" stroke="none" stroke-width="1" d="m 20,1004.4988 c 25.972163,-7.2549 50.518231,-19.5784 71.85135,-36.07339 7.224847,-5.58633 14.22621,-11.81825 18.63375,-19.81694 2.20376,-3.99935 3.71953,-8.41111 4.13184,-12.95879 0.41231,-4.54768 -0.30786,-9.23312 -2.34309,-13.32081 -1.74974,-3.51431 -4.44275,-6.53215 -7.64731,-8.79993 -3.20455,-2.26779 -6.910621,-3.79443 -10.75315,-4.59877 -7.685059,-1.60867 -15.764765,-0.32552 -23.10674,2.45717 -8.839488,3.35026 -16.918634,8.948 -22.60229,16.5016 -5.683656,7.5536 -8.854857,17.10644 -8.11797,26.53076 0.477867,6.11162 2.565962,12.05925 5.790498,17.27295 3.224536,5.2137 7.567022,9.70173 12.517946,13.31679 9.901848,7.23013 22.03651,10.8869 34.197966,12.44262 27.67778,3.54064 56.5845,-3.58366 79.4472,-19.58029 l 0,-26.01324 c -17.96358,19.78152 -43.49021,32.51795 -70.09776,34.97504 -11.468247,1.05904 -23.417241,0.18896 -33.774833,-4.84717 -5.178795,-2.51806 -9.889921,-6.06836 -13.497808,-10.55654 -3.607887,-4.48817 -6.084644,-9.92948 -6.793544,-15.6442 -1.034594,-8.34027 1.792812,-16.9452 7.007918,-23.53558 5.215106,-6.59039 12.673444,-11.22605 20.694307,-13.73529 4.42651,-1.38478 9.116699,-2.15531 13.716933,-1.56416 4.600234,0.59115 9.11385,2.64222 12.111717,6.1812 2.42873,2.86712 3.75635,6.58692 3.99102,10.33713 0.23467,3.75021 -0.58567,7.52511 -2.07872,10.97329 -2.98609,6.89636 -8.491959,12.35412 -14.10442,17.35179 C 68.834097,979.90664 45.307092,994.43093 20,1004.4988 Z" color="#000" display="inline" enable-background="accumulate" overflow="visible" visibility="visible" style="marker:none"/></g><g id="layer2"><rect id="rect3403-58" width="152" height="152" x="20" y="880.362" fill="url(#radialGradient4366)" fill-opacity="1" fill-rule="evenodd" stroke="none" stroke-dasharray="none" stroke-dashoffset="0" stroke-linecap="butt" stroke-linejoin="round" stroke-miterlimit="4" stroke-opacity="1" stroke-width=".3" clip-rule="nonzero" color="#000" color-interpolation="sRGB" color-interpolation-filters="linearRGB" color-rendering="auto" display="inline" enable-background="accumulate" image-rendering="auto" opacity="1" overflow="visible" rx="12" ry="12" shape-rendering="auto" text-rendering="auto" transform="translate(0,-860.36216)" visibility="visible" style="isolation:auto;mix-blend-mode:normal;solid-color:#000;solid-opacity:1"/></g></svg>