<svg xmlns="http://www.w3.org/2000/svg" xmlns:svg="http://www.w3.org/2000/svg" xmlns:xlink="http://www.w3.org/1999/xlink" id="svg2" width="192" height="192" version="1.1" viewBox="0 0 192 192"><defs id="defs4"><linearGradient id="linearGradient4925"><stop id="stop4927" offset="0" stop-color="#fff" stop-opacity=".102"/><stop id="stop4929" offset="1" stop-color="#fff" stop-opacity="0"/></linearGradient><linearGradient id="linearGradient4902"><stop id="stop4904" offset="0" stop-color="#1a237e" stop-opacity=".2"/><stop id="stop4906" offset="1" stop-color="#1a237e" stop-opacity="0"/></linearGradient><clipPath id="clipPath4327" clipPathUnits="userSpaceOnUse"><rect id="rect4329" width="152" height="152" x="20" y="880.362" fill="#3c5a99" fill-opacity="1" fill-rule="evenodd" stroke="none" stroke-dasharray="none" stroke-dashoffset="0" stroke-linecap="butt" stroke-linejoin="round" stroke-miterlimit="4" stroke-opacity="1" stroke-width=".5" clip-rule="nonzero" color="#000" color-interpolation="sRGB" color-interpolation-filters="linearRGB" color-rendering="auto" display="inline" enable-background="accumulate" image-rendering="auto" opacity="1" overflow="visible" rx="12" ry="12" shape-rendering="auto" text-rendering="auto" visibility="visible" style="isolation:auto;mix-blend-mode:normal;solid-color:#000;solid-opacity:1"/></clipPath><linearGradient id="linearGradient4908" x1="81.381" x2="172" y1="42.951" y2="133.57" gradientUnits="userSpaceOnUse" xlink:href="#linearGradient4902"/><radialGradient id="radialGradient4931" cx="20" cy="880.362" r="76" fx="20" fy="880.362" gradientTransform="matrix(2.0000003,2.0000004,-2.0000007,2.0000007,1740.7249,-920.36274)" gradientUnits="userSpaceOnUse" xlink:href="#linearGradient4925"/><filter id="filter4934" width="2" color-interpolation-filters="sRGB"><feFlood id="feFlood4936" flood-color="#1A237E" flood-opacity=".2" result="flood"/><feComposite id="feComposite4938" in="flood" in2="SourceGraphic" operator="in" result="composite1"/><feGaussianBlur id="feGaussianBlur4940" in="composite1" result="blur" stdDeviation="4"/><feOffset id="feOffset4942" dx="4" dy="4" result="offset"/><feComposite id="feComposite4944" in="SourceGraphic" in2="offset" operator="over" result="composite2"/></filter><filter id="filter4946" color-interpolation-filters="sRGB"><feFlood id="feFlood4948" flood-color="#000" flood-opacity=".12" result="flood"/><feComposite id="feComposite4950" in="flood" in2="SourceGraphic" operator="in" result="composite1"/><feGaussianBlur id="feGaussianBlur4952" in="composite1" result="blur" stdDeviation="2"/><feOffset id="feOffset4954" dx="0" dy="0" result="offset"/><feComposite id="feComposite4956" in="SourceGraphic" in2="offset" operator="over" result="fbSourceGraphic"/><feColorMatrix id="feColorMatrix4958" in="fbSourceGraphic" result="fbSourceGraphicAlpha" values="0 0 0 -1 0 0 0 0 -1 0 0 0 0 -1 0 0 0 0 1 0"/><feFlood id="feFlood4960" flood-color="#000" flood-opacity=".24" in="fbSourceGraphic" result="flood"/><feComposite id="feComposite4962" in="flood" in2="fbSourceGraphic" operator="in" result="composite1"/><feGaussianBlur id="feGaussianBlur4964" in="composite1" result="blur" stdDeviation="2"/><feOffset id="feOffset4966" dx="0" dy="4" result="offset"/><feComposite id="feComposite4968" in="fbSourceGraphic" in2="offset" operator="over" result="composite2"/></filter></defs><metadata id="metadata7"/><g id="layer1" transform="translate(0,-860.36216)"><rect clip-rule="nonzero" style="isolation:auto;mix-blend-mode:normal;solid-color:#000;solid-opacity:1" id="rect3345" width="152" height="152" x="20" y="880.362" fill="#3c5a99" fill-opacity="1" fill-rule="evenodd" stroke="none" stroke-dasharray="none" stroke-dashoffset="0" stroke-linecap="butt" stroke-linejoin="round" stroke-miterlimit="4" stroke-opacity="1" stroke-width=".5" color="#000" color-interpolation="sRGB" color-interpolation-filters="linearRGB" color-rendering="auto" display="inline" enable-background="accumulate" filter="url(#filter4946)" image-rendering="auto" opacity="1" overflow="visible" rx="12" ry="12" shape-rendering="auto" text-rendering="auto" visibility="visible"/><path id="path4455" fill="url(#linearGradient4908)" fill-opacity="1" d="M 130.69336 42.951172 C 113.17942 42.951172 101.1875 53.642991 101.1875 73.275391 L 101.1875 90.193359 L 81.380859 90.193359 L 81.380859 113.13281 L 101.1875 132.94336 L 101.1875 171.99414 C 101.1875 171.99355 101.19521 172.00049 101.19531 172 L 160 172 C 166.648 172 172 166.648 172 160 L 172 67.888672 C 158.02446 53.869443 148.39413 44.116629 148.39453 43.855469 C 146.29368 43.575969 139.08259 42.951172 130.69336 42.951172 z" opacity="1" transform="translate(0,860.36216)"/><path id="rect3345-9" fill="#fff" fill-opacity="1" fill-rule="evenodd" stroke="none" stroke-dasharray="none" stroke-dashoffset="0" stroke-linecap="butt" stroke-linejoin="round" stroke-miterlimit="4" stroke-opacity="1" stroke-width=".5" d="m 32,880.36216 c -6.648,0 -12,5.352 -12,12 l 0,1 c 0,-6.648 5.352,-12 12,-12 l 128,0 c 6.648,0 12,5.352 12,12 l 0,-1 c 0,-6.648 -5.352,-12 -12,-12 l -128,0 z" clip-rule="nonzero" color="#000" color-interpolation="sRGB" color-interpolation-filters="linearRGB" color-rendering="auto" display="inline" enable-background="accumulate" image-rendering="auto" opacity=".2" overflow="visible" shape-rendering="auto" text-rendering="auto" visibility="visible" style="isolation:auto;mix-blend-mode:normal;solid-color:#000;solid-opacity:1"/><path id="rect3345-5" fill="#1a237e" fill-opacity="1" fill-rule="evenodd" stroke="none" stroke-dasharray="none" stroke-dashoffset="0" stroke-linecap="butt" stroke-linejoin="round" stroke-miterlimit="4" stroke-opacity="1" stroke-width=".5" d="M 20 159 L 20 160 C 20 166.648 25.352 172 32 172 L 101.1875 172 L 101.1875 171 L 32 171 C 25.352 171 20 165.648 20 159 z M 172 159 C 172 165.648 166.648 171 160 171 L 124.87695 171 L 124.87695 172 L 160 172 C 166.648 172 172 166.648 172 160 L 172 159 z" clip-rule="nonzero" color="#000" color-interpolation="sRGB" color-interpolation-filters="linearRGB" color-rendering="auto" display="inline" enable-background="accumulate" image-rendering="auto" opacity=".2" overflow="visible" shape-rendering="auto" text-rendering="auto" transform="translate(0,860.36216)" visibility="visible" style="isolation:auto;mix-blend-mode:normal;solid-color:#000;solid-opacity:1"/><path id="f" fill="#f5f5f5" fill-opacity="1" d="m 124.8778,1042.0057 0,-68.50616 19.75752,0 2.9584,-22.9401 -22.71592,0 0,-14.6458 c 0,-6.6416 1.84429,-11.16772 11.36828,-11.16772 l 12.14741,-0.005 0,-20.51776 c -2.10085,-0.27955 -9.31168,-0.90416 -17.70091,-0.90416 -17.51394,0 -29.50446,10.69061 -29.50446,30.32305 l 0,16.91769 -19.808228,0 0,22.94011 19.808228,0 0,68.50615 23.68968,0 z" clip-path="url(#clipPath4327)" filter="url(#filter4934)"/><path id="rect3345-5-4" fill="#212121" fill-opacity="1" fill-rule="evenodd" stroke="none" stroke-dasharray="none" stroke-dashoffset="0" stroke-linecap="butt" stroke-linejoin="round" stroke-miterlimit="4" stroke-opacity="1" stroke-width=".5" d="M 101.1875 171 L 101.1875 172 L 124.87695 172 L 124.87695 171 L 101.1875 171 z" clip-rule="nonzero" color="#000" color-interpolation="sRGB" color-interpolation-filters="linearRGB" color-rendering="auto" display="inline" enable-background="accumulate" image-rendering="auto" opacity=".1" overflow="visible" shape-rendering="auto" text-rendering="auto" transform="translate(0,860.36216)" visibility="visible" style="isolation:auto;mix-blend-mode:normal;solid-color:#000;solid-opacity:1"/><path id="f-2-3" fill="#fff" fill-opacity="1" d="m 130.69336,903.31893 c -17.51394,0 -29.50586,10.68982 -29.50586,30.32226 l 0,1 c 0,-19.63244 11.99192,-30.32226 29.50586,-30.32226 8.38923,0 15.59837,0.62474 17.69922,0.90429 l 0,-1 c -2.10085,-0.27955 -9.30999,-0.90429 -17.69922,-0.90429 z m -49.312501,47.24023 0,1 19.806641,0 0,-1 -19.806641,0 z m 43.496091,0 0,1 22.58789,0 0.12891,-1 -22.7168,0 z" clip-path="none" opacity=".4"/><path id="f-2-1" fill="#1a237e" fill-opacity="1" d="m 148.39258,64.378906 -12.14649,0.0039 c -9.52399,0 -11.36914,4.526369 -11.36914,11.167969 l 0,1 c 0,-6.6416 1.84515,-11.166015 11.36914,-11.166015 l 12.14649,-0.0059 z m -0.92774,26.81836 -2.83007,21.939454 -19.75782,0 0,1 19.75782,0 2.95898,-22.939454 z m -66.083981,21.939454 0,1.00195 19.806641,0 0,-1.00195 z" clip-path="none" opacity=".2" transform="translate(0,860.36216)"/></g><g id="layer2"><rect clip-rule="nonzero" style="isolation:auto;mix-blend-mode:normal;solid-color:#000;solid-opacity:1" id="rect3345-4" width="152" height="152" x="20" y="880.362" fill="url(#radialGradient4931)" fill-opacity="1" fill-rule="evenodd" stroke="none" stroke-dasharray="none" stroke-dashoffset="0" stroke-linecap="butt" stroke-linejoin="round" stroke-miterlimit="4" stroke-opacity="1" stroke-width=".5" color="#000" color-interpolation="sRGB" color-interpolation-filters="linearRGB" color-rendering="auto" display="inline" enable-background="accumulate" image-rendering="auto" opacity="1" overflow="visible" rx="12" ry="12" shape-rendering="auto" text-rendering="auto" transform="translate(0,-860.36216)" visibility="visible"/></g></svg>