<svg xmlns="http://www.w3.org/2000/svg" xmlns:svg="http://www.w3.org/2000/svg" xmlns:xlink="http://www.w3.org/1999/xlink" id="svg2" width="192" height="192" version="1.1" viewBox="0 0 192 192"><defs id="defs4"><linearGradient id="linearGradient5416"><stop id="stop5418" offset="0" stop-color="#3e2723" stop-opacity=".2"/><stop id="stop5420" offset="1" stop-color="#3e2723" stop-opacity="0"/></linearGradient><linearGradient id="linearGradient5406"><stop id="stop5408" offset="0" stop-color="#1a237e" stop-opacity=".2"/><stop id="stop5410" offset="1" stop-color="#1a237e" stop-opacity="0"/></linearGradient><linearGradient id="linearGradient5758"><stop id="stop5760" offset="0" stop-color="#fff" stop-opacity=".102"/><stop id="stop5762" offset="1" stop-color="#fff" stop-opacity="0"/></linearGradient><radialGradient id="radialGradient5764" cx="20" cy="880.362" r="76" fx="20" fy="880.362" gradientTransform="matrix(1.9999993,2.0000005,-2.0000008,1.9999996,1740.7252,-920.36187)" gradientUnits="userSpaceOnUse" xlink:href="#linearGradient5758"/><clipPath id="clipPath4175" clipPathUnits="userSpaceOnUse"><rect clip-rule="nonzero" style="isolation:auto;mix-blend-mode:normal;solid-color:#000;solid-opacity:1" id="rect4177" width="152" height="152" x="20" y="880.362" fill="#f5f5f5" fill-opacity="1" fill-rule="evenodd" stroke="none" stroke-dasharray="none" stroke-dashoffset="0" stroke-linecap="butt" stroke-linejoin="round" stroke-miterlimit="4" stroke-opacity="1" stroke-width=".5" color="#000" color-interpolation="sRGB" color-interpolation-filters="linearRGB" color-rendering="auto" display="inline" enable-background="accumulate" image-rendering="auto" opacity="1" overflow="visible" rx="12" ry="12" shape-rendering="auto" text-rendering="auto" visibility="visible"/></clipPath><clipPath id="clipPath4179" clipPathUnits="userSpaceOnUse"><rect clip-rule="nonzero" style="isolation:auto;mix-blend-mode:normal;solid-color:#000;solid-opacity:1" id="rect4181" width="152" height="152" x="20" y="880.362" fill="#f5f5f5" fill-opacity="1" fill-rule="evenodd" stroke="none" stroke-dasharray="none" stroke-dashoffset="0" stroke-linecap="butt" stroke-linejoin="round" stroke-miterlimit="4" stroke-opacity="1" stroke-width=".5" color="#000" color-interpolation="sRGB" color-interpolation-filters="linearRGB" color-rendering="auto" display="inline" enable-background="accumulate" image-rendering="auto" opacity="1" overflow="visible" rx="12" ry="12" shape-rendering="auto" text-rendering="auto" visibility="visible"/></clipPath><filter id="filter5321" color-interpolation-filters="sRGB"><feFlood id="feFlood5323" flood-color="#000" flood-opacity=".12" result="flood"/><feComposite id="feComposite5325" in="flood" in2="SourceGraphic" operator="in" result="composite1"/><feGaussianBlur id="feGaussianBlur5327" in="composite1" result="blur" stdDeviation="2"/><feOffset id="feOffset5329" dx="0" dy="0" result="offset"/><feComposite id="feComposite5331" in="SourceGraphic" in2="offset" operator="over" result="fbSourceGraphic"/><feColorMatrix id="feColorMatrix5333" in="fbSourceGraphic" result="fbSourceGraphicAlpha" values="0 0 0 -1 0 0 0 0 -1 0 0 0 0 -1 0 0 0 0 1 0"/><feFlood id="feFlood5335" flood-color="#000" flood-opacity=".24" in="fbSourceGraphic" result="flood"/><feComposite id="feComposite5337" in="flood" in2="fbSourceGraphic" operator="in" result="composite1"/><feGaussianBlur id="feGaussianBlur5339" in="composite1" result="blur" stdDeviation="2"/><feOffset id="feOffset5341" dx="0" dy="4" result="offset"/><feComposite id="feComposite5343" in="fbSourceGraphic" in2="offset" operator="over" result="composite2"/></filter><linearGradient id="linearGradient5412" x1="57" x2="157" y1="72" y2="172" gradientUnits="userSpaceOnUse" xlink:href="#linearGradient5416"/><linearGradient id="linearGradient5414" x1="57" x2="157" y1="72" y2="172" gradientUnits="userSpaceOnUse" xlink:href="#linearGradient5406"/><filter id="filter5422" width="2" height="2" x="-.5" y="-.5" color-interpolation-filters="sRGB"><feFlood id="feFlood5424" flood-color="#3E2723" flood-opacity=".2" result="flood"/><feComposite id="feComposite5426" in="flood" in2="SourceGraphic" operator="in" result="composite1"/><feGaussianBlur id="feGaussianBlur5428" in="composite1" result="blur" stdDeviation="4"/><feOffset id="feOffset5430" dx="4" dy="4" result="offset"/><feComposite id="feComposite5432" in="SourceGraphic" in2="offset" operator="over" result="composite2"/></filter><filter id="filter5434" width="2" height="2" x="-.5" y="-.5" color-interpolation-filters="sRGB"><feFlood id="feFlood5436" flood-color="#1A237E" flood-opacity=".2" result="flood"/><feComposite id="feComposite5438" in="flood" in2="SourceGraphic" operator="in" result="composite1"/><feGaussianBlur id="feGaussianBlur5440" in="composite1" result="blur" stdDeviation="4"/><feOffset id="feOffset5442" dx="4" dy="4" result="offset"/><feComposite id="feComposite5444" in="SourceGraphic" in2="offset" operator="over" result="composite2"/></filter><clipPath id="clipPath4175-0" clipPathUnits="userSpaceOnUse"><rect clip-rule="nonzero" style="isolation:auto;mix-blend-mode:normal;solid-color:#000;solid-opacity:1" id="rect4177-1" width="152" height="152" x="20" y="880.362" fill="#f5f5f5" fill-opacity="1" fill-rule="evenodd" stroke="none" stroke-dasharray="none" stroke-dashoffset="0" stroke-linecap="butt" stroke-linejoin="round" stroke-miterlimit="4" stroke-opacity="1" stroke-width=".5" color="#000" color-interpolation="sRGB" color-interpolation-filters="linearRGB" color-rendering="auto" display="inline" enable-background="accumulate" image-rendering="auto" opacity="1" overflow="visible" rx="12" ry="12" shape-rendering="auto" text-rendering="auto" visibility="visible"/></clipPath></defs><metadata id="metadata7"/><g id="layer1" transform="translate(0,-860.36216)"><rect clip-rule="nonzero" style="isolation:auto;mix-blend-mode:normal;solid-color:#000;solid-opacity:1" id="rect5303" width="152" height="152" x="20" y="880.362" fill="#fff" fill-opacity="1" fill-rule="evenodd" stroke="none" stroke-dasharray="none" stroke-dashoffset="0" stroke-linecap="butt" stroke-linejoin="round" stroke-miterlimit="4" stroke-opacity="1" stroke-width=".5" color="#000" color-interpolation="sRGB" color-interpolation-filters="linearRGB" color-rendering="auto" display="inline" enable-background="accumulate" filter="url(#filter5321)" image-rendering="auto" opacity="1" overflow="visible" rx="12" ry="12" shape-rendering="auto" text-rendering="auto" visibility="visible"/><rect id="rect4159" width="76" height="152" x="20" y="880.362" fill="#0d64d2" fill-opacity="1" fill-rule="evenodd" stroke="none" stroke-dasharray="none" stroke-dashoffset="0" stroke-linecap="butt" stroke-linejoin="round" stroke-miterlimit="4" stroke-opacity="1" stroke-width=".5" clip-path="url(#clipPath4179)" clip-rule="nonzero" color="#000" color-interpolation="sRGB" color-interpolation-filters="linearRGB" color-rendering="auto" display="inline" enable-background="accumulate" image-rendering="auto" opacity="1" overflow="visible" shape-rendering="auto" text-rendering="auto" transform="matrix(1.0526316,0,0,1,-1.0526316,0)" visibility="visible" style="isolation:auto;mix-blend-mode:normal;solid-color:#000;solid-opacity:1"/><path color="#000" style="isolation:auto;mix-blend-mode:normal;solid-color:#000;solid-opacity:1" id="path4371" fill="url(#linearGradient5414)" fill-opacity="1" fill-rule="evenodd" stroke="none" stroke-dasharray="none" stroke-dashoffset="0" stroke-linecap="butt" stroke-linejoin="round" stroke-miterlimit="4" stroke-opacity="1" stroke-width=".5" d="M 66 72 C 59.634804 72 53.53017 74.528417 49.029297 79.029297 C 44.528424 83.530167 42 89.6348 42 96 C 42 102.3652 44.528424 108.46983 49.029297 112.9707 L 96 159.94141 L 96 92.058594 L 82.970703 79.029297 C 78.46983 74.528417 72.365196 72 66 72 z" clip-rule="nonzero" color-interpolation="sRGB" color-interpolation-filters="linearRGB" color-rendering="auto" display="inline" enable-background="accumulate" image-rendering="auto" opacity="1" overflow="visible" shape-rendering="auto" text-rendering="auto" transform="translate(0,860.36216)" visibility="visible"/><rect stroke-width=".5" style="isolation:auto;mix-blend-mode:normal;solid-color:#000;solid-opacity:1" id="rect4173" width="76" height="152" x="96" y="880.362" fill="#ff0080" fill-opacity="1" fill-rule="evenodd" stroke="none" stroke-dasharray="none" stroke-dashoffset="0" stroke-linecap="butt" stroke-linejoin="round" stroke-miterlimit="4" stroke-opacity="1" clip-path="url(#clipPath4175)" clip-rule="nonzero" color="#000" color-interpolation="sRGB" color-interpolation-filters="linearRGB" color-rendering="auto" display="inline" enable-background="accumulate" image-rendering="auto" opacity="1" overflow="visible" shape-rendering="auto" text-rendering="auto" visibility="visible"/><path color="#000" style="isolation:auto;mix-blend-mode:normal;solid-color:#000;solid-opacity:1" id="path4371-4" fill="url(#linearGradient5412)" fill-opacity="1" fill-rule="evenodd" stroke="none" stroke-dasharray="none" stroke-dashoffset="0" stroke-linecap="butt" stroke-linejoin="round" stroke-miterlimit="4" stroke-opacity="1" stroke-width=".5" d="M 126 72 C 119.6348 72 113.53017 74.528417 109.0293 79.029297 C 104.52842 83.530167 102 89.6348 102 96 C 102 96.7241 102.0369 97.444776 102.10156 98.160156 L 96 92.058594 L 96 159.94141 L 108.05859 172 L 160 172 C 166.648 172 172 166.648 172 160 L 172 108.05859 L 142.9707 79.029297 C 138.46983 74.528417 132.3652 72 126 72 z" clip-rule="nonzero" color-interpolation="sRGB" color-interpolation-filters="linearRGB" color-rendering="auto" display="inline" enable-background="accumulate" image-rendering="auto" opacity="1" overflow="visible" shape-rendering="auto" text-rendering="auto" transform="translate(0,860.36216)" visibility="visible"/><path id="path5605-0" fill="#f5f5f5" fill-opacity="1" fill-rule="evenodd" stroke="none" stroke-dasharray="none" stroke-dashoffset="0" stroke-linecap="butt" stroke-linejoin="round" stroke-miterlimit="4" stroke-opacity="1" stroke-width=".5" d="m 150,956.36218 a 24,24 0 0 1 -24,24 24,24 0 0 1 -24,-24 24,24 0 0 1 24,-24 24,24 0 0 1 24,24 z" clip-rule="nonzero" color="#000" color-interpolation="sRGB" color-interpolation-filters="linearRGB" color-rendering="auto" display="inline" enable-background="accumulate" filter="url(#filter5422)" image-rendering="auto" opacity="1" overflow="visible" shape-rendering="auto" text-rendering="auto" visibility="visible" style="isolation:auto;mix-blend-mode:normal;solid-color:#000;solid-opacity:1"/><path id="path5605" fill="#f5f5f5" fill-opacity="1" fill-rule="evenodd" stroke="none" stroke-dasharray="none" stroke-dashoffset="0" stroke-linecap="butt" stroke-linejoin="round" stroke-miterlimit="4" stroke-opacity="1" stroke-width=".5" d="m 90,956.36218 a 24,24 0 0 1 -24,24 24,24 0 0 1 -24,-24 24,24 0 0 1 24,-24 24,24 0 0 1 24,24 z" clip-rule="nonzero" color="#000" color-interpolation="sRGB" color-interpolation-filters="linearRGB" color-rendering="auto" display="inline" enable-background="accumulate" filter="url(#filter5434)" image-rendering="auto" opacity="1" overflow="visible" shape-rendering="auto" text-rendering="auto" visibility="visible" style="isolation:auto;mix-blend-mode:normal;solid-color:#000;solid-opacity:1"/><path color="#000" style="isolation:auto;mix-blend-mode:normal;solid-color:#000;solid-opacity:1" id="rect5063-6" fill="#3e2723" fill-opacity="1" fill-rule="evenodd" stroke="none" stroke-dasharray="none" stroke-dashoffset="0" stroke-linecap="butt" stroke-linejoin="round" stroke-miterlimit="4" stroke-opacity="1" stroke-width=".5" d="M 172 159 C 172 165.648 166.648 171 160 171 L 96 171 L 96 172 L 160 172 C 166.648 172 172 166.648 172 160 L 172 159 z" clip-rule="nonzero" color-interpolation="sRGB" color-interpolation-filters="linearRGB" color-rendering="auto" display="inline" enable-background="accumulate" image-rendering="auto" opacity=".2" overflow="visible" shape-rendering="auto" text-rendering="auto" transform="translate(0,860.36216)" visibility="visible"/><path color="#000" style="isolation:auto;mix-blend-mode:normal;solid-color:#000;solid-opacity:1" id="rect5063-6-1" fill="#1a237e" fill-opacity="1" fill-rule="evenodd" stroke="none" stroke-dasharray="none" stroke-dashoffset="0" stroke-linecap="butt" stroke-linejoin="round" stroke-miterlimit="4" stroke-opacity="1" stroke-width=".5" d="M 20 159 L 20 160 C 20 166.648 25.352 172 32 172 L 96 172 L 96 171 L 32 171 C 25.352 171 20 165.648 20 159 z" clip-rule="nonzero" color-interpolation="sRGB" color-interpolation-filters="linearRGB" color-rendering="auto" display="inline" enable-background="accumulate" image-rendering="auto" opacity=".2" overflow="visible" shape-rendering="auto" text-rendering="auto" transform="translate(0,860.36216)" visibility="visible"/><path id="path5605-33" fill="#fff" fill-opacity="1" fill-rule="evenodd" stroke="none" stroke-dasharray="none" stroke-dashoffset="0" stroke-linecap="butt" stroke-linejoin="round" stroke-miterlimit="4" stroke-opacity="1" stroke-width=".5" d="m 66,932.36213 a 24,24 0 0 0 -24,24 24,24 0 0 0 0.02148,0.58203 A 24,24 0 0 1 66,933.36213 24,24 0 0 1 89.978516,956.7801 24,24 0 0 0 90,956.36213 a 24,24 0 0 0 -24,-24 z" clip-rule="nonzero" color="#000" color-interpolation="sRGB" color-interpolation-filters="linearRGB" color-rendering="auto" display="inline" enable-background="accumulate" image-rendering="auto" opacity=".4" overflow="visible" shape-rendering="auto" text-rendering="auto" visibility="visible" style="isolation:auto;mix-blend-mode:normal;solid-color:#000;solid-opacity:1"/><path color="#000" style="isolation:auto;mix-blend-mode:normal;solid-color:#000;solid-opacity:1" id="path5605-00" fill="#1a237e" fill-opacity="1" fill-rule="evenodd" stroke="none" stroke-dasharray="none" stroke-dashoffset="0" stroke-linecap="butt" stroke-linejoin="round" stroke-miterlimit="4" stroke-opacity="1" stroke-width=".5" d="M 89.978516 96.417969 A 24 24 0 0 1 66 120 A 24 24 0 0 1 42.021484 96.582031 A 24 24 0 0 0 42 97 A 24 24 0 0 0 66 121 A 24 24 0 0 0 90 97 A 24 24 0 0 0 89.978516 96.417969 z" clip-rule="nonzero" color-interpolation="sRGB" color-interpolation-filters="linearRGB" color-rendering="auto" display="inline" enable-background="accumulate" image-rendering="auto" opacity=".2" overflow="visible" shape-rendering="auto" text-rendering="auto" transform="translate(0,860.36216)" visibility="visible"/><path id="path5605-0-5" fill="#fff" fill-opacity="1" fill-rule="evenodd" stroke="none" stroke-dasharray="none" stroke-dashoffset="0" stroke-linecap="butt" stroke-linejoin="round" stroke-miterlimit="4" stroke-opacity="1" stroke-width=".5" d="m 126,932.36213 a 24,24 0 0 0 -24,24 24,24 0 0 0 0.0215,0.58203 A 24,24 0 0 1 126,933.36213 24,24 0 0 1 149.97852,956.7801 24,24 0 0 0 150,956.36213 a 24,24 0 0 0 -24,-24 z" clip-rule="nonzero" color="#000" color-interpolation="sRGB" color-interpolation-filters="linearRGB" color-rendering="auto" display="inline" enable-background="accumulate" image-rendering="auto" opacity=".4" overflow="visible" shape-rendering="auto" text-rendering="auto" visibility="visible" style="isolation:auto;mix-blend-mode:normal;solid-color:#000;solid-opacity:1"/><path color="#000" style="isolation:auto;mix-blend-mode:normal;solid-color:#000;solid-opacity:1" id="path5605-0-3" fill="#3e2723" fill-opacity="1" fill-rule="evenodd" stroke="none" stroke-dasharray="none" stroke-dashoffset="0" stroke-linecap="butt" stroke-linejoin="round" stroke-miterlimit="4" stroke-opacity="1" stroke-width=".5" d="M 149.97852 96.417969 A 24 24 0 0 1 126 120 A 24 24 0 0 1 102.02148 96.582031 A 24 24 0 0 0 102 97 A 24 24 0 0 0 126 121 A 24 24 0 0 0 150 97 A 24 24 0 0 0 149.97852 96.417969 z" clip-rule="nonzero" color-interpolation="sRGB" color-interpolation-filters="linearRGB" color-rendering="auto" display="inline" enable-background="accumulate" image-rendering="auto" opacity=".2" overflow="visible" shape-rendering="auto" text-rendering="auto" transform="translate(0,860.36216)" visibility="visible"/><path clip-rule="nonzero" style="isolation:auto;mix-blend-mode:normal;solid-color:#000;solid-opacity:1" id="rect4173-0" fill="#ff0080" fill-opacity="1" fill-rule="evenodd" stroke="none" stroke-dasharray="none" stroke-dashoffset="0" stroke-linecap="butt" stroke-linejoin="round" stroke-miterlimit="4" stroke-opacity="1" stroke-width=".5" d="M 96 20 L 96 21 L 160 21 C 166.648 21 172 26.352 172 33 L 172 32 C 172 25.352 166.648 20 160 20 L 96 20 z" clip-path="url(#clipPath4175-0)" color="#000" color-interpolation="sRGB" color-interpolation-filters="linearRGB" color-rendering="auto" display="inline" enable-background="accumulate" image-rendering="auto" opacity="1" overflow="visible" shape-rendering="auto" text-rendering="auto" transform="translate(0,860.36216)" visibility="visible"/><path id="rect5063-8-0" fill="#fff" fill-opacity="1" fill-rule="evenodd" stroke="none" stroke-dasharray="none" stroke-dashoffset="0" stroke-linecap="butt" stroke-linejoin="round" stroke-miterlimit="4" stroke-opacity="1" stroke-width=".5" d="m 32,880.36216 c -6.648,0 -12,5.352 -12,12 l 0,1 c 0,-6.648 5.352,-12 12,-12 l 64,0 0,-1 z" clip-rule="nonzero" color="#000" color-interpolation="sRGB" color-interpolation-filters="linearRGB" color-rendering="auto" display="inline" enable-background="accumulate" image-rendering="auto" opacity=".2" overflow="visible" shape-rendering="auto" text-rendering="auto" visibility="visible" style="isolation:auto;mix-blend-mode:normal;solid-color:#000;solid-opacity:1"/><path id="rect5063-8-0-7" fill="#fff" fill-opacity="1" fill-rule="evenodd" stroke="none" stroke-dasharray="none" stroke-dashoffset="0" stroke-linecap="butt" stroke-linejoin="round" stroke-miterlimit="4" stroke-opacity="1" stroke-width=".5" d="m 160,880.36216 c 6.648,0 12,5.352 12,12 l 0,1 c 0,-6.648 -5.352,-12 -12,-12 l -64,0 0,-1 z" clip-rule="nonzero" color="#000" color-interpolation="sRGB" color-interpolation-filters="linearRGB" color-rendering="auto" display="inline" enable-background="accumulate" image-rendering="auto" opacity=".3" overflow="visible" shape-rendering="auto" text-rendering="auto" visibility="visible" style="isolation:auto;mix-blend-mode:normal;solid-color:#000;solid-opacity:1"/></g><g id="layer2"><rect id="rect5063-3" width="152" height="152" x="20" y="880.362" fill="url(#radialGradient5764)" fill-opacity="1" fill-rule="evenodd" stroke="none" stroke-dasharray="none" stroke-dashoffset="0" stroke-linecap="butt" stroke-linejoin="round" stroke-miterlimit="4" stroke-opacity="1" stroke-width=".5" clip-rule="nonzero" color="#000" color-interpolation="sRGB" color-interpolation-filters="linearRGB" color-rendering="auto" display="inline" enable-background="accumulate" image-rendering="auto" opacity="1" overflow="visible" rx="12" ry="12" shape-rendering="auto" text-rendering="auto" transform="translate(0,-860.36216)" visibility="visible" style="isolation:auto;mix-blend-mode:normal;solid-color:#000;solid-opacity:1"/></g></svg>