<svg xmlns="http://www.w3.org/2000/svg" xmlns:svg="http://www.w3.org/2000/svg" xmlns:xlink="http://www.w3.org/1999/xlink" id="svg2" width="48" height="48" version="1.1"><defs id="defs4"><linearGradient id="linearGradient3830"><stop id="stop3832" offset="0" stop-color="#3b3b3b" stop-opacity="1"/><stop id="stop3834" offset="1" stop-color="#1a1a1a" stop-opacity="1"/></linearGradient><linearGradient id="linearGradient3818"><stop id="stop3820" offset="0" stop-color="#dadad8" stop-opacity="1"/><stop id="stop3822" offset="1" stop-color="#efefef" stop-opacity="1"/></linearGradient><linearGradient id="linearGradient3956"><stop id="stop3958" offset="0" stop-color="#f8f4e1" stop-opacity="1"/><stop id="stop3960" offset="1" stop-color="#eae5c8" stop-opacity="1"/></linearGradient><linearGradient id="linearGradient3915"><stop id="stop3917" offset="0" stop-color="#f8f4e1" stop-opacity="1"/><stop id="stop3919" offset="1" stop-color="#ad9e57" stop-opacity="1"/></linearGradient><linearGradient id="linearGradient3861"><stop id="stop3863" offset="0" stop-color="#000" stop-opacity="1"/><stop id="stop3865" offset="1" stop-color="#000" stop-opacity="0"/></linearGradient><linearGradient id="linearGradient3844"><stop id="stop3846" offset="0" stop-color="#000" stop-opacity=".392"/><stop id="stop3848" offset="1" stop-color="#000" stop-opacity="0"/></linearGradient><linearGradient id="linearGradient3810"><stop id="stop3812" offset="0" stop-color="#f2c66f" stop-opacity="1"/><stop id="stop3814" offset="1" stop-color="#fbd68f" stop-opacity="1"/></linearGradient><linearGradient id="linearGradient3816" x1="24" x2="24" y1="1046.362" y2="1014.362" gradientUnits="userSpaceOnUse" xlink:href="#linearGradient3810"/><linearGradient id="linearGradient3856" x1="24" x2="24" y1="1046.362" y2="1014.362" gradientTransform="translate(0,-3)" gradientUnits="userSpaceOnUse" xlink:href="#linearGradient3810"/><linearGradient id="linearGradient3858" x1="24" x2="24" y1="1046.362" y2="1014.362" gradientTransform="translate(0,-1004.3622)" gradientUnits="userSpaceOnUse" xlink:href="#linearGradient3810"/><linearGradient id="linearGradient3867" x1="1.995" x2="46.005" y1="28.563" y2="28.563" gradientUnits="userSpaceOnUse" xlink:href="#linearGradient3861"/><linearGradient id="linearGradient3921" x1="35" x2="38" y1="8" y2="5" gradientUnits="userSpaceOnUse" xlink:href="#linearGradient3915"/><linearGradient id="linearGradient3933" x1="35" x2="38" y1="8" y2="5" gradientTransform="matrix(1.0436562,0,0,1.2222222,26.301501,1003.2511)" gradientUnits="userSpaceOnUse" xlink:href="#linearGradient3915"/><linearGradient id="linearGradient3018-5" x1="20" x2="20" y1="26" y2="13" gradientTransform="translate(0,0.9999922)" gradientUnits="userSpaceOnUse" xlink:href="#linearGradient3680-6-6-6-3-7"/><linearGradient id="linearGradient3680-6-6-6-3-7"><stop id="stop3682-4-6-1-3-7" offset="0" stop-color="#d2eecc" stop-opacity="1"/><stop id="stop3684-8-5-8-0-2" offset="1" stop-color="#ecffe7" stop-opacity="1"/></linearGradient></defs><metadata id="metadata7"/><g id="layer2"><path id="path4930" fill="#000" fill-opacity="1" fill-rule="evenodd" stroke="none" stroke-linecap="butt" stroke-linejoin="miter" stroke-opacity="1" stroke-width="1" d="M 44.978516 22.982422 A 21 17.499992 0 0 1 38.435547 35.197266 C 38.512009 35.464715 38.588997 35.729129 38.671875 35.978516 A 21 17.499992 0 0 0 45 23.5 A 21 17.499992 0 0 0 44.978516 22.982422 z M 3.0292969 23 A 21 17.499992 0 0 0 3 23.5 A 21 17.499992 0 0 0 24 41 A 21 17.499992 0 0 0 28.154297 40.636719 C 32.775371 43.133136 37.461258 44.076876 43 45 C 42.732352 44.598528 42.470007 44.233574 42.205078 43.857422 C 37.590656 43.07178 33.53638 42.21394 29.609375 40.363281 A 21 17.499992 0 0 1 28.429688 40.583984 A 21 17.499992 0 0 0 29.568359 40.341797 C 29.096344 40.118466 28.624144 39.890542 28.154297 39.636719 A 21 17.499992 0 0 1 24 40 A 21 17.499992 0 0 1 3.0292969 23 z M 3.2324219 24.476562 A 21 17.499992 0 0 0 3.2519531 24.605469 A 21 17.499992 0 0 1 3.2324219 24.476562 z M 3.6210938 26.144531 A 21 17.499992 0 0 0 3.6738281 26.337891 A 21 17.499992 0 0 1 3.6210938 26.144531 z M 4.2011719 27.773438 A 21 17.499992 0 0 0 4.2988281 28.019531 A 21 17.499992 0 0 1 4.2011719 27.773438 z M 5.0058594 29.417969 A 21 17.499992 0 0 0 5.1152344 29.621094 A 21 17.499992 0 0 1 5.0058594 29.417969 z M 5.9667969 30.927734 A 21 17.499992 0 0 0 6.1308594 31.166016 A 21 17.499992 0 0 1 5.9667969 30.927734 z M 7.1035156 32.357422 A 21 17.499992 0 0 0 7.3261719 32.617188 A 21 17.499992 0 0 1 7.1035156 32.357422 z M 8.3867188 33.669922 A 21 17.499992 0 0 0 8.6953125 33.964844 A 21 17.499992 0 0 1 8.3867188 33.669922 z M 38.310547 34.789062 A 21 17.499992 0 0 1 37.1875 35.576172 A 21 17.499992 0 0 1 28.429688 39.083984 A 21 17.499992 0 0 0 38.310547 34.789062 z M 9.8847656 34.929688 A 21 17.499992 0 0 0 10.193359 35.169922 A 21 17.499992 0 0 1 9.8847656 34.929688 z M 11.431641 35.992188 A 21 17.499992 0 0 0 11.873047 36.273438 A 21 17.499992 0 0 1 11.431641 35.992188 z M 13.132812 36.949219 A 21 17.499992 0 0 0 13.646484 37.212891 A 21 17.499992 0 0 1 13.132812 36.949219 z M 14.958984 37.771484 A 21 17.499992 0 0 0 15.529297 38 A 21 17.499992 0 0 1 14.958984 37.771484 z M 16.806641 38.417969 A 21 17.499992 0 0 0 17.523438 38.636719 A 21 17.499992 0 0 1 16.806641 38.417969 z M 18.736328 38.917969 A 21 17.499992 0 0 0 19.566406 39.095703 A 21 17.499992 0 0 1 18.736328 38.917969 z M 20.722656 39.263672 A 21 17.499992 0 0 0 21.654297 39.380859 A 21 17.499992 0 0 1 20.722656 39.263672 z M 26.410156 39.363281 A 21 17.499992 0 0 1 25.933594 39.412109 A 21 17.499992 0 0 0 26.410156 39.363281 z M 22.728516 39.447266 A 21 17.499992 0 0 0 24 39.5 A 21 17.499992 0 0 1 22.728516 39.447266 z M 28.878906 39.498047 A 21 17.499992 0 0 1 28.429688 39.583984 A 21 17.499992 0 0 0 28.880859 39.5 C 28.880079 39.499606 28.879687 39.498441 28.878906 39.498047 z" opacity=".04"/><path id="path4925" fill="#000" fill-opacity="1" fill-rule="evenodd" stroke="none" stroke-linecap="butt" stroke-linejoin="miter" stroke-opacity="1" stroke-width="1" d="M 44.988281 22.207031 A 21 17.499992 0 0 1 38.310547 34.789062 C 38.348687 34.934281 38.395554 35.057379 38.435547 35.197266 A 21 17.499992 0 0 0 45 22.5 A 21 17.499992 0 0 0 44.988281 22.207031 z M 38.310547 34.789062 C 38.310547 34.789062 38.310547 34.787109 38.310547 34.787109 A 21 17.499992 0 0 1 28.429688 39.083984 A 21 17.499992 0 0 0 38.310547 34.789062 z M 3.0117188 22.292969 A 21 17.499992 0 0 0 3 22.5 A 21 17.499992 0 0 0 24 40 A 21 17.499992 0 0 0 28.154297 39.636719 C 32.775371 42.133136 37.461258 43.076876 43 44 C 42.865915 43.798872 42.735259 43.621327 42.601562 43.427734 C 37.528797 42.574002 33.15369 41.657902 28.880859 39.5 A 21 17.499992 0 0 1 28.429688 39.583984 A 21 17.499992 0 0 0 28.878906 39.498047 C 28.637675 39.376192 28.395064 39.266787 28.154297 39.136719 A 21 17.499992 0 0 1 24 39.5 A 21 17.499992 0 0 1 3.0117188 22.292969 z" opacity=".08"/><path id="path4908" fill="#000" fill-opacity="1" fill-rule="evenodd" stroke="none" stroke-linecap="butt" stroke-linejoin="miter" stroke-opacity="1" stroke-width="1" d="m 38.310547,34.787109 a 21,17.499992 0 0 1 -10.15625,4.34961 C 32.775371,41.633136 37.461258,42.576876 43,43.5 41.184708,40.777061 39.378101,38.853359 38.310547,34.787109 Z M 45,22 A 21,17.499992 0 0 1 24,39.5 21,17.499992 0 0 1 3,22 21,17.499992 0 0 1 24,4.5 21,17.499992 0 0 1 45,22 Z" opacity=".16"/></g><g id="layer1" transform="translate(0,-1004.3622)"><path id="path4219" fill="#dee7f0" fill-opacity="1" fill-rule="evenodd" stroke="none" stroke-linecap="butt" stroke-linejoin="miter" stroke-opacity="1" stroke-width="1" d="m 38.310547,34.287109 a 21,17.499992 0 0 1 -10.15625,4.34961 C 32.775371,41.133136 37.461258,42.076876 43,43 41.184708,40.277061 39.378101,38.353359 38.310547,34.287109 Z M 45,21.5 A 21,17.499992 0 0 1 24,39 21,17.499992 0 0 1 3,21.5 21,17.499992 0 0 1 24,4 21,17.499992 0 0 1 45,21.5 Z" opacity="1" transform="translate(0,1004.3622)"/><ellipse id="ellipse4902" cx="24" cy="1025.862" fill="#174f82" fill-opacity="1" stroke="none" stroke-dasharray="none" stroke-miterlimit="4" stroke-opacity="1" stroke-width="2" opacity="1" rx="19" ry="15.5"/><path id="path851" fill="#dee7f0" fill-opacity="1" fill-rule="evenodd" stroke="none" stroke-dasharray="none" stroke-dashoffset="0" stroke-linecap="butt" stroke-linejoin="round" stroke-miterlimit="4" stroke-opacity="1" stroke-width="2.5" d="m 34,1028.8622 c -3.87447,2.1127 -6.957911,3.4388 -10,3.5 -3.042089,0.062 -6.52031,-1.1675 -10,-3.5 l -1,2.5 c 3.758327,2.5194 7.433799,3.5062 11,3.4345 3.566202,-0.072 6.95184,-1.2272 11,-3.4345 z" baseline-shift="baseline" clip-rule="nonzero" color="#000" color-interpolation="sRGB" color-interpolation-filters="linearRGB" color-rendering="auto" direction="ltr" display="inline" enable-background="accumulate" font-family="sans-serif" font-size="medium" font-stretch="normal" font-style="normal" font-variant="normal" font-weight="normal" image-rendering="auto" letter-spacing="normal" opacity="1" overflow="visible" shape-rendering="auto" text-anchor="start" text-decoration="none" text-rendering="auto" visibility="visible" word-spacing="normal" writing-mode="lr-tb" style="line-height:normal;text-indent:0;text-align:start;text-decoration-line:none;text-decoration-style:solid;text-decoration-color:#000;text-transform:none;block-progression:tb;white-space:normal;isolation:auto;mix-blend-mode:normal;solid-color:#000;solid-opacity:1"/><path id="path4904" fill="#174f82" fill-opacity="1" fill-rule="evenodd" stroke="none" stroke-linecap="butt" stroke-linejoin="miter" stroke-opacity="1" stroke-width="1" d="m 36,1037.3622 c -2.073627,1.445 -6.221936,2.5802 -9,3 3.376072,1.6369 9.453496,4.8948 13.5,5.5 -1.326219,-1.7854 -3.720064,-5.8337 -4.5,-8.5 z" opacity="1"/></g></svg>