<svg xmlns="http://www.w3.org/2000/svg" xmlns:svg="http://www.w3.org/2000/svg" xmlns:xlink="http://www.w3.org/1999/xlink" id="svg2" width="192" height="192" version="1.1" viewBox="0 0 192 192"><defs id="defs4"><linearGradient id="linearGradient4194"><stop id="stop4196" offset="0" stop-color="#fff" stop-opacity="1"/><stop id="stop4198" offset="1" stop-color="#fff" stop-opacity="0"/></linearGradient><clipPath id="clipPath10430" clipPathUnits="userSpaceOnUse"><path id="path10432" d="m 1241.028,39.3409 224.537,0 0,178.031 -224.537,0 0,-178.031 z"/></clipPath><clipPath id="clipPath10438" clipPathUnits="userSpaceOnUse"><path id="path10440" d="m 1260.156,213.3477 0,-170.2268 191.3337,0 0,170.2268"/></clipPath><radialGradient id="radialGradient4200" cx="20" cy="880.362" r="76" fx="20" fy="880.362" gradientTransform="matrix(2.6607556e-7,1.9999998,-2.0000002,2.6629458e-7,1780.725,840.36195)" gradientUnits="userSpaceOnUse" xlink:href="#linearGradient4194"/><filter id="filter5248" color-interpolation-filters="sRGB"><feFlood id="feFlood5250" flood-color="#000" flood-opacity=".2" result="flood"/><feComposite id="feComposite5252" in="flood" in2="SourceGraphic" operator="in" result="composite1"/><feGaussianBlur id="feGaussianBlur5254" in="composite1" result="blur" stdDeviation="2"/><feOffset id="feOffset5256" dx="0" dy="4" result="offset"/><feComposite id="feComposite5258" in="SourceGraphic" in2="offset" operator="over" result="fbSourceGraphic"/><feColorMatrix id="feColorMatrix4187" in="fbSourceGraphic" result="fbSourceGraphicAlpha" values="0 0 0 -1 0 0 0 0 -1 0 0 0 0 -1 0 0 0 0 1 0"/><feFlood id="feFlood4189" flood-color="#000" flood-opacity=".2" in="fbSourceGraphic" result="flood"/><feComposite id="feComposite4191" in="flood" in2="fbSourceGraphic" operator="in" result="composite1"/><feGaussianBlur id="feGaussianBlur4193" in="composite1" result="blur" stdDeviation="2"/><feOffset id="feOffset4195" dx="0" dy="0" result="offset"/><feComposite id="feComposite4197" in="fbSourceGraphic" in2="offset" operator="over" result="composite2"/></filter><clipPath id="clipPath9839" clipPathUnits="userSpaceOnUse"><rect id="rect9841" width="156.25" height="159.25" x="-60.25" y="252.25" fill="#f5f5f5" fill-opacity="1" fill-rule="nonzero" stroke="none" stroke-dasharray="none" stroke-dashoffset="0" stroke-linecap="butt" stroke-linejoin="miter" stroke-miterlimit="4" stroke-opacity="1" stroke-width="2.949" opacity=".2" ry="10.757"/></clipPath></defs><metadata id="metadata7"/><g id="layer2"><path id="path5588" fill="#f5f5f5" fill-opacity="1" fill-rule="evenodd" stroke="none" stroke-linecap="butt" stroke-linejoin="miter" stroke-opacity="1" stroke-width="1" d="m 32,880.36216 128,0 c 6,0 12,6 12,12 l 0,128.00004 c 0,6 -6,12 -12,12 l -128,0 c -6,0 -12,-6 -12,-12 l 0,-128.00004 c 0,-6 6,-12 12,-12 z" filter="url(#filter5248)" transform="translate(0,-860.36216)"/><g id="layer1-3" fill="#f44336" transform="matrix(0.37333333,0,0,0.37333333,-103.46621,-79.303771)"><g id="g3235" fill="#f44336" transform="matrix(2.5445375,0,0,2.5445375,1157.1714,-1457.8678)"><path id="path3015" fill="#f44336" fill-opacity="1" fill-rule="nonzero" stroke="none" d="m -203.09972,771.41415 c 1.6425,0.15875 3.2825,0.33 4.92,0.5075 l 3.615,-8.92625 3.43625,9.74875 c 1.76375,0.22125 3.525,0.4525 5.2825,0.695 l -6.02375,-17.09625 6.02625,-14.88 -5.10375,0 -0.0525,0.0725 -3.255,8.03875 -2.8575,-8.11125 -5.03875,0 5.2025,14.7625 -6.15125,15.18875 z"/><path id="path3019" fill="#f44336" fill-opacity="1" fill-rule="nonzero" stroke="none" d="m -206.91147,771.06478 0,-29.60125 -5.0375,0 0,29.18625 c 1.68125,0.12875 3.36125,0.26875 5.0375,0.415"/><path id="path3023" fill="#f44336" fill-opacity="1" fill-rule="nonzero" stroke="none" d="m -244.7486,769.4089 c 1.36,0 2.7175,0.01 4.07375,0.0213 l 0,-10.875 6.05125,0 0,-4.63125 -6.05125,0 0,-7.825 6.96875,0 0,-4.63625 -12.02625,0 0,27.95 c 0.3275,0 0.655,-0.004 0.98375,-0.004"/><path id="path3035" fill="#f44336" fill-opacity="1" fill-rule="nonzero" stroke="none" d="m -260.3881,769.69191 c 1.6775,-0.06 3.3575,-0.11 5.04,-0.15125 l 0,-23.44125 4.7075,0 0,-4.63625 -14.45625,0 0,4.63625 4.70875,0 0,23.5925 z"/><path id="path3039" fill="#f44336" fill-opacity="1" fill-rule="nonzero" stroke="none" d="m -298.91059,772.81378 0,-17.63625 5.96375,16.92375 c 1.83375,-0.20625 3.67125,-0.4 5.5125,-0.5825 l 0,-30.055 -4.8325,0 0,18.2675 -6.43625,-18.2675 -0.2075,0 -4.8325,0 0,31.98375 0.03,0 c 1.5975,-0.22125 3.19875,-0.43125 4.8025,-0.63375"/><path id="path3051" fill="#f44336" fill-opacity="1" fill-rule="nonzero" stroke="none" d="m -269.95297,746.09903 0,-4.63625 -12.0275,0 0,24.9125 0,4.6375 0,0.004 c 3.99125,-0.345 7.99625,-0.63375 12.0175,-0.86875 l 0,-0.004 0,-1.33625 0,-3.3 c -2.325,0.135 -4.645,0.29125 -6.96,0.46375 l 0,-7.415 6.05125,0 0,-4.63375 -6.05125,0 0,-7.82375 6.97,0 z"/><path id="path3055" fill="#f44336" fill-opacity="1" fill-rule="nonzero" stroke="none" d="m -223.72272,765.2864 0,-23.82375 -5.05875,0 0,23.605 0,4.63625 0,0.005 c 4.02375,0.1475 8.0325,0.35375 12.0275,0.6125 l 0,-0.006 0,-1.4975 0,-3.13875 c -2.31875,-0.15 -4.64125,-0.28 -6.96875,-0.3925"/></g></g></g><g id="layer3"><path id="path4180" fill="#fff" fill-opacity="1" fill-rule="evenodd" stroke="none" stroke-linecap="butt" stroke-linejoin="miter" stroke-opacity="1" stroke-width="1" d="m 32,20 c -6,0 -12,6 -12,12 l 0,1 c 0,-6 6,-12 12,-12 l 128,0 c 6,0 12,6 12,12 l 0,-1 c 0,-6 -6,-12 -12,-12 L 32,20 Z" opacity=".1"/><path id="path4186" fill="#000" fill-opacity="1" fill-rule="evenodd" stroke="none" stroke-linecap="butt" stroke-linejoin="miter" stroke-opacity="1" stroke-width="1" d="m 20,159 0,1 c 0,6 6,12 12,12 l 128,0 c 6,0 12,-6 12,-12 l 0,-1 c 0,6 -6,12 -12,12 l -128,0 c -6,0 -12,-6 -12,-12 z" opacity=".2"/><path id="path4192" fill="url(#radialGradient4200)" fill-opacity="1" fill-rule="evenodd" stroke="none" stroke-dasharray="none" stroke-linecap="butt" stroke-linejoin="miter" stroke-miterlimit="4" stroke-opacity="1" stroke-width=".1" d="m 32,880.36216 128,0 c 6,0 12,6 12,12 l 0,128.00004 c 0,6 -6,12 -12,12 l -128,0 c -6,0 -12,-6 -12,-12 l 0,-128.00004 c 0,-6 6,-12 12,-12 z" opacity=".1" transform="translate(0,-860.36216)"/></g></svg>