<svg xmlns="http://www.w3.org/2000/svg" xmlns:svg="http://www.w3.org/2000/svg" xmlns:xlink="http://www.w3.org/1999/xlink" id="svg2" width="48" height="48" version="1.1"><defs id="defs4"><linearGradient id="linearGradient4212"><stop id="stop4214" offset="0" stop-color="#000" stop-opacity="1"/><stop id="stop4216" offset="1" stop-color="#000" stop-opacity="0"/></linearGradient><linearGradient id="linearGradient4268"><stop id="stop4270" offset="0" stop-color="#cfd8dc" stop-opacity="1"/><stop id="stop4272" offset="1" stop-color="#eceff1" stop-opacity="1"/></linearGradient><linearGradient id="linearGradient4456"><stop id="stop4458" offset="0" stop-color="#fff" stop-opacity="1"/><stop id="stop4460" offset="1" stop-color="#fff" stop-opacity="0"/></linearGradient><linearGradient id="linearGradient4448"><stop id="stop4450" offset="0" stop-color="#000" stop-opacity="1"/><stop id="stop4452" offset="1" stop-color="#000" stop-opacity="0"/></linearGradient><linearGradient id="linearGradient3830"><stop id="stop3832" offset="0" stop-color="#3b3b3b" stop-opacity="1"/><stop id="stop3834" offset="1" stop-color="#1a1a1a" stop-opacity="1"/></linearGradient><linearGradient id="linearGradient3818"><stop id="stop3820" offset="0" stop-color="#dadad8" stop-opacity="1"/><stop id="stop3822" offset="1" stop-color="#efefef" stop-opacity="1"/></linearGradient><linearGradient id="linearGradient3956"><stop id="stop3958" offset="0" stop-color="#f8f4e1" stop-opacity="1"/><stop id="stop3960" offset="1" stop-color="#eae5c8" stop-opacity="1"/></linearGradient><linearGradient id="linearGradient3915"><stop id="stop3917" offset="0" stop-color="#f8f4e1" stop-opacity="1"/><stop id="stop3919" offset="1" stop-color="#ad9e57" stop-opacity="1"/></linearGradient><linearGradient id="linearGradient3861"><stop id="stop3863" offset="0" stop-color="#000" stop-opacity="1"/><stop id="stop3865" offset="1" stop-color="#000" stop-opacity="0"/></linearGradient><linearGradient id="linearGradient3844"><stop id="stop3846" offset="0" stop-color="#000" stop-opacity=".392"/><stop id="stop3848" offset="1" stop-color="#000" stop-opacity="0"/></linearGradient><linearGradient id="linearGradient3810"><stop id="stop3812" offset="0" stop-color="#f2c66f" stop-opacity="1"/><stop id="stop3814" offset="1" stop-color="#fbd68f" stop-opacity="1"/></linearGradient><linearGradient id="linearGradient3816" x1="24" x2="24" y1="1046.362" y2="1014.362" gradientUnits="userSpaceOnUse" xlink:href="#linearGradient3810"/><linearGradient id="linearGradient3856" x1="24" x2="24" y1="1046.362" y2="1014.362" gradientTransform="translate(0,-3)" gradientUnits="userSpaceOnUse" xlink:href="#linearGradient3810"/><linearGradient id="linearGradient3858" x1="24" x2="24" y1="1046.362" y2="1014.362" gradientTransform="translate(0,-1004.3622)" gradientUnits="userSpaceOnUse" xlink:href="#linearGradient3810"/><linearGradient id="linearGradient3867" x1="1.995" x2="46.005" y1="28.563" y2="28.563" gradientUnits="userSpaceOnUse" xlink:href="#linearGradient3861"/><linearGradient id="linearGradient3921" x1="35" x2="38" y1="8" y2="5" gradientUnits="userSpaceOnUse" xlink:href="#linearGradient3915"/><linearGradient id="linearGradient3933" x1="35" x2="38" y1="8" y2="5" gradientTransform="matrix(1.0436562,0,0,1.2222222,26.301501,1003.2511)" gradientUnits="userSpaceOnUse" xlink:href="#linearGradient3915"/><linearGradient id="linearGradient3018-5" x1="20" x2="20" y1="26" y2="13" gradientTransform="translate(0,0.9999922)" gradientUnits="userSpaceOnUse" xlink:href="#linearGradient3680-6-6-6-3-7"/><linearGradient id="linearGradient3680-6-6-6-3-7"><stop id="stop3682-4-6-1-3-7" offset="0" stop-color="#d2eecc" stop-opacity="1"/><stop id="stop3684-8-5-8-0-2" offset="1" stop-color="#ecffe7" stop-opacity="1"/></linearGradient><linearGradient id="linearGradient4454" x1="24" x2="24" y1="24" y2="45" gradientUnits="userSpaceOnUse" xlink:href="#linearGradient4448"/><linearGradient id="linearGradient4462" x1="25" x2="25" y1="24" y2="3" gradientUnits="userSpaceOnUse" xlink:href="#linearGradient4456"/><linearGradient id="linearGradient3932"><stop id="stop3934" offset="0" stop-color="#f7f7f7" stop-opacity="1"/><stop id="stop3936" offset="1" stop-color="#ffdbdb" stop-opacity="1"/></linearGradient><linearGradient id="linearGradient4274" x1="24" x2="24" y1="1049.362" y2="1007.362" gradientUnits="userSpaceOnUse" xlink:href="#linearGradient4268"/><linearGradient id="linearGradient4218" x1="17" x2="45" y1="27" y2="45" gradientUnits="userSpaceOnUse" xlink:href="#linearGradient4212"/></defs><metadata id="metadata7"/><g id="layer2"><path id="rect4407" fill="#37474f" fill-opacity="1" stroke="none" d="M 3 44 L 3 45 C 3 46.108 3.892 47 5 47 L 43 47 C 44.108 47 45 46.108 45 45 L 45 44 C 45 45.108 44.108 46 43 46 L 5 46 C 3.892 46 3 45.108 3 44 z" opacity=".04"/><path id="rect4400" fill="#000" fill-opacity="1" stroke="none" d="M 3 43.5 L 3 44 C 3 45.108 3.892 46 5 46 L 43 46 C 44.108 46 45 45.108 45 44 L 45 43.5 C 45 44.608 44.108 45.5 43 45.5 L 5 45.5 C 3.892 45.5 3 44.608 3 43.5 z" opacity=".08"/><path id="rect4362" fill="#000" fill-opacity="1" stroke="none" d="m 3,43 0,0.5 c 0,1.108 0.892,2 2,2 l 38,0 c 1.108,0 2,-0.892 2,-2 L 45,43 c 0,1.108 -0.892,2 -2,2 L 5,45 C 3.892,45 3,44.108 3,43 Z" opacity=".16"/></g><g id="layer1" transform="translate(0,-1004.3622)"><rect id="rect4343" width="42" height="42" x="3" y="1007.362" fill="url(#linearGradient4274)" fill-opacity="1" stroke="none" opacity="1" rx="2" ry="2"/><path id="path4205" fill="url(#linearGradient4218)" fill-opacity="1" fill-rule="evenodd" stroke="none" stroke-linecap="butt" stroke-linejoin="miter" stroke-opacity="1" stroke-width="1" d="M 24,11 13,35.474 33,45 43,45 c 1.108,0 2,-0.892 2,-2 l 0,-19 z" opacity=".15" transform="translate(0,1004.3622)"/><path id="path55" fill="#0d47a1" fill-opacity="1" stroke="none" stroke-width=".637" d="m 24.012081,1015.3622 -10.516585,6.641 -0.495496,0.286 0,0.4769 0,16.4027 0,0.6676 0.693694,0.2861 c 2.332272,0.8036 4.825098,1.2397 7.432432,1.2397 5.060779,0 9.731964,-1.6548 13.477478,-4.3868 L 35,1036.6893 l 0,-0.4768 0,-13.8503 c -24.560739,-5.1978 -21.970555,-9e-4 -19.973712,15.9971 L 14.981978,1023.2429 35,1022.3622 Z" baseline-shift="baseline" color="#000" direction="ltr" display="inline" enable-background="accumulate" font-family="Sans" font-size="medium" font-stretch="normal" font-style="normal" font-variant="normal" font-weight="normal" letter-spacing="normal" overflow="visible" text-anchor="start" text-decoration="none" visibility="visible" word-spacing="normal" writing-mode="lr-tb" style="line-height:normal;-inkscape-font-specification:Sans;text-indent:0;text-align:start;text-decoration-line:none;text-transform:none;block-progression:tb;marker:none"/><path id="path57" fill="#ffa726" fill-opacity="1" fill-rule="nonzero" stroke="none" d="m 24,1018.3622 -9,4.9373 0,15.0627 c 2.23,0.719 3.5,1 6,1 4.84,0 8.418,-1.5159 12,-4 l 0,-12.0667 m -14,1.0667 10,0 c 0,0 -3,2 -5,2 -2,0 -5,-2 -5,-2" display="inline"/></g><g id="layer3" display="none" opacity=".05"><path id="rect4343-5" fill="url(#linearGradient4462)" fill-opacity="1" stroke="none" d="m 5,3 38,0 c 1.108,0 2,0.892 2,2 L 45,24 3,24 3,5 C 3,3.892 3.892,3 5,3 Z" opacity="1"/><path id="path4438" fill="url(#linearGradient4454)" fill-opacity="1" stroke="none" d="m 5,45 38,0 c 1.108,0 2,-0.892 2,-2 L 45,24 3,24 3,43 c 0,1.108 0.892,2 2,2 z" opacity="1"/></g></svg>