<svg xmlns="http://www.w3.org/2000/svg" xmlns:svg="http://www.w3.org/2000/svg" xmlns:xlink="http://www.w3.org/1999/xlink" id="svg2" width="48" height="48" version="1.1"><defs id="defs4"><linearGradient id="linearGradient4239"><stop id="stop4241" offset="0" stop-color="#000" stop-opacity="1"/><stop id="stop4243" offset="1" stop-color="#000" stop-opacity="0"/></linearGradient><linearGradient id="linearGradient4185"><stop id="stop4187" offset="0" stop-color="#e0e0e0" stop-opacity="1"/><stop id="stop4189" offset="1" stop-color="#fafafa" stop-opacity="1"/></linearGradient><linearGradient id="linearGradient4456"><stop id="stop4458" offset="0" stop-color="#fff" stop-opacity="1"/><stop id="stop4460" offset="1" stop-color="#fff" stop-opacity="0"/></linearGradient><linearGradient id="linearGradient4448"><stop id="stop4450" offset="0" stop-color="#000" stop-opacity="1"/><stop id="stop4452" offset="1" stop-color="#000" stop-opacity="0"/></linearGradient><linearGradient id="linearGradient3830"><stop id="stop3832" offset="0" stop-color="#3b3b3b" stop-opacity="1"/><stop id="stop3834" offset="1" stop-color="#1a1a1a" stop-opacity="1"/></linearGradient><linearGradient id="linearGradient3818"><stop id="stop3820" offset="0" stop-color="#dadad8" stop-opacity="1"/><stop id="stop3822" offset="1" stop-color="#efefef" stop-opacity="1"/></linearGradient><linearGradient id="linearGradient3956"><stop id="stop3958" offset="0" stop-color="#f8f4e1" stop-opacity="1"/><stop id="stop3960" offset="1" stop-color="#eae5c8" stop-opacity="1"/></linearGradient><linearGradient id="linearGradient3915"><stop id="stop3917" offset="0" stop-color="#f8f4e1" stop-opacity="1"/><stop id="stop3919" offset="1" stop-color="#ad9e57" stop-opacity="1"/></linearGradient><linearGradient id="linearGradient3861"><stop id="stop3863" offset="0" stop-color="#000" stop-opacity="1"/><stop id="stop3865" offset="1" stop-color="#000" stop-opacity="0"/></linearGradient><linearGradient id="linearGradient3844"><stop id="stop3846" offset="0" stop-color="#000" stop-opacity=".392"/><stop id="stop3848" offset="1" stop-color="#000" stop-opacity="0"/></linearGradient><linearGradient id="linearGradient3810"><stop id="stop3812" offset="0" stop-color="#f2c66f" stop-opacity="1"/><stop id="stop3814" offset="1" stop-color="#fbd68f" stop-opacity="1"/></linearGradient><linearGradient id="linearGradient3816" x1="24" x2="24" y1="1046.362" y2="1014.362" gradientUnits="userSpaceOnUse" xlink:href="#linearGradient3810"/><linearGradient id="linearGradient3856" x1="24" x2="24" y1="1046.362" y2="1014.362" gradientTransform="translate(0,-3)" gradientUnits="userSpaceOnUse" xlink:href="#linearGradient3810"/><linearGradient id="linearGradient3858" x1="24" x2="24" y1="1046.362" y2="1014.362" gradientTransform="translate(0,-1004.3622)" gradientUnits="userSpaceOnUse" xlink:href="#linearGradient3810"/><linearGradient id="linearGradient3867" x1="1.995" x2="46.005" y1="28.563" y2="28.563" gradientUnits="userSpaceOnUse" xlink:href="#linearGradient3861"/><linearGradient id="linearGradient3921" x1="35" x2="38" y1="8" y2="5" gradientUnits="userSpaceOnUse" xlink:href="#linearGradient3915"/><linearGradient id="linearGradient3933" x1="35" x2="38" y1="8" y2="5" gradientTransform="matrix(1.0436562,0,0,1.2222222,26.301501,1003.2511)" gradientUnits="userSpaceOnUse" xlink:href="#linearGradient3915"/><linearGradient id="linearGradient3018-5" x1="20" x2="20" y1="26" y2="13" gradientTransform="translate(0,0.9999922)" gradientUnits="userSpaceOnUse" xlink:href="#linearGradient3680-6-6-6-3-7"/><linearGradient id="linearGradient3680-6-6-6-3-7"><stop id="stop3682-4-6-1-3-7" offset="0" stop-color="#d2eecc" stop-opacity="1"/><stop id="stop3684-8-5-8-0-2" offset="1" stop-color="#ecffe7" stop-opacity="1"/></linearGradient><linearGradient id="linearGradient4454" x1="24" x2="24" y1="24" y2="45" gradientUnits="userSpaceOnUse" xlink:href="#linearGradient4448"/><linearGradient id="linearGradient4462" x1="25" x2="25" y1="24" y2="3" gradientUnits="userSpaceOnUse" xlink:href="#linearGradient4456"/><linearGradient id="linearGradient4191" x1="24" x2="24" y1="1049.362" y2="1007.362" gradientTransform="translate(-2,0)" gradientUnits="userSpaceOnUse" xlink:href="#linearGradient4185"/><linearGradient id="linearGradient4245" x1="20" x2="43" y1="24" y2="45" gradientUnits="userSpaceOnUse" xlink:href="#linearGradient4239"/></defs><metadata id="metadata7"/><g id="layer2"><path id="rect4407" fill="#37474f" fill-opacity="1" stroke="none" d="m 3,44 0,1 c 0,1.108 0.892,2 2,2 l 38,0 c 1.108,0 2,-0.892 2,-2 l 0,-1 c 0,1.108 -0.892,2 -2,2 L 5,46 C 3.892,46 3,45.108 3,44 Z" opacity=".04"/><path id="rect4400" fill="#000" fill-opacity="1" stroke="none" d="M 3,43.5 3,44 c 0,1.108 0.892,2 2,2 l 38,0 c 1.108,0 2,-0.892 2,-2 l 0,-0.5 c 0,1.108 -0.892,2 -2,2 l -38,0 c -1.108,0 -2,-0.892 -2,-2 z" opacity=".08"/><path id="rect4362" fill="#000" fill-opacity="1" stroke="none" d="m 3,43 0,0.5 c 0,1.108 0.892,2 2,2 l 38,0 c 1.108,0 2,-0.892 2,-2 L 45,43 c 0,1.108 -0.892,2 -2,2 L 5,45 C 3.892,45 3,44.108 3,43 Z" opacity=".16"/></g><g id="layer1" transform="translate(0,-1004.3622)"><rect id="rect4343" width="42" height="42" x="3" y="1007.362" fill="url(#linearGradient4191)" fill-opacity="1" stroke="none" opacity="1" rx="2" ry="2"/><path id="path4234" fill="url(#linearGradient4245)" fill-opacity="1" fill-rule="evenodd" stroke="none" stroke-linecap="butt" stroke-linejoin="miter" stroke-opacity="1" stroke-width="1" d="M 34.125,13.35 14,34.75 26,45 43,45 c 1.108,0 2.08185,-0.895027 2,-2 l 0,-18 z" opacity=".15" transform="translate(0,1004.3622)"/><circle id="path4212" cx="24" cy="1028.362" r="12" fill="#424242" fill-opacity="1" stroke="none" stroke-dasharray="none" stroke-miterlimit="4" stroke-opacity="1" stroke-width=".5" opacity="1"/><circle id="circle4214" cx="24" cy="1028.362" r="10" fill="#ffc107" fill-opacity="1" stroke="none" stroke-dasharray="none" stroke-miterlimit="4" stroke-opacity="1" stroke-width=".5" opacity="1"/><circle id="circle4216" cx="24" cy="1028.362" r="5" fill="#424242" fill-opacity="1" stroke="none" stroke-dasharray="none" stroke-miterlimit="4" stroke-opacity="1" stroke-width=".5" opacity="1"/><circle id="circle4218" cx="24" cy="1026.362" r="3" fill="#fafafa" fill-opacity="1" stroke="none" stroke-dasharray="none" stroke-miterlimit="4" stroke-opacity="1" stroke-width=".5" opacity=".15"/><circle id="circle4222" cx="15" cy="1019.362" r="2" fill="#424242" fill-opacity="1" stroke="none" stroke-dasharray="none" stroke-miterlimit="4" stroke-opacity="1" stroke-width=".5" opacity="1"/><circle id="circle4224" cx="15" cy="1037.362" r="2" fill="#424242" fill-opacity="1" stroke="none" stroke-dasharray="none" stroke-miterlimit="4" stroke-opacity="1" stroke-width=".5" opacity="1"/><circle id="circle4226" cx="33" cy="1019.362" r="2" fill="#424242" fill-opacity="1" stroke="none" stroke-dasharray="none" stroke-miterlimit="4" stroke-opacity="1" stroke-width=".5" opacity="1"/><circle id="circle4228" cx="33" cy="1037.362" r="2" fill="#424242" fill-opacity="1" stroke="none" stroke-dasharray="none" stroke-miterlimit="4" stroke-opacity="1" stroke-width=".5" opacity="1"/></g><g id="layer3" display="none" opacity=".05"><path id="rect4343-5" fill="url(#linearGradient4462)" fill-opacity="1" stroke="none" d="m 5,3 38,0 c 1.108,0 2,0.892 2,2 L 45,24 3,24 3,5 C 3,3.892 3.892,3 5,3 Z" opacity="1"/><path id="path4438" fill="url(#linearGradient4454)" fill-opacity="1" stroke="none" d="m 5,45 38,0 c 1.108,0 2,-0.892 2,-2 L 45,24 3,24 3,43 c 0,1.108 0.892,2 2,2 z" opacity="1"/></g></svg>