<svg xmlns="http://www.w3.org/2000/svg" xmlns:svg="http://www.w3.org/2000/svg" xmlns:xlink="http://www.w3.org/1999/xlink" id="svg2" width="192" height="192" version="1.1" viewBox="0 0 192 192"><defs id="defs4"><linearGradient id="linearGradient4817"><stop id="stop4819" offset="0" stop-color="#212121" stop-opacity=".2"/><stop id="stop4821" offset="1" stop-color="#212121" stop-opacity="0"/></linearGradient><linearGradient id="linearGradient5083"><stop id="stop5085" offset="0" stop-color="#fff" stop-opacity=".1"/><stop id="stop5087" offset="1" stop-color="#fff" stop-opacity="0"/></linearGradient><radialGradient id="radialGradient5089" cx="20" cy="880.362" r="76" fx="20" fy="880.362" gradientTransform="matrix(2.0000002,2.0000002,-2.0000002,2.0000002,1740.7245,-920.36237)" gradientUnits="userSpaceOnUse" xlink:href="#linearGradient5083"/><linearGradient id="linearGradient4823" x1="44" x2="172" y1="44" y2="172" gradientUnits="userSpaceOnUse" xlink:href="#linearGradient4817"/><filter id="filter3463" color-interpolation-filters="sRGB"><feFlood id="feFlood3465" flood-color="#000" flood-opacity=".2" result="flood"/><feComposite id="feComposite3467" in="flood" in2="SourceGraphic" operator="in" result="composite1"/><feGaussianBlur id="feGaussianBlur3469" in="composite1" result="blur" stdDeviation="4"/><feOffset id="feOffset3471" dx="4" dy="4" result="offset"/><feComposite id="feComposite3473" in="SourceGraphic" in2="offset" operator="over" result="composite2"/></filter><filter id="filter3475" color-interpolation-filters="sRGB"><feFlood id="feFlood3477" flood-color="#000" flood-opacity=".12" result="flood"/><feComposite id="feComposite3479" in="flood" in2="SourceGraphic" operator="in" result="composite1"/><feGaussianBlur id="feGaussianBlur3481" in="composite1" result="blur" stdDeviation="2"/><feOffset id="feOffset3483" dx="0" dy="0" result="offset"/><feComposite id="feComposite3485" in="SourceGraphic" in2="offset" operator="over" result="fbSourceGraphic"/><feColorMatrix id="feColorMatrix3487" in="fbSourceGraphic" result="fbSourceGraphicAlpha" values="0 0 0 -1 0 0 0 0 -1 0 0 0 0 -1 0 0 0 0 1 0"/><feFlood id="feFlood3489" flood-color="#000" flood-opacity=".24" in="fbSourceGraphic" result="flood"/><feComposite id="feComposite3491" in="flood" in2="fbSourceGraphic" operator="in" result="composite1"/><feGaussianBlur id="feGaussianBlur3493" in="composite1" result="blur" stdDeviation="2"/><feOffset id="feOffset3495" dx="0" dy="4" result="offset"/><feComposite id="feComposite3497" in="fbSourceGraphic" in2="offset" operator="over" result="composite2"/></filter></defs><metadata id="metadata7"/><g id="layer1" transform="translate(0,-860.36216)"><rect clip-rule="nonzero" style="isolation:auto;mix-blend-mode:normal;solid-color:#000;solid-opacity:1" id="rect3371" width="152" height="152" x="20" y="880.362" fill="#757575" fill-opacity="1" fill-rule="evenodd" stroke="none" stroke-dasharray="none" stroke-dashoffset="0" stroke-linecap="butt" stroke-linejoin="round" stroke-miterlimit="4" stroke-opacity="1" stroke-width="1" color="#000" color-interpolation="sRGB" color-interpolation-filters="linearRGB" color-rendering="auto" display="inline" enable-background="accumulate" filter="url(#filter3475)" image-rendering="auto" opacity="1" overflow="visible" rx="12" ry="12" shape-rendering="auto" text-rendering="auto" visibility="visible"/><path id="path4342" fill="url(#linearGradient4823)" fill-opacity="1" d="M 82.650391 44 C 61.303785 44.00053 44 61.303661 44 82.650391 C 44 93.651252 48.602651 103.57087 55.978516 110.60938 L 117.36914 172 L 160 172 C 166.648 172 172 166.648 172 160 L 172 117.36914 L 110.58984 55.958984 C 103.55249 48.59472 93.641389 44 82.650391 44 z" opacity="1" transform="translate(0,860.36216)"/><path id="rect3371-0" fill="#fff" fill-opacity="1" fill-rule="evenodd" stroke="none" stroke-dasharray="none" stroke-dashoffset="0" stroke-linecap="butt" stroke-linejoin="round" stroke-miterlimit="4" stroke-opacity="1" stroke-width="1" d="m 32,880.36216 c -6.648,0 -12,5.352 -12,12 l 0,1 c 0,-6.648 5.352,-12 12,-12 l 128,0 c 6.648,0 12,5.352 12,12 l 0,-1 c 0,-6.648 -5.352,-12 -12,-12 l -128,0 z" clip-rule="nonzero" color="#000" color-interpolation="sRGB" color-interpolation-filters="linearRGB" color-rendering="auto" display="inline" enable-background="accumulate" image-rendering="auto" opacity=".2" overflow="visible" shape-rendering="auto" text-rendering="auto" visibility="visible" style="isolation:auto;mix-blend-mode:normal;solid-color:#000;solid-opacity:1"/><path id="rect3371-8" fill="#212121" fill-opacity="1" fill-rule="evenodd" stroke="none" stroke-dasharray="none" stroke-dashoffset="0" stroke-linecap="butt" stroke-linejoin="round" stroke-miterlimit="4" stroke-opacity="1" stroke-width="1" d="m 20,1019.3622 0,1 c 0,6.648 5.352,12 12,12 l 128,0 c 6.648,0 12,-5.352 12,-12 l 0,-1 c 0,6.648 -5.352,12 -12,12 l -128,0 c -6.648,0 -12,-5.352 -12,-12 z" clip-rule="nonzero" color="#000" color-interpolation="sRGB" color-interpolation-filters="linearRGB" color-rendering="auto" display="inline" enable-background="accumulate" image-rendering="auto" opacity=".2" overflow="visible" shape-rendering="auto" text-rendering="auto" visibility="visible" style="isolation:auto;mix-blend-mode:normal;solid-color:#000;solid-opacity:1"/><path id="path4234" fill="#fafafa" d="m 118.32819,969.77097 -4.69754,0 -1.66495,-1.60549 c 5.82733,-6.77873 9.33562,-15.57919 9.33562,-25.15266 0,-21.34706 -17.3036,-38.65066 -38.650661,-38.65066 -21.347055,0 -38.650657,17.3036 -38.650657,38.65066 0,21.34705 17.303602,38.65066 38.650657,38.65066 9.57347,0 18.373931,-3.5083 25.152661,-9.33563 l 1.60549,1.66496 0,4.69754 29.73127,29.67185 L 148,999.50224 118.32819,969.77097 Z m -35.677531,0 c -14.806174,0 -26.758147,-11.95198 -26.758147,-26.75815 0,-14.80618 11.951973,-26.75815 26.758147,-26.75815 14.80618,0 26.758151,11.95197 26.758151,26.75815 0,14.80617 -11.951971,26.75815 -26.758151,26.75815 z" filter="url(#filter3463)"/><path id="path4234-1" fill="#fff" d="M 82.650391,904.36254 C 61.303336,904.36254 44,921.66587 44,943.01293 c 0,0.1676 0.01154,0.33291 0.01367,0.5 0.269025,-21.11543 17.457428,-38.15039 38.636719,-38.15039 21.185199,0 38.379019,17.04438 38.638669,38.16797 0.002,-0.17296 0.0117,-0.3441 0.0117,-0.51758 0,-21.34706 -17.30333,-38.65039 -38.650389,-38.65039 z M 55.90625,943.51293 c -0.0031,0.16704 -0.01367,0.33222 -0.01367,0.5 0,14.80617 11.951639,26.75781 26.757813,26.75781 14.80618,0 26.757809,-11.95164 26.757809,-26.75781 0,-0.16777 -0.009,-0.33297 -0.0117,-0.5 -0.26663,14.57329 -12.107682,26.25781 -26.746089,26.25781 -14.638391,0 -26.477487,-11.68453 -26.744141,-26.25781 z m 56.51758,25.0957 c -0.1534,0.18528 -0.30221,0.37427 -0.45899,0.55664 l 1.66602,1.60547 4.69726,0 29.17188,29.23246 0.5,-0.50004 -29.67188,-29.73242 -4.69726,0 -1.20703,-1.16211 z"/><path id="path4234-6" fill="#212121" d="M 82.650391 55.892578 C 67.844217 55.892578 55.892578 67.844211 55.892578 82.650391 C 55.892578 82.818174 55.903194 82.983354 55.90625 83.150391 C 56.172904 68.577104 68.012 56.892578 82.650391 56.892578 C 97.288798 56.892578 109.12985 68.577089 109.39648 83.150391 C 109.39954 82.983364 109.4082 82.818163 109.4082 82.650391 C 109.4082 67.844211 97.456571 55.892578 82.650391 55.892578 z M 44.013672 83.150391 C 44.011541 83.317649 44 83.482626 44 83.650391 C 44 104.99744 61.303336 122.30078 82.650391 122.30078 C 92.223861 122.30078 101.024 118.79217 107.80273 112.96484 L 109.4082 114.63086 L 109.4082 113.63086 L 107.80273 111.96484 C 101.024 117.79217 92.223861 121.30078 82.650391 121.30078 C 61.470936 121.30078 44.282436 104.26604 44.013672 83.150391 z M 121.28906 83.167969 C 121.1646 92.54005 117.68658 101.14684 111.96484 107.80273 L 112.42383 108.24609 C 117.97211 101.54476 121.30078 92.966293 121.30078 83.650391 C 121.30078 83.488533 121.29105 83.329356 121.28906 83.167969 z M 109.4082 118.32812 L 109.4082 119.32812 L 139.14062 149 L 148 140.14062 L 147.5 139.64062 L 139.14062 148 L 109.4082 118.32812 z" opacity=".2" transform="translate(0,860.36216)"/></g><g id="layer2"><rect clip-rule="nonzero" style="isolation:auto;mix-blend-mode:normal;solid-color:#000;solid-opacity:1" id="rect3371-2" width="152" height="152" x="20" y="880.362" fill="url(#radialGradient5089)" fill-opacity="1" fill-rule="evenodd" stroke="none" stroke-dasharray="none" stroke-dashoffset="0" stroke-linecap="butt" stroke-linejoin="round" stroke-miterlimit="4" stroke-opacity="1" stroke-width="1" color="#000" color-interpolation="sRGB" color-interpolation-filters="linearRGB" color-rendering="auto" display="inline" enable-background="accumulate" image-rendering="auto" opacity="1" overflow="visible" rx="12" ry="12" shape-rendering="auto" text-rendering="auto" transform="translate(0,-860.36216)" visibility="visible"/></g></svg>