<svg xmlns="http://www.w3.org/2000/svg" xmlns:svg="http://www.w3.org/2000/svg" xmlns:xlink="http://www.w3.org/1999/xlink" id="svg2" width="192" height="192" version="1.1" viewBox="0 0 192 192"><defs id="defs4"><linearGradient id="linearGradient7098"><stop id="stop7100" offset="0" stop-color="#263238" stop-opacity=".2"/><stop id="stop7102" offset="1" stop-color="#263238" stop-opacity="0"/></linearGradient><linearGradient id="linearGradient7066"><stop id="stop7068" offset="0" stop-color="#263238" stop-opacity=".2"/><stop id="stop7070" offset="1" stop-color="#263238" stop-opacity="0"/></linearGradient><linearGradient id="linearGradient7056"><stop id="stop7058" offset="0" stop-color="#3e2723" stop-opacity=".2"/><stop id="stop7060" offset="1" stop-color="#3e2723" stop-opacity="0"/></linearGradient><linearGradient id="linearGradient7046"><stop id="stop7048" offset="0" stop-color="#bf360c" stop-opacity=".2"/><stop id="stop7050" offset="1" stop-color="#bf360c" stop-opacity="0"/></linearGradient><linearGradient id="linearGradient4805"><stop id="stop4807" offset="0" stop-color="#fff" stop-opacity=".1"/><stop id="stop4809" offset="1" stop-color="#fff" stop-opacity="0"/></linearGradient><radialGradient id="radialGradient4811" cx="20" cy="20" r="76" fx="20" fy="20" gradientTransform="matrix(1.9999902,1.9999902,-1.9999902,1.9999902,20.000976,-60.000584)" gradientUnits="userSpaceOnUse" xlink:href="#linearGradient4805"/><filter id="filter4883" color-interpolation-filters="sRGB"><feFlood id="feFlood4885" flood-color="#000" flood-opacity=".12" result="flood"/><feComposite id="feComposite4887" in="flood" in2="SourceGraphic" operator="in" result="composite1"/><feGaussianBlur id="feGaussianBlur4889" in="composite1" result="blur" stdDeviation="2"/><feOffset id="feOffset4891" dx="0" dy="0" result="offset"/><feComposite id="feComposite4893" in="SourceGraphic" in2="offset" operator="over" result="fbSourceGraphic"/><feColorMatrix id="feColorMatrix4895" in="fbSourceGraphic" result="fbSourceGraphicAlpha" values="0 0 0 -1 0 0 0 0 -1 0 0 0 0 -1 0 0 0 0 1 0"/><feFlood id="feFlood4897" flood-color="#000" flood-opacity=".24" in="fbSourceGraphic" result="flood"/><feComposite id="feComposite4899" in="flood" in2="fbSourceGraphic" operator="in" result="composite1"/><feGaussianBlur id="feGaussianBlur4901" in="composite1" result="blur" stdDeviation="2"/><feOffset id="feOffset4903" dx="0" dy="4" result="offset"/><feComposite id="feComposite4905" in="fbSourceGraphic" in2="offset" operator="over" result="composite2"/></filter><linearGradient id="linearGradient7052" x1="97.254" x2="147.793" y1="903.363" y2="953.903" gradientUnits="userSpaceOnUse" xlink:href="#linearGradient7046"/><linearGradient id="linearGradient7062" x1="114.885" x2="149.002" y1="957.613" y2="991.731" gradientUnits="userSpaceOnUse" xlink:href="#linearGradient7056"/><linearGradient id="linearGradient7072" x1="43.004" x2="77.118" y1="920.996" y2="955.11" gradientUnits="userSpaceOnUse" xlink:href="#linearGradient7066"/><linearGradient id="linearGradient7104" x1="60.637" x2="100.125" y1="114.885" y2="154.373" gradientUnits="userSpaceOnUse" xlink:href="#linearGradient7098"/><clipPath id="clipPath7129" clipPathUnits="userSpaceOnUse"><path id="path7131" fill="#f9ce1d" fill-opacity="1" fill-rule="nonzero" stroke="none" d="m 51.279297,897.98911 c -1.331953,0.0168 -2.684038,0.23278 -4.017578,0.66602 -7.111594,2.31063 -11.003861,9.95028 -8.69336,17.0625 l 4.435547,13.64844 -14.078125,4.57617 c -6.643811,2.40347 -10.377885,9.58156 -8.394531,16.4707 2.068555,7.18612 9.701214,11.56699 16.759766,9.27344 0.03508,-0.0114 10.910831,-3.54572 14.082031,-4.57617 l 22.207031,68.32619 c 2.403475,6.6443 9.581074,10.3783 16.470703,8.3945 7.186249,-2.0677 11.566989,-9.7013 9.273438,-16.7598 -0.05525,-0.1701 -11.919654,-36.68465 -22.201172,-68.32808 6.84382,-2.22376 7.411408,-2.40765 14.800781,-4.80859 l -7.017578,-26.1875 -16.150391,5.25 c -0.979051,-3.01323 -4.433593,-13.64844 -4.433593,-13.64844 -1.877688,-5.77797 -7.271175,-9.43207 -13.042969,-9.35938 z" clip-path="none"/></clipPath><clipPath id="clipPath7152" clipPathUnits="userSpaceOnUse"><path id="path7154" fill="#ffeb3b" fill-opacity="1" fill-rule="nonzero" stroke="none" d="m 105.5293,20 c -1.33196,0.01692 -2.68404,0.232538 -4.01758,0.666016 -7.111599,2.31062 -11.003863,9.949207 -8.693361,17.060546 L 97.253906,51.371094 83.589844,55.8125 90.607422,82 c 7.315321,-2.376878 8.1037,-2.633065 15.015628,-4.878906 l 22.20703,68.326176 c 2.40347,6.6438 9.58057,10.37733 16.4707,8.39453 7.18625,-2.0691 11.56661,-9.70114 9.27344,-16.75977 -0.0553,-0.1698 -11.91964,-36.68484 -22.20117,-68.328124 3.04584,-0.989679 13.64062,-4.43164 13.64062,-4.43164 7.11134,-2.31099 11.00399,-9.948327 8.69336,-17.060547 -1.87739,-5.77898 -7.2711,-9.432335 -13.04297,-9.359375 -1.33197,0.0168 -2.68404,0.232775 -4.01758,0.666015 l -13.64062,4.433594 C 122.02751,39.990908 118.57227,29.359375 118.57227,29.359375 116.69459,23.580387 111.30109,19.926669 105.5293,20 Z" clip-path="none"/></clipPath><clipPath id="clipPath7175" clipPathUnits="userSpaceOnUse"><path id="path7177" fill="#ffeb3b" fill-opacity="1" fill-rule="nonzero" stroke="none" d="m 105.5293,880.36216 c -1.33196,0.0169 -2.68404,0.23254 -4.01758,0.66602 -7.111599,2.31062 -11.003863,9.9492 -8.693361,17.06054 l 22.066411,67.89453 -68.332036,22.20899 c -6.644359,2.4035 -10.377382,9.58107 -8.394531,16.47066 2.068596,7.1861 9.700641,11.567 16.759766,9.2735 0.169824,-0.055 36.691671,-11.9234 68.335941,-22.2051 l 4.57617,14.0781 c 2.40347,6.6438 9.58057,10.3774 16.4707,8.3946 7.18625,-2.0691 11.56661,-9.7012 9.27344,-16.75981 -0.0114,-0.035 -3.52884,-10.86085 -4.57422,-14.07812 3.01008,-0.97803 13.64062,-4.43164 13.64062,-4.43164 7.1126,-2.311 11.00399,-9.94832 8.69336,-17.06055 -2.31062,-7.11159 -9.9492,-11.00386 -17.06054,-8.69336 l -13.64063,4.43359 c -10.27756,-31.63095 -22.06054,-67.89257 -22.06054,-67.89257 -1.87768,-5.77899 -7.27118,-9.43271 -13.04297,-9.35938 z" clip-path="none"/></clipPath><clipPath id="clipPath7217" clipPathUnits="userSpaceOnUse"><path id="path7219" fill="#ffeb3b" fill-opacity="1" fill-rule="nonzero" stroke="none" d="m 51.279297,897.98911 c -1.331953,0.0168 -2.684038,0.23278 -4.017578,0.66602 -7.111594,2.31063 -11.003861,9.95028 -8.69336,17.0625 l 22.06836,67.89648 -14.083985,4.57813 c -6.644359,2.4035 -10.377382,9.58108 -8.394531,16.47066 2.068596,7.1861 9.700641,11.567 16.759766,9.2735 0.035,-0.011 10.865448,-3.5298 14.085937,-4.5762 l 4.576172,14.0762 c 2.403475,6.6443 9.581074,10.3783 16.470703,8.3945 7.186249,-2.0677 11.566989,-9.7013 9.273438,-16.7598 -0.01138,-0.035 -3.528853,-10.8607 -4.574219,-14.0781 31.6306,-10.27728 67.89062,-22.05857 67.89062,-22.05857 7.1126,-2.311 11.00399,-9.94831 8.69336,-17.06055 -2.31062,-7.11159 -9.9492,-11.00386 -17.06054,-8.69336 l -67.888674,22.06641 c -10.277797,-31.63202 -22.0625,-67.89844 -22.0625,-67.89844 -1.877688,-5.77797 -7.271175,-9.43207 -13.042969,-9.35938 z" clip-path="none"/></clipPath><filter id="filter7221" color-interpolation-filters="sRGB"><feFlood id="feFlood7223" flood-color="#BF360C" flood-opacity=".2" result="flood"/><feComposite id="feComposite7225" in="flood" in2="SourceGraphic" operator="in" result="composite1"/><feGaussianBlur id="feGaussianBlur7227" in="composite1" result="blur" stdDeviation="4"/><feOffset id="feOffset7229" dx="4" dy="4" result="offset"/><feComposite id="feComposite7231" in="SourceGraphic" in2="offset" operator="over" result="composite2"/></filter><filter id="filter7233" color-interpolation-filters="sRGB"><feFlood id="feFlood7235" flood-color="#3E2723" flood-opacity=".2" result="flood"/><feComposite id="feComposite7237" in="flood" in2="SourceGraphic" operator="in" result="composite1"/><feGaussianBlur id="feGaussianBlur7239" in="composite1" result="blur" stdDeviation="4"/><feOffset id="feOffset7241" dx="4" dy="4" result="offset"/><feComposite id="feComposite7243" in="SourceGraphic" in2="offset" operator="over" result="composite2"/></filter><filter id="filter7245" color-interpolation-filters="sRGB"><feFlood id="feFlood7247" flood-color="#263238" flood-opacity=".2" result="flood"/><feComposite id="feComposite7249" in="flood" in2="SourceGraphic" operator="in" result="composite1"/><feGaussianBlur id="feGaussianBlur7251" in="composite1" result="blur" stdDeviation="4"/><feOffset id="feOffset7253" dx="4" dy="4" result="offset"/><feComposite id="feComposite7255" in="SourceGraphic" in2="offset" operator="over" result="composite2"/></filter><filter id="filter7257" color-interpolation-filters="sRGB"><feFlood id="feFlood7259" flood-color="#263238" flood-opacity=".2" result="flood"/><feComposite id="feComposite7261" in="flood" in2="SourceGraphic" operator="in" result="composite1"/><feGaussianBlur id="feGaussianBlur7263" in="composite1" result="blur" stdDeviation="4"/><feOffset id="feOffset7265" dx="4" dy="4" result="offset"/><feComposite id="feComposite7267" in="SourceGraphic" in2="offset" operator="over" result="composite2"/></filter></defs><metadata id="metadata7"/><g id="layer1" transform="translate(0,-860.36216)"><path id="path14-4-8-8" fill="#fff" fill-opacity="1" fill-rule="nonzero" stroke="none" d="m 105.5293,880.3615 c -1.33196,0.0169 -2.68404,0.23254 -4.01758,0.66602 -7.111598,2.31062 -11.003863,9.94921 -8.693361,17.06055 l 4.435547,13.64648 -28.498047,9.26172 c -0.979051,-3.01323 -4.433593,-13.64844 -4.433593,-13.64844 -2.311,-7.11135 -9.94833,-11.00399 -17.060547,-8.69336 -7.111594,2.31063 -11.003861,9.95028 -8.69336,17.0625 l 4.435547,13.64844 -14.078125,4.57617 c -6.643811,2.40347 -10.377885,9.58157 -8.394531,16.47071 2.068555,7.18612 9.701214,11.56698 16.759766,9.27343 0.03508,-0.0114 10.862956,-3.53024 14.082031,-4.57617 l 9.263672,28.5039 -14.083985,4.57813 c -6.644359,2.4035 -10.377382,9.58107 -8.394531,16.47072 2.068596,7.1861 9.700641,11.567 16.759766,9.2735 0.035,-0.011 10.865448,-3.5298 14.085937,-4.5762 l 4.576172,14.0762 c 2.403475,6.6443 9.581074,10.3783 16.470703,8.3945 7.186249,-2.0677 11.566989,-9.7013 9.273438,-16.7598 -0.01138,-0.035 -3.528853,-10.8607 -4.574219,-14.0782 13.28018,-4.31489 15.30467,-4.97301 28.50391,-9.26166 l 4.57617,14.07816 c 2.40347,6.6438 9.58057,10.3774 16.4707,8.3946 7.18625,-2.0691 11.56661,-9.7012 9.27344,-16.75987 -0.0114,-0.035 -3.52884,-10.86085 -4.57422,-14.07812 3.01008,-0.97803 13.64062,-4.43164 13.64062,-4.43164 7.1126,-2.311 11.00399,-9.94832 8.69336,-17.06055 -2.31062,-7.11159 -9.9492,-11.00386 -17.06054,-8.69336 l -13.64063,4.4336 c -4.31402,-13.27713 -4.97157,-15.30036 -9.25976,-28.49805 3.01009,-0.97803 13.64062,-4.43164 13.64062,-4.43164 7.11134,-2.31099 11.00399,-9.94833 8.69336,-17.06055 -2.31063,-7.11259 -9.94834,-11.00399 -17.06055,-8.69336 l -13.64062,4.4336 c -0.97835,-3.01105 -4.43359,-13.64258 -4.43359,-13.64258 -1.87768,-5.77899 -7.27118,-9.43271 -13.04297,-9.35938 z m 0.0937,57.1211 9.26172,28.49999 -28.500004,9.26368 c -4.314584,-13.27917 -4.972599,-15.30343 -9.261669,-28.50391 13.278374,-4.31437 15.302015,-4.9715 28.500003,-9.25976 z" filter="url(#filter4883)"/><path id="path24-5" fill="#7cd3dc" fill-opacity="1" fill-rule="nonzero" stroke="none" d="M 84.90625,55.384766 28.925781,73.580078 c -6.643811,2.40347 -10.377885,9.581563 -8.394531,16.470703 2.068555,7.18612 9.701214,11.566989 16.759766,9.273438 0.136085,-0.04417 27.35672,-8.889463 54.632812,-17.751953 z" clip-path="none" transform="translate(0,860.36216)"/><path id="path24-1-8" fill="#263238" fill-opacity="1" fill-rule="nonzero" stroke="none" d="M 90.361628,81.079971 C 72.972277,86.730196 56.035957,92.233267 37.291016,98.324219 30.232464,100.61777 22.599805,96.236901 20.53125,89.050781 c -0.314797,-1.09344 -0.469855,-2.1935 -0.507812,-3.28125 -0.05617,1.41039 0.09588,2.85043 0.507812,4.28125 2.068555,7.18612 9.701214,11.566989 16.759766,9.273438 18.829772,-6.118511 35.844368,-11.647135 53.316706,-17.324326 z" opacity=".2" transform="translate(0,860.36216)"/><path id="path24-8-7" fill="#fff" fill-opacity="1" fill-rule="nonzero" stroke="none" d="M 77.624596,57.751519 C 60.055615,63.461894 46.49473,67.869603 28.925781,73.580078 c -5.588678,2.02176 -9.102672,7.424633 -8.902343,13.189453 0.213539,-5.38112 3.637766,-10.284933 8.902343,-12.189453 17.751828,-5.769917 31.495783,-10.236481 49.247644,-16.006294 z" opacity=".2" transform="translate(0,860.36216)"/><path id="path7064" fill="url(#linearGradient7072)" fill-opacity="1" fill-rule="nonzero" stroke="none" stroke-dasharray="none" stroke-dashoffset="0" stroke-linecap="butt" stroke-linejoin="miter" stroke-miterlimit="4" stroke-opacity="1" stroke-width="4" d="m 43.003906,929.36541 25.751953,-8.36914 21.484989,21.48499 -38.867801,12.62895 z" clip-rule="nonzero" color="#000" color-interpolation="sRGB" color-interpolation-filters="linearRGB" color-rendering="auto" display="inline" enable-background="accumulate" image-rendering="auto" opacity="1" overflow="visible" shape-rendering="auto" text-rendering="auto" visibility="visible" style="isolation:auto;mix-blend-mode:normal;solid-color:#000;solid-opacity:1"/><path id="path16" fill="#4dc088" fill-opacity="1" fill-rule="nonzero" stroke="none" d="m 64.322846,907.34808 c -2.311,-7.11135 -9.949402,-11.00352 -17.061619,-8.69289 -7.111594,2.31063 -11.00389,9.9494 -8.693389,17.06162 l 35.012094,107.71959 c 2.403475,6.6443 9.580375,10.3778 16.470004,8.394 7.186249,-2.0677 11.567714,-9.7003 9.274159,-16.7588 -0.0871,-0.2683 -35.001249,-107.72352 -35.001249,-107.72352" clip-path="url(#clipPath7129)" filter="url(#filter7257)"/><path id="path16-9" fill="#fff" fill-opacity="1" fill-rule="nonzero" stroke="none" d="m 51.279297,897.98864 c -1.331953,0.0168 -2.684038,0.23278 -4.017578,0.66602 -5.901458,1.91744 -9.573194,7.50406 -9.335938,13.41406 0.19105,-5.52967 3.769518,-10.60547 9.335938,-12.41406 7.112217,-2.31063 14.749547,1.58201 17.060547,8.69336 0,0 34.914853,107.45438 35.001953,107.72268 0.365956,1.1262 0.544137,2.2659 0.585937,3.3965 0.06236,-1.4545 -0.111657,-2.9369 -0.585937,-4.3965 -0.0871,-0.2683 -35.001953,-107.72268 -35.001953,-107.72268 -1.877688,-5.77797 -7.271175,-9.43207 -13.042969,-9.35938 z" opacity=".2"/><path id="path16-6" fill="#263238" fill-opacity="1" fill-rule="nonzero" stroke="none" d="m 37.925781,911.06955 c -0.05291,1.53465 0.140675,3.10152 0.642578,4.64648 l 35.011719,107.72067 c 2.403475,6.6443 9.581074,10.3784 16.470703,8.3946 6.039621,-1.7378 10.079549,-7.4084 9.859375,-13.3633 -0.239215,5.579 -4.159156,10.7231 -9.859375,12.3633 -6.889629,1.9838 -14.067228,-1.7503 -16.470703,-8.3946 L 38.568359,914.71799 c -0.393315,-1.21071 -0.594035,-2.43609 -0.642578,-3.64844 z" opacity=".2"/><path color="#000" style="isolation:auto;mix-blend-mode:normal;solid-color:#000;solid-opacity:1" id="path7074" fill="url(#linearGradient7104)" fill-opacity="1" fill-rule="nonzero" stroke="none" stroke-dasharray="none" stroke-dashoffset="0" stroke-linecap="butt" stroke-linejoin="miter" stroke-miterlimit="4" stroke-opacity="1" stroke-width="4" d="M 86.384766 114.88477 L 60.636719 123.25195 L 60.896484 124.05078 L 69.003906 148.99805 L 69.005859 149 L 91.111328 171.10547 C 97.656531 168.6235 101.50199 161.41115 99.324219 154.70898 C 99.312836 154.67392 95.795366 143.8482 94.75 140.63086 L 86.384766 114.88477 z" clip-rule="nonzero" color-interpolation="sRGB" color-interpolation-filters="linearRGB" color-rendering="auto" display="inline" enable-background="accumulate" image-rendering="auto" opacity="1" overflow="visible" shape-rendering="auto" text-rendering="auto" transform="translate(0,860.36216)" visibility="visible"/><path id="path18" fill="#e10d63" fill-opacity="1" fill-rule="nonzero" stroke="none" d="m 162.64073,978.93497 c 7.1126,-2.311 11.00352,-9.94937 8.69289,-17.0616 -2.31062,-7.11159 -9.94915,-11.00388 -17.06049,-8.69338 L 46.553457,988.19207 c -6.644359,2.4035 -10.377877,9.5804 -8.395026,16.47003 2.068596,7.1861 9.700642,11.5672 16.759767,9.2737 0.267704,-0.087 107.722532,-35.00083 107.722532,-35.00083" clip-path="url(#clipPath7217)" filter="url(#filter7245)"/><path id="path18-0" fill="#fff" fill-opacity="1" fill-rule="nonzero" stroke="none" d="m 158.29102,952.51492 c -1.33185,0.0168 -2.68421,0.2328 -4.01758,0.66602 L 46.552734,988.19266 c -5.589139,2.02179 -9.102486,7.42268 -8.902343,13.18754 0.214417,-5.38033 3.637968,-10.28323 8.902343,-12.18754 L 154.27344,954.18094 c 7.11134,-2.3105 14.74992,1.58177 17.06054,8.69336 0.39383,1.21221 0.59431,2.43854 0.64258,3.65234 0.0534,-1.53618 -0.14011,-3.10573 -0.64258,-4.65234 -1.87737,-5.77817 -7.27162,-9.43197 -13.04296,-9.35938 z" opacity=".2"/><path id="path18-9" fill="#3e2723" fill-opacity="1" fill-rule="nonzero" stroke="none" d="m 171.97656,965.52666 c -0.1922,5.52809 -3.77003,10.59975 -9.33594,12.40821 0,0 -107.454947,34.91493 -107.722651,35.00193 -7.059125,2.2935 -14.69117,-2.0873 -16.759766,-9.2734 -0.314905,-1.0942 -0.470026,-2.1948 -0.507812,-3.2832 -0.05621,1.4103 0.09599,2.8523 0.507812,4.2832 2.068596,7.1861 9.700641,11.5669 16.759766,9.2734 0.267704,-0.087 107.722651,-35.00193 107.722651,-35.00193 5.90033,-1.91712 9.57088,-7.50046 9.33594,-13.40821 z" opacity=".2"/><path id="path7054" fill="url(#linearGradient7062)" fill-opacity="1" fill-rule="nonzero" stroke="none" stroke-dasharray="none" stroke-dashoffset="0" stroke-linecap="butt" stroke-linejoin="miter" stroke-miterlimit="4" stroke-opacity="1" stroke-width="4" d="m 114.88472,965.98259 25.74809,-8.36913 21.48984,21.48984 -38.86874,12.62734 z" clip-rule="nonzero" color="#000" color-interpolation="sRGB" color-interpolation-filters="linearRGB" color-rendering="auto" display="inline" enable-background="accumulate" image-rendering="auto" opacity="1" overflow="visible" shape-rendering="auto" text-rendering="auto" visibility="visible" style="isolation:auto;mix-blend-mode:normal;solid-color:#000;solid-opacity:1"/><path id="path14" fill="#e7a213" fill-opacity="1" fill-rule="nonzero" stroke="none" d="m 118.57258,889.72177 c -2.31099,-7.1126 -9.9494,-11.00477 -17.06161,-8.69289 -7.111598,2.31062 -11.003894,9.94915 -8.693392,17.06049 l 35.012092,107.71973 c 2.40347,6.6438 9.58037,10.3778 16.4705,8.395 7.18625,-2.0691 11.56696,-9.7011 9.27379,-16.75973 -0.0872,-0.2677 -35.00138,-107.7226 -35.00138,-107.7226" clip-path="url(#clipPath7175)" filter="url(#filter7233)"/><path id="path14-6" fill="#fff" fill-opacity="1" fill-rule="nonzero" stroke="none" d="m 105.5293,880.36264 c -1.33196,0.0169 -2.68404,0.23254 -4.01758,0.66602 -5.901463,1.91743 -9.573195,7.50461 -9.335939,13.41406 0.191049,-5.52918 3.769515,-10.60548 9.335939,-12.41406 7.11221,-2.31188 14.74956,1.58076 17.06055,8.69336 0,0 34.91475,107.45495 35.00195,107.72265 0.36589,1.12627 0.54415,2.26593 0.58594,3.39653 0.0624,-1.4546 -0.11168,-2.93669 -0.58594,-4.39653 -0.0872,-0.2677 -35.00195,-107.72265 -35.00195,-107.72265 -1.87768,-5.77899 -7.27118,-9.43271 -13.04297,-9.35938 z" opacity=".2"/><path id="path14-8" fill="#bf360c" fill-opacity="1" fill-rule="nonzero" stroke="none" d="m 92.175781,893.44195 c -0.0529,1.53451 0.140675,3.10171 0.642578,4.64649 l 35.011721,107.72066 c 2.40347,6.6438 9.58057,10.3774 16.4707,8.3946 6.03962,-1.739 10.07949,-7.4085 9.85938,-13.3633 -0.23921,5.5789 -4.15916,10.722 -9.85938,12.3633 -6.89013,1.9828 -14.06723,-1.7508 -16.4707,-8.3946 L 92.818359,897.08844 c -0.393315,-1.21056 -0.594035,-2.43426 -0.642578,-3.64649 z" opacity=".2"/><path id="path7044" fill="url(#linearGradient7052)" fill-opacity="1" fill-rule="nonzero" stroke="none" stroke-dasharray="none" stroke-dashoffset="0" stroke-linecap="butt" stroke-linejoin="miter" stroke-miterlimit="4" stroke-opacity="1" stroke-width="4" d="m 97.253906,911.73325 8.369144,25.75 42.17026,42.17026 -24.78745,-76.29005 z" clip-rule="nonzero" color="#000" color-interpolation="sRGB" color-interpolation-filters="linearRGB" color-rendering="auto" display="inline" enable-background="accumulate" image-rendering="auto" opacity="1" overflow="visible" shape-rendering="auto" text-rendering="auto" visibility="visible" style="isolation:auto;mix-blend-mode:normal;solid-color:#000;solid-opacity:1"/><path id="path24" fill="#7cd3dc" fill-opacity="1" fill-rule="nonzero" stroke="none" d="m 140.66406,37.902344 c -1.33197,0.01684 -2.68404,0.232772 -4.01758,0.666015 l -53.0563,17.244169 7.017578,26.1875 c 26.505662,-8.612163 54.405912,-17.677762 54.405912,-17.677762 7.11134,-2.31099 11.00399,-9.948327 8.69336,-17.060547 -1.87739,-5.77898 -7.2711,-9.432344 -13.04297,-9.359375 z" clip-path="url(#clipPath7152)" filter="url(#filter7221)" transform="translate(0,860.36216)"/><path id="path24-1-8-3" fill="#263238" fill-opacity="1" fill-rule="nonzero" stroke="none" d="m 154.34961,50.910156 c -0.19107,5.52931 -3.76972,10.60325 -9.33594,12.41211 -20.11018,6.534262 -37.60237,12.217849 -54.655713,17.758898 l 0.246094,0.919922 c 16.978819,-5.516836 34.392239,-11.174717 54.409619,-17.67882 5.90078,-1.91759 9.57255,-7.50295 9.33594,-13.41211 z" opacity=".2" transform="translate(0,860.36216)"/><path id="path24-8-7-4" fill="#fff" fill-opacity="1" fill-rule="nonzero" stroke="none" d="m 140.66406,37.902344 c -1.33197,0.0168 -2.68404,0.232775 -4.01758,0.666015 -18.338,5.959925 -40.683998,13.22287 -59.021884,19.18316 l 0.548829,0.822265 c 18.155007,-5.900847 40.317935,-13.104937 58.473055,-19.005425 1.33354,-0.43324 2.68561,-0.649215 4.01758,-0.666015 5.77187,-0.073 11.16558,3.580395 13.04297,9.359375 0.3934,1.21089 0.59408,2.435977 0.64258,3.648437 0.053,-1.53487 -0.14054,-3.103127 -0.64258,-4.648437 -1.87739,-5.77898 -7.2711,-9.432345 -13.04297,-9.359375 z" opacity=".2" transform="translate(0,860.36216)"/></g><g id="layer2"><path id="path14-4" fill="url(#radialGradient4811)" fill-opacity="1" fill-rule="nonzero" stroke="none" d="m 105.5293,20 c -1.33196,0.01692 -2.68404,0.232538 -4.01758,0.666016 -7.111598,2.31062 -11.003863,9.949207 -8.693361,17.060546 l 4.435547,13.646485 -28.498047,9.261719 C 67.776808,57.62154 64.322266,46.986328 64.322266,46.986328 c -2.311,-7.11135 -9.94833,-11.003989 -17.060547,-8.693359 -7.111594,2.31063 -11.003861,9.95028 -8.69336,17.0625 l 4.435547,13.648437 -14.078125,4.576172 c -6.643811,2.40347 -10.377885,9.581563 -8.394531,16.470703 2.068555,7.18612 9.701214,11.566989 16.759766,9.273438 0.03508,-0.01139 10.862956,-3.530244 14.082031,-4.576172 l 9.263672,28.503903 -14.083985,4.57813 c -6.644359,2.4035 -10.377382,9.58107 -8.394531,16.4707 2.068596,7.1861 9.700641,11.56694 16.759766,9.27344 0.035,-0.0114 10.865448,-3.52978 14.085937,-4.57617 l 4.576172,14.07617 c 2.403475,6.6443 9.581074,10.37833 16.470703,8.39453 7.186249,-2.0677 11.566989,-9.70127 9.273438,-16.75977 -0.01138,-0.0351 -3.528853,-10.86078 -4.574219,-14.07812 13.28018,-4.31495 15.30467,-4.97307 28.50391,-9.26172 l 4.57617,14.07813 c 2.40347,6.6438 9.58057,10.37733 16.4707,8.39453 7.18625,-2.0691 11.56661,-9.70114 9.27344,-16.75977 -0.0114,-0.035 -3.52884,-10.86085 -4.57422,-14.07812 3.01008,-0.97803 13.64062,-4.43164 13.64062,-4.43164 7.1126,-2.311 11.00399,-9.94832 8.69336,-17.06055 -2.31062,-7.111591 -9.9492,-11.003861 -17.06054,-8.693361 l -13.64063,4.433594 c -4.31402,-13.277128 -4.97157,-15.300355 -9.25976,-28.498047 3.01009,-0.978035 13.64062,-4.43164 13.64062,-4.43164 7.11134,-2.31099 11.00399,-9.948327 8.69336,-17.060547 -2.31063,-7.11259 -9.94834,-11.00399 -17.06055,-8.69336 l -13.64062,4.433594 C 122.02751,39.990908 118.57227,29.359375 118.57227,29.359375 116.69459,23.580387 111.30109,19.926669 105.5293,20 Z m 0.0937,57.121094 9.26172,28.499996 -28.500004,9.26368 C 82.070132,101.6056 81.412117,99.581332 77.123047,86.380859 90.401421,82.066482 92.425062,81.409357 105.62305,77.121094 Z"/></g></svg>