<svg xmlns="http://www.w3.org/2000/svg" xmlns:svg="http://www.w3.org/2000/svg" xmlns:xlink="http://www.w3.org/1999/xlink" id="svg2" width="48" height="48" version="1.1"><defs id="defs4"><linearGradient id="linearGradient4211"><stop id="stop4213" offset="0" stop-color="#000" stop-opacity="1"/><stop id="stop4215" offset="1" stop-color="#000" stop-opacity="0"/></linearGradient><linearGradient id="linearGradient3930"><stop id="stop3932" offset="0" stop-color="#000" stop-opacity="1"/><stop id="stop3934" offset="1" stop-color="#000" stop-opacity="0"/></linearGradient><linearGradient id="linearGradient3849"><stop id="stop3851" offset="0" stop-color="#000" stop-opacity="1"/><stop id="stop3853" offset="1" stop-color="#000" stop-opacity="0"/></linearGradient><linearGradient id="linearGradient3830"><stop id="stop3832" offset="0" stop-color="#3b3b3b" stop-opacity="1"/><stop id="stop3834" offset="1" stop-color="#1a1a1a" stop-opacity="1"/></linearGradient><linearGradient id="linearGradient3818"><stop id="stop3820" offset="0" stop-color="#dadad8" stop-opacity="1"/><stop id="stop3822" offset="1" stop-color="#efefef" stop-opacity="1"/></linearGradient><linearGradient id="linearGradient3956"><stop id="stop3958" offset="0" stop-color="#f8f4e1" stop-opacity="1"/><stop id="stop3960" offset="1" stop-color="#eae5c8" stop-opacity="1"/></linearGradient><linearGradient id="linearGradient3915"><stop id="stop3917" offset="0" stop-color="#f8f4e1" stop-opacity="1"/><stop id="stop3919" offset="1" stop-color="#ad9e57" stop-opacity="1"/></linearGradient><linearGradient id="linearGradient3861"><stop id="stop3863" offset="0" stop-color="#000" stop-opacity="1"/><stop id="stop3865" offset="1" stop-color="#000" stop-opacity="0"/></linearGradient><linearGradient id="linearGradient3844"><stop id="stop3846" offset="0" stop-color="#000" stop-opacity=".392"/><stop id="stop3848" offset="1" stop-color="#000" stop-opacity="0"/></linearGradient><linearGradient id="linearGradient3810"><stop id="stop3812" offset="0" stop-color="#f2c66f" stop-opacity="1"/><stop id="stop3814" offset="1" stop-color="#fbd68f" stop-opacity="1"/></linearGradient><linearGradient id="linearGradient3816" x1="24" x2="24" y1="1046.362" y2="1014.362" gradientUnits="userSpaceOnUse" xlink:href="#linearGradient3810"/><linearGradient id="linearGradient3856" x1="24" x2="24" y1="1046.362" y2="1014.362" gradientTransform="translate(0,-3)" gradientUnits="userSpaceOnUse" xlink:href="#linearGradient3810"/><linearGradient id="linearGradient3858" x1="24" x2="24" y1="1046.362" y2="1014.362" gradientTransform="translate(0,-1004.3622)" gradientUnits="userSpaceOnUse" xlink:href="#linearGradient3810"/><linearGradient id="linearGradient3867" x1="1.995" x2="46.005" y1="28.563" y2="28.563" gradientUnits="userSpaceOnUse" xlink:href="#linearGradient3861"/><linearGradient id="linearGradient3921" x1="35" x2="38" y1="8" y2="5" gradientUnits="userSpaceOnUse" xlink:href="#linearGradient3915"/><linearGradient id="linearGradient3933" x1="35" x2="38" y1="8" y2="5" gradientTransform="matrix(1.0436562,0,0,1.2222222,26.301501,1003.2511)" gradientUnits="userSpaceOnUse" xlink:href="#linearGradient3915"/><linearGradient id="linearGradient3824" x1="24" x2="24" y1="1046.362" y2="1010.362" gradientUnits="userSpaceOnUse" xlink:href="#linearGradient3818"/><linearGradient id="linearGradient3836" x1="7" x2="41" y1="1014.362" y2="1042.362" gradientUnits="userSpaceOnUse" xlink:href="#linearGradient3830"/><radialGradient id="radialGradient3855" cx="24" cy="42.5" r="24" fx="24" fy="42.5" gradientTransform="matrix(1,0,0,0.0625,0,39.84375)" gradientUnits="userSpaceOnUse" xlink:href="#linearGradient3849"/><linearGradient id="linearGradient3018-5" x1="20" x2="20" y1="26" y2="13" gradientTransform="translate(0,0.9999922)" gradientUnits="userSpaceOnUse" xlink:href="#linearGradient3680-6-6-6-3-7"/><linearGradient id="linearGradient3680-6-6-6-3-7"><stop id="stop3682-4-6-1-3-7" offset="0" stop-color="#d2eecc" stop-opacity="1"/><stop id="stop3684-8-5-8-0-2" offset="1" stop-color="#ecffe7" stop-opacity="1"/></linearGradient><radialGradient id="radialGradient3936" cx="19" cy="43" r="2" fx="19" fy="43" gradientUnits="userSpaceOnUse" xlink:href="#linearGradient3930"/><linearGradient id="linearGradient4217" x1="15" x2="39" y1="11" y2="29" gradientTransform="translate(0,1003.3622)" gradientUnits="userSpaceOnUse" xlink:href="#linearGradient4211"/></defs><metadata id="metadata7"/><g id="layer2"><path id="path4260" fill="#000" fill-opacity="1" stroke="none" d="m 9,34 0,1 c 0,1.108 0.892,2 2,2 l 3,0 5,8 5,-8 19,0 c 1.108,0 2,-0.892 2,-2 l 0,-1 c 0,1.108 -0.892,2 -2,2 l -19,0 -5,8 -5,-8 -3,0 C 9.892,36 9,35.108 9,34 Z" opacity=".04"/><path id="path4258" fill="#000" fill-opacity="1" stroke="none" d="M 9,33.5 9,34 c 0,1.108 0.892,2 2,2 l 3,0 5,8 5,-8 19,0 c 1.108,0 2,-0.892 2,-2 l 0,-0.5 c 0,1.108 -0.892,2 -2,2 l -19,0 -5,8 -5,-8 -3,0 c -1.108,0 -2,-0.892 -2,-2 z" opacity=".08"/><path id="path4255" fill="#000" fill-opacity="1" stroke="none" d="m 9,33 0,0.5 c 0,1.108 0.892,2 2,2 l 3,0 5,8 5,-8 19,0 c 1.108,0 2,-0.892 2,-2 L 45,33 c 0,1.108 -0.892,2 -2,2 l -19,0 -5,8 -5,-8 -3,0 C 9.892,35 9,34.108 9,33 Z" opacity=".16"/><path id="rect4230" fill="#000" fill-opacity="1" stroke="none" d="m 3,28 0,1 c 0,1.108 0.892,2 2,2 l 32,0 c 1.108,0 2,-0.892 2,-2 l 0,-1 c 0,1.108 -0.892,2 -2,2 L 5,30 C 3.892,30 3,29.108 3,28 Z" opacity=".04"/><path id="path4228" fill="#000" fill-opacity="1" stroke="none" d="M 3,27.5 3,28 c 0,1.108 0.892,2 2,2 l 32,0 c 1.108,0 2,-0.892 2,-2 l 0,-0.5 c 0,1.108 -0.892,2 -2,2 l -32,0 c -1.108,0 -2,-0.892 -2,-2 z" opacity=".08"/><path id="rect4225" fill="#000" fill-opacity="1" stroke="none" d="m 3,27 0,0.5 c 0,1.108 0.892,2 2,2 l 32,0 c 1.108,0 2,-0.892 2,-2 L 39,27 c 0,1.108 -0.892,2 -2,2 L 5,29 C 3.892,29 3,28.108 3,27 Z" opacity=".16"/></g><g id="layer1" transform="translate(0,-1004.3622)"><path id="rect4198" fill="#5c6bc0" fill-opacity="1" stroke="none" d="m 11,1014.3622 32,0 c 1.108,0 2,0.892 2,2 l 0,21 c 0,1.108 -0.892,2 -2,2 l -32,0 c -1.108,0 -2,-0.892 -2,-2 l 0,-21 c 0,-1.108 0.892,-2 2,-2 z m 3,25 5,8 5,-8 z"/><rect id="rect4196" width="36" height="26" x="3" y="1007.362" fill="#2196f3" fill-opacity="1" stroke="none" rx="2" ry="2"/><path id="path4206" fill="url(#linearGradient4217)" fill-opacity="1" fill-rule="evenodd" stroke="none" stroke-linecap="butt" stroke-linejoin="miter" stroke-opacity="1" stroke-width="1" d="m 21,1013.3622 -2,5 -4,1 2.5,1 -0.25,1 0.75,2 -3,0 1.65,1 -0.65,3 9,6 12,0 c 1.108,0 2,-0.892 2,-2 l 0,-7 -13,-11 -1,3 -1.5,0 z" opacity=".25"/><g id="g4200" transform="translate(-6,-6.0000174)"><path id="rect3034" fill="#e3f2fd" fill-opacity="1" stroke="none" d="m 25,1019.3622 2,0 -3,14 -2,0 z"/><rect id="rect3804" width="2" height="12" x="-1029.362" y="21" fill="#e3f2fd" fill-opacity="1" stroke="none" transform="matrix(0,-1,1,0,0,0)"/><path id="path3807" fill="#e3f2fd" fill-opacity="1" stroke="none" d="m 30,1019.3622 2,0 -3,14 -2,0 z"/><rect id="rect3809" width="2" height="12" x="-1025.362" y="21" fill="#e3f2fd" fill-opacity="1" stroke="none" transform="matrix(0,-1,1,0,0,0)"/></g></g></svg>