<svg xmlns="http://www.w3.org/2000/svg" xmlns:svg="http://www.w3.org/2000/svg" xmlns:xlink="http://www.w3.org/1999/xlink" id="svg2" width="192" height="192" version="1.1" viewBox="0 0 192 192"><defs id="defs4"><linearGradient id="linearGradient5771"><stop id="stop5773" offset="0" stop-color="#ff3d00" stop-opacity="1"/><stop id="stop5775" offset="1" stop-color="#ff3d00" stop-opacity="0"/></linearGradient><linearGradient id="linearGradient5763"><stop id="stop5765" offset="0" stop-color="#ff9800" stop-opacity="1"/><stop id="stop5767" offset="1" stop-color="#ff9800" stop-opacity="0"/></linearGradient><linearGradient id="linearGradient4198"><stop id="stop4200" offset="0" stop-color="#fff" stop-opacity="1"/><stop id="stop4202" offset="1" stop-color="#fff" stop-opacity="0"/></linearGradient><clipPath id="clipPath10430" clipPathUnits="userSpaceOnUse"><path id="path10432" d="m 1241.028,39.3409 224.537,0 0,178.031 -224.537,0 0,-178.031 z"/></clipPath><clipPath id="clipPath10438" clipPathUnits="userSpaceOnUse"><path id="path10440" d="m 1260.156,213.3477 0,-170.2268 191.3337,0 0,170.2268"/></clipPath><filter id="filter5248" color-interpolation-filters="sRGB"><feFlood id="feFlood5250" flood-color="#000" flood-opacity=".2" result="flood"/><feComposite id="feComposite5252" in="flood" in2="SourceGraphic" operator="in" result="composite1"/><feGaussianBlur id="feGaussianBlur5254" in="composite1" result="blur" stdDeviation="2"/><feOffset id="feOffset5256" dx="0" dy="4" result="offset"/><feComposite id="feComposite5258" in="SourceGraphic" in2="offset" operator="over" result="fbSourceGraphic"/><feColorMatrix id="feColorMatrix5903" in="fbSourceGraphic" result="fbSourceGraphicAlpha" values="0 0 0 -1 0 0 0 0 -1 0 0 0 0 -1 0 0 0 0 1 0"/><feFlood id="feFlood5905" flood-color="#000" flood-opacity=".2" in="fbSourceGraphic" result="flood"/><feComposite id="feComposite5907" in="flood" in2="fbSourceGraphic" operator="in" result="composite1"/><feGaussianBlur id="feGaussianBlur5909" in="composite1" result="blur" stdDeviation="2"/><feOffset id="feOffset5911" dx="0" dy="0" result="offset"/><feComposite id="feComposite5913" in="fbSourceGraphic" in2="offset" operator="over" result="composite2"/></filter><radialGradient id="radialGradient4204" cx="8" cy="8" r="88" fx="8" fy="8" gradientTransform="matrix(0,2,-2,0,24,-8)" gradientUnits="userSpaceOnUse" xlink:href="#linearGradient4198"/><filter id="filter5747" height="1.35" color-interpolation-filters="sRGB"><feFlood id="feFlood5749" flood-color="#3E2723" flood-opacity=".2" result="flood"/><feComposite id="feComposite5751" in="flood" in2="SourceGraphic" operator="in" result="composite1"/><feGaussianBlur id="feGaussianBlur5753" in="composite1" result="blur" stdDeviation="4"/><feOffset id="feOffset5755" dx="0" dy="4" result="offset"/><feComposite id="feComposite5757" in="SourceGraphic" in2="offset" operator="over" result="composite2"/></filter><linearGradient id="linearGradient5769" x1="96" x2="96" y1="8" y2="184" gradientUnits="userSpaceOnUse" xlink:href="#linearGradient5763"/><linearGradient id="linearGradient5777" x1="96" x2="96" y1="184" y2="8" gradientUnits="userSpaceOnUse" xlink:href="#linearGradient5771"/></defs><metadata id="metadata7"/><g id="layer2"><g id="g5779" filter="url(#filter5248)"><circle id="path4184" cx="96" cy="96" r="88" fill="#ff5722" fill-opacity="1" fill-rule="nonzero" stroke="none" stroke-dasharray="none" stroke-dashoffset="0" stroke-linecap="butt" stroke-linejoin="miter" stroke-miterlimit="4" stroke-opacity="1" stroke-width="2.949" display="inline" opacity="1"/><circle id="circle5759" cx="96" cy="96" r="88" fill="url(#linearGradient5777)" fill-opacity="1" fill-rule="nonzero" stroke="none" stroke-dasharray="none" stroke-dashoffset="0" stroke-linecap="butt" stroke-linejoin="miter" stroke-miterlimit="4" stroke-opacity="1" stroke-width="2.949" display="inline" opacity="1"/><circle id="circle5761" cx="96" cy="96" r="88" fill="url(#linearGradient5769)" fill-opacity="1" fill-rule="nonzero" stroke="none" stroke-dasharray="none" stroke-dashoffset="0" stroke-linecap="butt" stroke-linejoin="miter" stroke-miterlimit="4" stroke-opacity="1" stroke-width="2.949" display="inline" opacity="1"/></g></g><g id="layer1" transform="translate(0,-860.36216)"><path id="path4381" fill="#f5f5f5" fill-opacity="1" fill-rule="nonzero" stroke="none" stroke-dasharray="none" stroke-dashoffset="0" stroke-linecap="butt" stroke-linejoin="miter" stroke-miterlimit="4" stroke-opacity="1" stroke-width="2.949" d="m 110,68.000001 c -4.33917,0.0168 -8.61507,1.04176 -12.490234,2.99414 C 96.64367,71.420381 96,71.986451 96,72.937501 L 96,122 c 0,1 1,2 1.953125,2 L 110,124 l 34,0 c 8.83656,0 16,-7.16344 16,-16 0,-8.836549 -7.16344,-15.999999 -16,-15.999999 -2.11728,0.005 -4.21245,0.4309 -6.16406,1.25195 C 136.42378,78.932791 124.38862,68.014841 110,68.000001 Z m -20,8 c -1.108,0 -2,0.892 -2,2 L 88,122 c 0,1.108 0.892,2 2,2 1.108,0 2,-0.892 2,-2 l 0,-43.999999 c 0,-1.108 -0.892,-2 -2,-2 z m -16,2 c -1.108,0 -2,0.892 -2,2 L 72,122 c 0,1.108 0.892,2 2,2 1.108,0 2,-0.892 2,-2 l 0,-41.999999 c 0,-1.108 -0.892,-2 -2,-2 z m 8,1 c -1.108,0 -2,0.892 -2,2 L 80,122 c 0,1.108 0.892,2 2,2 1.108,0 2,-0.892 2,-2 l 0,-40.999999 c 0,-1.108 -0.892,-2 -2,-2 z m -16,1 c -1.108,0 -2,0.892 -2,2 L 64,122 c 0,1.108 0.892,2 2,2 1.108,0 2,-0.892 2,-2 l 0,-39.999999 c 0,-1.108 -0.892,-2 -2,-2 z m -8.044922,7 c -1.083516,0 -1.955078,0.892 -1.955078,2 L 56,122 c 0,1.108 0.871562,2 1.955078,2 l 0.08984,0 C 59.128438,124 60,123.108 60,122 l 0,-32.999999 c 0,-1.108 -0.871562,-2 -1.955078,-2 l -0.08984,0 z m -7.955078,5 c -1.108,0 -2,0.892 -2,2 L 48,122 c 0,1.108 0.892,2 2,2 1.108,0 2,-0.892 2,-2 l 0,-27.999999 c 0,-1.108 -0.892,-2 -2,-2 z m -8.044922,1 c -1.083516,0 -1.955078,0.892 -1.955078,2 L 40,121 c 0,1.108 0.871562,2 1.955078,2 l 0.08984,0 C 43.128438,123 44,122.108 44,121 l 0,-25.999999 c 0,-1.108 -0.871562,-2 -1.955078,-2 l -0.08984,0 z m -8,6.999999 C 32.871562,100 32,100.892 32,102 l 0,12 c 0,1.108 0.871562,2 1.955078,2 l 0.08984,0 C 35.128438,116 36,115.108 36,114 l 0,-12 c 0,-1.108 -0.871562,-2 -1.955078,-2 l -0.08984,0 z" filter="url(#filter5747)" opacity="1" transform="translate(0,860.36216)"/><g id="g4209"><path id="path4199" fill="#fff" fill-opacity="1" fill-rule="nonzero" stroke="none" stroke-dasharray="none" stroke-dashoffset="0" stroke-linecap="butt" stroke-linejoin="miter" stroke-miterlimit="4" stroke-opacity="1" stroke-width="2.949" d="m 110,68 c -4.33917,0.0168 -8.61507,1.041761 -12.490234,2.994141 C 96.64367,71.420381 96,71.98645 96,72.9375 l 0,1 c 0,-0.95105 0.64367,-1.517119 1.509766,-1.943359 C 101.38493,70.041761 105.66083,69.0168 110,69 124.38862,69.01484 136.42378,79.932793 137.83594,94.251953 139.78755,93.430903 141.88272,93.005 144,93 c 8.66784,0 15.70824,6.896807 15.97461,15.5 0.005,-0.16746 0.0254,-0.33128 0.0254,-0.5 0,-8.836549 -7.16344,-16 -16,-16 -2.11728,0.005 -4.21245,0.430903 -6.16406,1.251953 C 136.42378,78.932793 124.38862,68.01484 110,68 Z m -20,8 c -1.108,0 -2,0.892 -2,2 l 0,1 c 0,-1.108 0.892,-2 2,-2 1.108,0 2,0.892 2,2 l 0,-1 c 0,-1.108 -0.892,-2 -2,-2 z m -16,2 c -1.108,0 -2,0.892 -2,2 l 0,1 c 0,-1.108 0.892,-2 2,-2 1.108,0 2,0.892 2,2 l 0,-1 c 0,-1.108 -0.892,-2 -2,-2 z m 8,1 c -1.108,0 -2,0.892 -2,2 l 0,1 c 0,-1.108 0.892,-2 2,-2 1.108,0 2,0.892 2,2 l 0,-1 c 0,-1.108 -0.892,-2 -2,-2 z m -16,1 c -1.108,0 -2,0.892 -2,2 l 0,1 c 0,-1.108 0.892,-2 2,-2 1.108,0 2,0.892 2,2 l 0,-1 c 0,-1.108 -0.892,-2 -2,-2 z m -8.044922,7 C 56.871562,87 56,87.892 56,89 l 0,1 c 0,-1.108 0.871562,-2 1.955078,-2 l 0.08984,0 C 59.128438,88 60,88.892 60,90 l 0,-1 c 0,-1.108 -0.871562,-2 -1.955078,-2 l -0.08984,0 z M 50,92 c -1.108,0 -2,0.892 -2,2 l 0,1 c 0,-1.108 0.892,-2 2,-2 1.108,0 2,0.892 2,2 l 0,-1 c 0,-1.108 -0.892,-2 -2,-2 z m -8.044922,1 C 40.871562,93 40,93.892 40,95 l 0,1 c 0,-1.108 0.871562,-2 1.955078,-2 l 0.08984,0 C 43.128438,94 44,94.892 44,96 l 0,-1 c 0,-1.108 -0.871562,-2 -1.955078,-2 l -0.08984,0 z m -8,7 C 32.871562,100 32,100.892 32,102 l 0,1 c 0,-1.108 0.871562,-2 1.955078,-2 l 0.08984,0 C 35.128438,101 36,101.892 36,103 l 0,-1 c 0,-1.108 -0.871562,-2 -1.955078,-2 l -0.08984,0 z" opacity=".2" transform="translate(0,860.36216)"/><path id="path4206" fill="#3e2723" fill-opacity="1" fill-rule="nonzero" stroke="none" stroke-dasharray="none" stroke-dashoffset="0" stroke-linecap="butt" stroke-linejoin="miter" stroke-miterlimit="4" stroke-opacity="1" stroke-width="2.949" d="M 159.97461,108.5 C 159.70824,117.1032 152.66784,124 144,124 l -34,0 -12.046875,0 C 97,124 96,123 96,122 l 0,1 c 0,1 1,2 1.953125,2 L 110,125 l 34,0 c 8.83656,0 16,-7.16344 16,-16 0,-0.16872 -0.0202,-0.33254 -0.0254,-0.5 z M 32,114 l 0,1 c 0,1.108 0.871562,2 1.955078,2 l 0.08984,0 C 35.128442,117 36,116.108 36,115 l 0,-1 c 0,1.108 -0.871558,2 -1.955078,2 l -0.08984,0 C 32.871562,116 32,115.108 32,114 Z m 8,7 0,1 c 0,1.108 0.871562,2 1.955078,2 l 0.08984,0 C 43.128442,124 44,123.108 44,122 l 0,-1 c 0,1.108 -0.871558,2 -1.955078,2 l -0.08984,0 C 40.871562,123 40,122.108 40,121 Z m 8,1 0,1 c 0,1.108 0.892,2 2,2 1.108,0 2,-0.892 2,-2 l 0,-1 c 0,1.108 -0.892,2 -2,2 -1.108,0 -2,-0.892 -2,-2 z m 8,0 0,1 c 0,1.108 0.871562,2 1.955078,2 l 0.08984,0 C 59.128442,125 60,124.108 60,123 l 0,-1 c 0,1.108 -0.871558,2 -1.955078,2 l -0.08984,0 C 56.871562,124 56,123.108 56,122 Z m 8,0 0,1 c 0,1.108 0.892,2 2,2 1.108,0 2,-0.892 2,-2 l 0,-1 c 0,1.108 -0.892,2 -2,2 -1.108,0 -2,-0.892 -2,-2 z m 8,0 0,1 c 0,1.108 0.892,2 2,2 1.108,0 2,-0.892 2,-2 l 0,-1 c 0,1.108 -0.892,2 -2,2 -1.108,0 -2,-0.892 -2,-2 z m 8,0 0,1 c 0,1.108 0.892,2 2,2 1.108,0 2,-0.892 2,-2 l 0,-1 c 0,1.108 -0.892,2 -2,2 -1.108,0 -2,-0.892 -2,-2 z m 8,0 0,1 c 0,1.108 0.892,2 2,2 1.108,0 2,-0.892 2,-2 l 0,-1 c 0,1.108 -0.892,2 -2,2 -1.108,0 -2,-0.892 -2,-2 z" opacity=".2" transform="translate(0,860.36216)"/></g></g><g id="layer3" display="inline"><path id="circle4186" fill="#3e2723" fill-opacity="1" fill-rule="nonzero" stroke="none" stroke-dasharray="none" stroke-dashoffset="0" stroke-linecap="butt" stroke-linejoin="miter" stroke-miterlimit="4" stroke-opacity="1" stroke-width="2.949" d="M 183.97852,95.414062 A 88,88 0 0 1 96,183 88,88 0 0 1 8.0214844,95.585938 88,88 0 0 0 8,96 a 88,88 0 0 0 88,88 88,88 0 0 0 88,-88 88,88 0 0 0 -0.0215,-0.585938 z" opacity=".2"/><path id="circle4191" fill="#fff" fill-opacity="1" fill-rule="nonzero" stroke="none" stroke-dasharray="none" stroke-dashoffset="0" stroke-linecap="butt" stroke-linejoin="miter" stroke-miterlimit="4" stroke-opacity="1" stroke-width="2.949" d="M 96,8 A 88,88 0 0 0 8,96 88,88 0 0 0 8.0214844,96.585938 88,88 0 0 1 96,9 88,88 0 0 1 183.97852,96.414062 88,88 0 0 0 184,96 88,88 0 0 0 96,8 Z" opacity=".2"/><circle id="circle4196" cx="96" cy="96" r="88" fill="url(#radialGradient4204)" fill-opacity="1" fill-rule="nonzero" stroke="none" stroke-dasharray="none" stroke-dashoffset="0" stroke-linecap="butt" stroke-linejoin="miter" stroke-miterlimit="4" stroke-opacity="1" stroke-width="2.949" opacity=".1"/></g></svg>