<svg xmlns="http://www.w3.org/2000/svg" xmlns:xlink="http://www.w3.org/1999/xlink" width="192" height="192" version="1.1" viewBox="0 0 192 192"><title>Artboard 1</title><desc>Created with Sketch.</desc><defs><filter id="filter-1" width="200%" height="200%" x="-50%" y="-50%" filterUnits="objectBoundingBox"><feOffset dx="0" dy="-1" in="SourceAlpha" result="shadowOffsetInner1"/><feGaussianBlur in="shadowOffsetInner1" result="shadowBlurInner1" stdDeviation="0"/><feComposite in="shadowBlurInner1" in2="SourceAlpha" k2="-1" k3="1" operator="arithmetic" result="shadowInnerInner1"/><feColorMatrix in="shadowInnerInner1" result="shadowMatrixInner1" type="matrix" values="0 0 0 0 0.2 0 0 0 0 0.411764706 0 0 0 0 0.117647059 0 0 0 0.14 0"/><feOffset dx="0" dy="1" in="SourceAlpha" result="shadowOffsetInner2"/><feGaussianBlur in="shadowOffsetInner2" result="shadowBlurInner2" stdDeviation="0"/><feComposite in="shadowBlurInner2" in2="SourceAlpha" k2="-1" k3="1" operator="arithmetic" result="shadowInnerInner2"/><feColorMatrix in="shadowInnerInner2" result="shadowMatrixInner2" type="matrix" values="0 0 0 0 1 0 0 0 0 1 0 0 0 0 1 0 0 0 0.142999887 0"/><feMerge><feMergeNode in="SourceGraphic"/><feMergeNode in="shadowMatrixInner1"/><feMergeNode in="shadowMatrixInner2"/></feMerge></filter><linearGradient id="linearGradient-2" x1="20.689%" x2="71.498%" y1="8.315%" y2="69.607%"><stop offset="0%" stop-color="#33691E" stop-opacity=".2"/><stop offset="100%" stop-color="#33691E" stop-opacity="0"/></linearGradient><filter id="filter-3" width="200%" height="200%" x="-50%" y="-50%" filterUnits="objectBoundingBox"><feOffset dx="0" dy="4" in="SourceAlpha" result="shadowOffsetOuter1"/><feGaussianBlur in="shadowOffsetOuter1" result="shadowBlurOuter1" stdDeviation="2"/><feColorMatrix in="shadowBlurOuter1" result="shadowMatrixOuter1" type="matrix" values="0 0 0 0 0.2 0 0 0 0 0.411764706 0 0 0 0 0.117647059 0 0 0 0.14 0"/><feOffset dx="0" dy="1" in="SourceAlpha" result="shadowOffsetOuter2"/><feGaussianBlur in="shadowOffsetOuter2" result="shadowBlurOuter2" stdDeviation="0"/><feColorMatrix in="shadowBlurOuter2" result="shadowMatrixOuter2" type="matrix" values="0 0 0 0 0.2 0 0 0 0 0.411764706 0 0 0 0 0.117647059 0 0 0 0.143396173 0"/><feMerge><feMergeNode in="shadowMatrixOuter1"/><feMergeNode in="shadowMatrixOuter2"/><feMergeNode in="SourceGraphic"/></feMerge></filter><radialGradient id="radialGradient-4" cx="16.624%" cy="11.174%" r="101.68%" fx="16.624%" fy="11.174%"><stop offset="0%" stop-color="#FFF" stop-opacity=".1"/><stop offset="100%" stop-color="#FFF" stop-opacity="0"/></radialGradient></defs><g id="Page-1" fill="none" fill-rule="evenodd" stroke="none" stroke-width="1"><g id="Artboard-1"><circle id="Base" cx="96" cy="96" r="88" fill="#1ED760" filter="url(#filter-1)"/><path id="Path-4" fill="url(#linearGradient-2)" d="M49.3085976,125.643218 L107.521367,182.681811 L136.513424,172.490153 L153.606873,159.286124 L164.848644,145.869708 L178.130004,124.839744 L181.508716,111.807896 L182.561702,103.161964 L154.461325,75.0615877 C154.461325,75.0615877 103.262699,69.808688 77.9953656,69.808688 C65.6481587,69.808688 41.6177029,75.0615877 41.6177029,75.0615877 L59.86249,93.3063748 L46.1341424,101.55883 L62.5354036,117.960091 L49.3085976,125.643218 Z"/><path id="Shape" fill="#FAFAFA" d="M132.720554,133.227273 C131.220554,135.490909 128.220554,136.622727 125.595554,135.113636 C106.095554,123.040909 81.7205538,120.4 53.2205538,127.190909 C50.5955538,127.945455 47.5955538,126.059091 47.2205538,123.418182 C46.4705538,120.777273 48.3455538,117.759091 50.9705538,117.381818 C82.4705538,110.213636 109.470554,113.231818 131.220554,126.813636 C133.470554,127.568182 134.220554,130.586364 132.720554,133.227273 L132.720554,133.227273 Z M142.845554,110.590909 C140.970554,113.609091 136.845554,114.740909 133.845554,112.854545 C111.720554,99.2727273 77.9705538,95.1227273 51.7205538,103.045455 C48.3455538,104.177273 44.5955538,102.290909 43.8455538,98.8954545 C42.7205538,95.5 44.5955538,91.7272727 47.9705538,90.9727273 C77.9705538,81.9181818 115.095554,86.0681818 140.595554,101.913636 C143.970554,103.422727 144.720554,107.572727 142.845554,110.590909 L142.845554,110.590909 Z M143.970554,86.8227273 C117.345554,70.9772727 73.4705538,69.4681818 47.9705538,77.3909091 C43.8455538,78.5227273 39.7205538,76.2590909 38.2205538,72.1090909 C37.0955538,67.9590909 39.3455538,63.8090909 43.4705538,62.3 C72.7205538,53.2454545 121.095554,55.1318182 151.845554,73.2409091 C155.595554,75.5045455 156.720554,80.0318182 154.470554,83.8045455 C152.220554,87.9545455 147.345554,89.0863636 143.970554,86.8227273 L143.970554,86.8227273 Z" filter="url(#filter-3)"/><circle id="Finish" cx="96" cy="96" r="88" fill="url(#radialGradient-4)"/></g></g></svg>