<svg xmlns="http://www.w3.org/2000/svg" xmlns:svg="http://www.w3.org/2000/svg" xmlns:xlink="http://www.w3.org/1999/xlink" id="svg2" width="48" height="48" version="1.1"><defs id="defs4"><linearGradient id="linearGradient3876"><stop id="stop3878" offset="0" stop-color="#000" stop-opacity="1"/><stop id="stop3880" offset="1" stop-color="#000" stop-opacity="0"/></linearGradient><linearGradient id="linearGradient3846"><stop id="stop3848" offset="0" stop-color="#444" stop-opacity="1"/><stop id="stop3854" offset="1" stop-color="#666" stop-opacity="1"/></linearGradient><linearGradient id="linearGradient3923"><stop id="stop3925" offset="0" stop-color="#dc2600" stop-opacity="1"/><stop id="stop3927" offset="1" stop-color="#f45501" stop-opacity="1"/></linearGradient><linearGradient id="linearGradient3896"><stop id="stop3898" offset="0" stop-color="#dc2600" stop-opacity="1"/><stop id="stop3900" offset="1" stop-color="#f45501" stop-opacity="1"/></linearGradient><linearGradient id="linearGradient3817"><stop id="stop3819" offset="0" stop-color="#fef0ed" stop-opacity="1"/><stop id="stop3821" offset="1" stop-color="#fff5f4" stop-opacity="1"/></linearGradient><linearGradient id="linearGradient3797"><stop id="stop3799" offset="0" stop-color="#f23f07" stop-opacity="1"/><stop id="stop3801" offset="1" stop-color="#fb5f14" stop-opacity="1"/></linearGradient><linearGradient id="linearGradient3778"><stop id="stop3780" offset="0" stop-color="#000" stop-opacity="1"/><stop id="stop3782" offset="1" stop-color="#595959" stop-opacity="1"/></linearGradient><linearGradient id="linearGradient3803" x1="24" x2="24" y1="1050.362" y2="1006.362" gradientUnits="userSpaceOnUse" xlink:href="#linearGradient4524"/><linearGradient id="linearGradient3902" x1="16" x2="32" y1="1025.362" y2="1025.362" gradientUnits="userSpaceOnUse" xlink:href="#linearGradient3896"/><linearGradient id="linearGradient3864"><stop id="stop3866" offset="0" stop-color="#92567c" stop-opacity="1"/><stop id="stop3868" offset="1" stop-color="#423076" stop-opacity="1"/></linearGradient><linearGradient id="linearGradient3848"><stop id="stop3850" offset="0" stop-color="#ababab" stop-opacity="1"/><stop id="stop3852" offset="1" stop-color="#fefefe" stop-opacity="1"/></linearGradient><linearGradient id="linearGradient3805"><stop id="stop3807" offset="0" stop-color="#c4c4c4" stop-opacity="1"/><stop id="stop3809" offset="1" stop-color="#eee" stop-opacity="1"/></linearGradient><linearGradient id="linearGradient3821"><stop id="stop3823" offset="0" stop-color="#d6d6d6" stop-opacity="1"/><stop id="stop3825" offset="1" stop-color="#9e9e9e" stop-opacity="1"/></linearGradient><linearGradient id="linearGradient3782" x1="24" x2="24" y1="1050.362" y2="1006.362" gradientUnits="userSpaceOnUse" xlink:href="#linearGradient3776"/><linearGradient id="linearGradient3776"><stop id="stop3778" offset="0" stop-color="#dfe0e5" stop-opacity="1"/><stop id="stop3780-9" offset="1" stop-color="#ededed" stop-opacity="1"/></linearGradient><radialGradient id="radialGradient3855" cx="24" cy="42.5" r="24" fx="24" fy="42.5" gradientTransform="matrix(1,0,0,0.0625,0,39.84375)" gradientUnits="userSpaceOnUse" xlink:href="#linearGradient3849"/><linearGradient id="linearGradient3849"><stop id="stop3851" offset="0" stop-color="#000" stop-opacity="1"/><stop id="stop3853" offset="1" stop-color="#000" stop-opacity="0"/></linearGradient><radialGradient id="radialGradient3068" cx="24" cy="42.5" r="24" fx="24" fy="42.5" gradientTransform="matrix(1,0,0,0.0625,0,39.84375)" gradientUnits="userSpaceOnUse" xlink:href="#linearGradient3849"/><linearGradient id="linearGradient3882" x1="24" x2="24" y1="12" y2="18" gradientTransform="translate(38,1004.3622)" gradientUnits="userSpaceOnUse" xlink:href="#linearGradient3876"/><linearGradient id="linearGradient4530" x1="24" x2="24" y1="46" y2="2" gradientUnits="userSpaceOnUse" xlink:href="#linearGradient4524"/><linearGradient id="linearGradient4524"><stop id="stop4526" offset="0" stop-color="#036fea" stop-opacity="1"/><stop id="stop4528" offset="1" stop-color="#4ca0ff" stop-opacity="1"/></linearGradient><linearGradient id="linearGradient3138" x1="24" x2="24" y1="46" y2="2" gradientTransform="translate(94,1011.3622)" gradientUnits="userSpaceOnUse" xlink:href="#linearGradient4524"/><linearGradient id="linearGradient3826" x1="24" x2="24" y1="1050.362" y2="1006.362" gradientTransform="translate(-54,0)" gradientUnits="userSpaceOnUse" xlink:href="#linearGradient4524"/><linearGradient id="linearGradient4462" x1="25" x2="25" y1="22" y2="3" gradientTransform="matrix(1,0,0,-1,0,48)" gradientUnits="userSpaceOnUse" xlink:href="#linearGradient4456"/><linearGradient id="linearGradient4456"><stop id="stop4458" offset="0" stop-color="#fff" stop-opacity="1"/><stop id="stop4460" offset="1" stop-color="#fff" stop-opacity="0"/></linearGradient><linearGradient id="linearGradient4454" x1="24" x2="24" y1="22" y2="41" gradientTransform="matrix(1,0,0,-1,0,52)" gradientUnits="userSpaceOnUse" xlink:href="#linearGradient3876"/></defs><metadata id="metadata7"/><g id="layer4"><path id="path4288" fill="#000" fill-opacity="1" stroke="none" d="M 44.974609 36.5 C 44.857032 38.869279 43.91931 41.017673 42.433594 42.671875 C 42.205253 43.008967 41.917409 43.293717 41.583984 43.513672 C 39.824146 45.057062 37.524672 46 35 46 C 32.753608 46 30.687055 45.25051 29.017578 44 L 8 44 C 6.338 44 5 42.584019 5 40.824219 L 5 41.824219 C 5 43.584019 6.338 45 8 45 L 29.017578 45 C 30.687055 46.25051 32.753608 47 35 47 C 37.524672 47 39.824146 46.057062 41.583984 44.513672 C 41.917409 44.293717 42.205253 44.008967 42.433594 43.671875 C 44.023976 41.901137 45 39.567425 45 37 C 45 36.831033 44.982892 36.666911 44.974609 36.5 z" display="inline" opacity=".04"/><path id="path4283" fill="#000" fill-opacity="1" stroke="none" d="m 44.988281,35.25 c -0.06121,2.468218 -1.016628,4.709394 -2.554687,6.421875 -0.228341,0.337092 -0.516185,0.621842 -0.84961,0.841797 C 39.824146,44.057062 37.524672,45 35,45 32.753608,45 30.687055,44.25051 29.017578,43 L 8,43 C 6.338,43 5,41.584019 5,39.824219 l 0,0.5 C 5,42.084019 6.338,43.5 8,43.5 l 21.017578,0 c 1.669477,1.25051 3.73603,2 5.982422,2 2.524672,0 4.824146,-0.942938 6.583984,-2.486328 0.333425,-0.219955 0.621269,-0.504705 0.84961,-0.841797 C 44.023976,40.401137 45,38.067425 45,35.5 45,35.41553 44.9904,35.333965 44.98828,35.25 Z" display="inline" opacity=".16"/><path id="path4286" fill="#000" fill-opacity="1" stroke="none" d="m 44.988281,35.75 c -0.06121,2.468218 -1.016628,4.709394 -2.554687,6.421875 -0.228341,0.337092 -0.516185,0.621842 -0.84961,0.841797 C 39.824146,44.557062 37.524672,45.5 35,45.5 c -2.246392,0 -4.312945,-0.74949 -5.982422,-2 L 8,43.5 c -1.662,0 -3,-1.415981 -3,-3.175781 l 0,0.5 C 5,42.584019 6.338,44 8,44 l 21.017578,0 c 1.669477,1.25051 3.73603,2 5.982422,2 2.524672,0 4.824146,-0.942938 6.583984,-2.486328 0.333425,-0.219955 0.621269,-0.504705 0.84961,-0.841797 C 44.023976,40.901137 45,38.567425 45,36 45,35.91553 44.9904,35.833965 44.98828,35.75 Z" display="inline" opacity=".08"/></g><g id="layer1" transform="translate(0,-1004.3622)"><rect id="rect3053" width="4" height="7" x="13" y="-1017.362" fill="#eceff1" fill-opacity="1" stroke="none" transform="scale(1,-1)"/><path id="path3057" fill="#b0bec5" fill-opacity="1" stroke="none" d="m 13,1010.3622 22,0 -2.444444,-3 -17.111112,0 z"/><rect id="rect3858" width="4" height="7" x="31" y="-1017.362" fill="#eceff1" fill-opacity="1" stroke="none" transform="scale(1,-1)"/><path id="rect3815" fill="#eceff1" fill-opacity="1" stroke="none" d="m 5,1015.3622 0,28.8238 c 0,1.7598 1.338,3.1765 3,3.1765 l 32,0 c 1.662,0 3,-1.4167 3,-3.1765 l 0,-28.8238 z"/><path id="rect3831" fill="#eceff1" fill-opacity="1" stroke="none" d="m 15.4375,1007.3622 -2.4375,3 4,0 0,-3 z"/><path id="path3834" fill="#eceff1" fill-opacity="1" stroke="none" d="m 32.5625,1007.3622 2.4375,3 -4,0 0,-3 z"/></g><g id="layer2" opacity=".05"><path id="rect4343-5" fill="url(#linearGradient4462)" fill-opacity="1" stroke="none" d="m 7,43 34,0 c 1.108,0 2,-0.892 2,-2 L 43,27 5,27 5,41 c 0,1.108 0.892,2 2,2 z" display="inline" opacity="1"/><path id="path4438" fill="url(#linearGradient4454)" fill-opacity="1" stroke="none" d="M 43,11 43,27 5,27 5,11 Z" display="inline" opacity="1"/></g><g id="layer3"><path id="path3932" fill="#7e57c2" fill-opacity="1" stroke="none" d="m 35,25 c -5.522847,0 -10,4.4772 -10,10 0,5.5228 4.477153,10 10,10 5.522847,0 10,-4.4772 10,-10 0,-5.5228 -4.477153,-10 -10,-10 z" display="inline"/><path id="path10500-6" fill="#fff" fill-opacity="1" stroke="none" stroke-opacity="1" d="M 33.486328 29 L 33.353516 30.580078 C 32.847916 30.765701 32.377352 31.035165 31.962891 31.376953 L 30.513672 30.701172 L 29 33.298828 L 30.314453 34.205078 C 30.267873 34.467725 30.245331 34.733329 30.244141 35 C 30.244189 35.267567 30.26673 35.535133 30.3125 35.798828 L 29 36.701172 L 30.513672 39.298828 L 31.958984 38.623047 C 32.375098 38.963702 32.846674 39.232177 33.353516 39.416016 L 33.486328 41 L 36.513672 41 L 36.646484 39.419922 C 37.152084 39.234299 37.622648 38.964835 38.037109 38.623047 L 39.486328 39.298828 L 41 36.701172 L 39.683594 35.794922 C 39.730177 35.532275 39.754676 35.266671 39.755859 35 C 39.755811 34.732433 39.733267 34.464867 39.6875 34.201172 L 41 33.298828 L 39.486328 30.701172 L 38.041016 31.376953 C 37.624902 31.036298 37.153326 30.767823 36.646484 30.583984 L 36.513672 29 L 33.486328 29 z M 35 33 A 2 2 0 0 1 37 35 A 2 2 0 0 1 35 37 A 2 2 0 0 1 33 35 A 2 2 0 0 1 35 33 z" display="inline" enable-background="new" opacity="1"/></g></svg>