<svg xmlns="http://www.w3.org/2000/svg" xmlns:svg="http://www.w3.org/2000/svg" xmlns:xlink="http://www.w3.org/1999/xlink" id="svg2" width="48" height="48" version="1.1"><defs id="defs4"><linearGradient id="linearGradient4456"><stop id="stop4458" offset="0" stop-color="#fff" stop-opacity="1"/><stop id="stop4460" offset="1" stop-color="#fff" stop-opacity="0"/></linearGradient><linearGradient id="linearGradient4448"><stop id="stop4450" offset="0" stop-color="#000" stop-opacity="1"/><stop id="stop4452" offset="1" stop-color="#000" stop-opacity="0"/></linearGradient><linearGradient id="linearGradient3830"><stop id="stop3832" offset="0" stop-color="#3b3b3b" stop-opacity="1"/><stop id="stop3834" offset="1" stop-color="#1a1a1a" stop-opacity="1"/></linearGradient><linearGradient id="linearGradient3818"><stop id="stop3820" offset="0" stop-color="#dadad8" stop-opacity="1"/><stop id="stop3822" offset="1" stop-color="#efefef" stop-opacity="1"/></linearGradient><linearGradient id="linearGradient3956"><stop id="stop3958" offset="0" stop-color="#f8f4e1" stop-opacity="1"/><stop id="stop3960" offset="1" stop-color="#eae5c8" stop-opacity="1"/></linearGradient><linearGradient id="linearGradient3915"><stop id="stop3917" offset="0" stop-color="#f8f4e1" stop-opacity="1"/><stop id="stop3919" offset="1" stop-color="#ad9e57" stop-opacity="1"/></linearGradient><linearGradient id="linearGradient3861"><stop id="stop3863" offset="0" stop-color="#000" stop-opacity="1"/><stop id="stop3865" offset="1" stop-color="#000" stop-opacity="0"/></linearGradient><linearGradient id="linearGradient3844"><stop id="stop3846" offset="0" stop-color="#000" stop-opacity=".392"/><stop id="stop3848" offset="1" stop-color="#000" stop-opacity="0"/></linearGradient><linearGradient id="linearGradient3810"><stop id="stop3812" offset="0" stop-color="#f2c66f" stop-opacity="1"/><stop id="stop3814" offset="1" stop-color="#fbd68f" stop-opacity="1"/></linearGradient><linearGradient id="linearGradient3816" x1="24" x2="24" y1="1046.362" y2="1014.362" gradientUnits="userSpaceOnUse" xlink:href="#linearGradient3810"/><linearGradient id="linearGradient3856" x1="24" x2="24" y1="1046.362" y2="1014.362" gradientTransform="translate(0,-3)" gradientUnits="userSpaceOnUse" xlink:href="#linearGradient3810"/><linearGradient id="linearGradient3858" x1="24" x2="24" y1="1046.362" y2="1014.362" gradientTransform="translate(0,-1004.3622)" gradientUnits="userSpaceOnUse" xlink:href="#linearGradient3810"/><linearGradient id="linearGradient3867" x1="1.995" x2="46.005" y1="28.563" y2="28.563" gradientUnits="userSpaceOnUse" xlink:href="#linearGradient3861"/><linearGradient id="linearGradient3921" x1="35" x2="38" y1="8" y2="5" gradientUnits="userSpaceOnUse" xlink:href="#linearGradient3915"/><linearGradient id="linearGradient3933" x1="35" x2="38" y1="8" y2="5" gradientTransform="matrix(1.0436562,0,0,1.2222222,26.301501,1003.2511)" gradientUnits="userSpaceOnUse" xlink:href="#linearGradient3915"/><linearGradient id="linearGradient3018-5" x1="20" x2="20" y1="26" y2="13" gradientTransform="translate(0,0.9999922)" gradientUnits="userSpaceOnUse" xlink:href="#linearGradient3680-6-6-6-3-7"/><linearGradient id="linearGradient3680-6-6-6-3-7"><stop id="stop3682-4-6-1-3-7" offset="0" stop-color="#d2eecc" stop-opacity="1"/><stop id="stop3684-8-5-8-0-2" offset="1" stop-color="#ecffe7" stop-opacity="1"/></linearGradient><linearGradient id="linearGradient4454" x1="24" x2="24" y1="24" y2="45" gradientUnits="userSpaceOnUse" xlink:href="#linearGradient4448"/><linearGradient id="linearGradient4462" x1="25" x2="25" y1="24" y2="3" gradientUnits="userSpaceOnUse" xlink:href="#linearGradient4456"/></defs><metadata id="metadata7"/><g id="layer2"><path id="rect4407" fill="#37474f" fill-opacity="1" stroke="none" d="M 3 44 L 3 45 C 3 46.108 3.892 47 5 47 L 43 47 C 44.108 47 45 46.108 45 45 L 45 44 C 45 45.108 44.108 46 43 46 L 5 46 C 3.892 46 3 45.108 3 44 z" opacity=".04"/><path id="rect4400" fill="#000" fill-opacity="1" stroke="none" d="M 3 43.5 L 3 44 C 3 45.108 3.892 46 5 46 L 43 46 C 44.108 46 45 45.108 45 44 L 45 43.5 C 45 44.608 44.108 45.5 43 45.5 L 5 45.5 C 3.892 45.5 3 44.608 3 43.5 z" opacity=".08"/><path id="rect4362" fill="#000" fill-opacity="1" stroke="none" d="m 3,43 0,0.5 c 0,1.108 0.892,2 2,2 l 38,0 c 1.108,0 2,-0.892 2,-2 L 45,43 c 0,1.108 -0.892,2 -2,2 L 5,45 C 3.892,45 3,44.108 3,43 Z" opacity=".16"/></g><g id="layer1" transform="translate(0,-1004.3622)"><rect id="rect4343" width="42" height="42" x="3" y="1007.362" fill="#003642" fill-opacity="1" stroke="none" opacity=".8" rx="2" ry="2"/><path id="text3905-9" fill="#3bdb60" fill-opacity="1" fill-rule="nonzero" stroke="none" d="m 18,1021.3622 0,2 6,0 0,-2 z" color="#000" display="inline" enable-background="accumulate" font-family="Open Sans" font-size="14.312" font-stretch="normal" font-style="normal" font-variant="normal" font-weight="bold" letter-spacing="0" overflow="visible" visibility="visible" word-spacing="0" style="line-height:125%;-inkscape-font-specification:'Open Sans Bold';marker:none"/><path id="path4341" fill="#3bdb60" fill-opacity="1" fill-rule="evenodd" stroke="none" stroke-linecap="butt" stroke-linejoin="miter" stroke-opacity="1" stroke-width="1" d="m 10,1014.3622 0,2 4,2 -4,2 0,2 7,-4 z"/></g><g id="layer3" display="none" opacity=".05"><path id="rect4343-5" fill="url(#linearGradient4462)" fill-opacity="1" stroke="none" d="m 5,3 38,0 c 1.108,0 2,0.892 2,2 L 45,24 3,24 3,5 C 3,3.892 3.892,3 5,3 Z" opacity="1"/><path id="path4438" fill="url(#linearGradient4454)" fill-opacity="1" stroke="none" d="m 5,45 38,0 c 1.108,0 2,-0.892 2,-2 L 45,24 3,24 3,43 c 0,1.108 0.892,2 2,2 z" opacity="1"/></g></svg>