<svg xmlns="http://www.w3.org/2000/svg" xmlns:svg="http://www.w3.org/2000/svg" xmlns:xlink="http://www.w3.org/1999/xlink" id="svg2" width="192" height="192" version="1.1" viewBox="0 0 192 192"><defs id="defs4"><linearGradient id="linearGradient4194"><stop id="stop4196" offset="0" stop-color="#fff" stop-opacity="1"/><stop id="stop4198" offset="1" stop-color="#fff" stop-opacity="0"/></linearGradient><clipPath id="clipPath10430" clipPathUnits="userSpaceOnUse"><path id="path10432" d="m 1241.028,39.3409 224.537,0 0,178.031 -224.537,0 0,-178.031 z"/></clipPath><clipPath id="clipPath10438" clipPathUnits="userSpaceOnUse"><path id="path10440" d="m 1260.156,213.3477 0,-170.2268 191.3337,0 0,170.2268"/></clipPath><radialGradient id="radialGradient4200" cx="20" cy="880.362" r="76" fx="20" fy="880.362" gradientTransform="matrix(2.6607556e-7,1.9999998,-2.0000002,2.6629458e-7,1780.725,840.36195)" gradientUnits="userSpaceOnUse" xlink:href="#linearGradient4194"/><filter id="filter5248" color-interpolation-filters="sRGB"><feFlood id="feFlood5250" flood-color="#000" flood-opacity=".2" result="flood"/><feComposite id="feComposite5252" in="flood" in2="SourceGraphic" operator="in" result="composite1"/><feGaussianBlur id="feGaussianBlur5254" in="composite1" result="blur" stdDeviation="2"/><feOffset id="feOffset5256" dx="0" dy="4" result="offset"/><feComposite id="feComposite5258" in="SourceGraphic" in2="offset" operator="over" result="fbSourceGraphic"/><feColorMatrix id="feColorMatrix4199" in="fbSourceGraphic" result="fbSourceGraphicAlpha" values="0 0 0 -1 0 0 0 0 -1 0 0 0 0 -1 0 0 0 0 1 0"/><feFlood id="feFlood4201" flood-color="#000" flood-opacity=".2" in="fbSourceGraphic" result="flood"/><feComposite id="feComposite4203" in="flood" in2="fbSourceGraphic" operator="in" result="composite1"/><feGaussianBlur id="feGaussianBlur4205" in="composite1" result="blur" stdDeviation="2"/><feOffset id="feOffset4207" dx="0" dy="0" result="offset"/><feComposite id="feComposite4209" in="fbSourceGraphic" in2="offset" operator="over" result="composite2"/></filter></defs><metadata id="metadata7"/><g id="layer2"><g id="g7391" filter="url(#filter5248)"><path id="path4809" fill="#3e2723" fill-opacity="1" fill-rule="evenodd" stroke="none" stroke-linecap="butt" stroke-linejoin="miter" stroke-opacity="1" stroke-width="1" d="M 82 75 L 82 82 L 89 82 L 89 75 L 82 75 z M 103 75 L 103 82 L 110 82 L 110 75 L 103 75 z"/><path id="path4813" fill="#a1887f" fill-opacity="1" fill-rule="evenodd" stroke="none" stroke-linecap="butt" stroke-linejoin="miter" stroke-opacity="1" stroke-width="1" d="m 89,82 14,0 0,-7 -14,0 z"/><path id="path7382" fill="#f44336" fill-opacity="1" fill-rule="evenodd" stroke="none" stroke-linecap="butt" stroke-linejoin="miter" stroke-opacity="1" stroke-width="1" d="m 20,82 152,0 0,78 c 0,6 -6,12 -12,12 l -128,0 c -6,0 -12,-6 -12,-12 z"/><path id="path4817" fill="#d7ccc8" fill-opacity="1" fill-rule="evenodd" stroke="none" stroke-linecap="butt" stroke-linejoin="miter" stroke-opacity="1" stroke-width="1" d="M 89 61 L 89 68 L 75 68 L 75 75 L 117 75 L 117 68 L 103 68 L 103 61 L 89 61 z M 117 75 L 117 82 L 124 82 L 124 75 L 117 75 z M 75 75 L 68 75 L 68 82 L 75 82 L 75 75 z M 89 82 L 89 89 L 103 89 L 103 82 L 89 82 z"/><path id="path4825" fill="#fff" fill-opacity="1" fill-rule="evenodd" stroke="none" stroke-linecap="butt" stroke-linejoin="miter" stroke-opacity="1" stroke-width="1" d="M 75 75 L 75 82 L 82 82 L 82 75 L 75 75 z M 110 75 L 110 82 L 117 82 L 117 75 L 110 75 z"/><path id="path4865" fill="#d32f2f" fill-opacity="1" fill-rule="evenodd" stroke="none" stroke-linecap="butt" stroke-linejoin="miter" stroke-opacity="1" stroke-width="1" d="m 33,82 0,7 -13,0 0,14 13,0 0,14 -13,0 0,14 13,0 0,14 -13,0 0,14 13,0 0,13 14,0 0,-13 14,0 0,13 14,0 0,-13 14,0 0,13 14,0 0,-13 14,0 0,13 14,0 0,-13 14,0 0,13 14,0 0,-13 13,0 0,-14 -13,0 0,-14 13,0 0,-14 -13,0 0,-14 12.82227,0 L 172,89 l -13,0 0,-7 -14,0 0,7 -98,0 0,-7 z m 14,21 14,0 0,14 -14,0 z m 28,0 42,0 0,14 -42,0 z m 56,0 14,0 0,14 -14,0 z m -84,28 14,0 0,14 -14,0 z m 28,0 14,0 0,14 -14,0 z m 28,0 14,0 0,14.06738 L 103,145 Z m 28,0 14,0 0,14 -14,0 z"/><path id="path4829" fill="#bcaaa4" fill-opacity="1" fill-rule="evenodd" stroke="none" stroke-linecap="butt" stroke-linejoin="miter" stroke-opacity="1" stroke-width="1" d="m 82,89 0,7 28,0 0,-7 z"/><path id="path4831" fill="#5d4037" fill-opacity="1" fill-rule="evenodd" stroke="none" stroke-linecap="butt" stroke-linejoin="miter" stroke-opacity="1" stroke-width="1" d="M 75 61 L 75 68 L 89 68 L 89 61 L 75 61 z M 103 61 L 103 68 L 117 68 L 117 61 L 103 61 z M 68 82 L 68 110 L 75 110 L 75 117 L 117 117 L 117 110 L 124 110 L 124 82 L 103 82 L 103 89 L 110 89 L 110 96 L 82 96 L 82 89 L 89 89 L 89 82 L 68 82 z"/><path id="path4837" fill="#0d47a1" fill-opacity="1" fill-rule="evenodd" stroke="none" stroke-linecap="butt" stroke-linejoin="miter" stroke-opacity="1" stroke-width="1" d="m 75,61 0,-7 7,0 0,-7 28,0 0,7 7,0 0,7 z"/><path id="path4839" fill="#000" fill-opacity="1" fill-rule="evenodd" stroke="none" stroke-linecap="butt" stroke-linejoin="miter" stroke-opacity="1" stroke-width="1" d="M 82 40 L 82 47 L 110 47 L 110 40 L 82 40 z M 110 47 L 110 54 L 117 54 L 117 47 L 110 47 z M 117 54 L 117 75 L 124 75 L 124 110 L 131 110 L 131 82 L 172 82 L 172 75 L 131 75 L 131 68 L 124 68 L 124 54 L 117 54 z M 124 110 L 117 110 L 117 117 L 124 117 L 124 110 z M 117 117 L 75 117 L 75 124 L 117 124 L 117 117 z M 75 117 L 75 110 L 68 110 L 68 117 L 75 117 z M 68 110 L 68 75 L 75 75 L 75 54 L 68 54 L 68 68 L 61 68 L 61 75 L 20 75 L 20 82 L 61 82 L 61 110 L 68 110 z M 75 54 L 82 54 L 82 47 L 75 47 L 75 54 z"/><path id="path4881" fill="#b71c1c" fill-opacity="1" fill-rule="evenodd" stroke="none" stroke-linecap="butt" stroke-linejoin="miter" stroke-opacity="1" stroke-width="1" d="m 47,89 0,14 -14,0 0,-14 z"/><path id="path4883" fill="#b71c1c" fill-opacity="1" fill-rule="evenodd" stroke="none" stroke-linecap="butt" stroke-linejoin="miter" stroke-opacity="1" stroke-width="1" d="m 47,117 0,14 -14,0 0,-14 z"/><path id="path4885" fill="#b71c1c" fill-opacity="1" fill-rule="evenodd" stroke="none" stroke-linecap="butt" stroke-linejoin="miter" stroke-opacity="1" stroke-width="1" d="m 47,145.00004 0,14 -14,0 0,-14 z"/><path id="path4887" fill="#b71c1c" fill-opacity="1" fill-rule="evenodd" stroke="none" stroke-linecap="butt" stroke-linejoin="miter" stroke-opacity="1" stroke-width="1" d="m 75,145.00004 0,14 -14,0 0,-14 z"/><path id="path4889" fill="#b71c1c" fill-opacity="1" fill-rule="evenodd" stroke="none" stroke-linecap="butt" stroke-linejoin="miter" stroke-opacity="1" stroke-width="1" d="m 131,145.00004 0,14 -14,0 0,-14 z"/><path id="path4891" fill="#b71c1c" fill-opacity="1" fill-rule="evenodd" stroke="none" stroke-linecap="butt" stroke-linejoin="miter" stroke-opacity="1" stroke-width="1" d="m 75,117 0,14 -14,0 0,-14 z"/><path id="path4909" fill="#b71c1c" fill-opacity="1" fill-rule="evenodd" stroke="none" stroke-linecap="butt" stroke-linejoin="miter" stroke-opacity="1" stroke-width="1" d="m 103,131 -14,0 0,-7 14,0 z"/><path id="path4927" fill="#b71c1c" fill-opacity="1" fill-rule="evenodd" stroke="none" stroke-linecap="butt" stroke-linejoin="miter" stroke-opacity="1" stroke-width="1" d="m 131,117.00004 0,14 -14,0 0,-14 z"/><path id="path4937" fill="#b71c1c" fill-opacity="1" fill-rule="evenodd" stroke="none" stroke-linecap="butt" stroke-linejoin="miter" stroke-opacity="1" stroke-width="1" d="m 159,145.00004 0,14 -14,0 0,-14 z"/><path id="path4943" fill="#b71c1c" fill-opacity="1" fill-rule="evenodd" stroke="none" stroke-linecap="butt" stroke-linejoin="miter" stroke-opacity="1" stroke-width="1" d="m 159,117.00004 0,14 -14,0 0,-14 z"/><path id="path4945" fill="#b71c1c" fill-opacity="1" fill-rule="evenodd" stroke="none" stroke-linecap="butt" stroke-linejoin="miter" stroke-opacity="1" stroke-width="1" d="m 159,89.00004 0,14 -14,0 0,-14 z"/><path id="path4985" fill="#b71c1c" fill-opacity="1" fill-rule="evenodd" stroke="none" stroke-linecap="butt" stroke-linejoin="miter" stroke-opacity="1" stroke-width="1" d="m 89,145.00004 0,7 7,0 0,7 7,0 0,-14 z"/><path id="path4987" fill="#90a4ae" fill-opacity="1" fill-rule="evenodd" stroke="none" stroke-linecap="butt" stroke-linejoin="miter" stroke-opacity="1" stroke-width="1" d="m 20,75 41,0 0,-7 7,0 0,-14 7,0 0,-7 7,0 0,-7 28,0 0,7 7,0 0,7 7,0 0,14 7,0 0,7 41,0 0,-43 c 0,-6 -6,-12 -12,-12 L 32,20 c -6,0 -12,6 -12,12 z"/><path id="path4989" fill="#ff8f00" fill-opacity="1" fill-rule="evenodd" stroke="none" stroke-linecap="butt" stroke-linejoin="miter" stroke-opacity="1" stroke-width="1" d="M 89 131 L 89 138 L 96 138 L 96 131 L 89 131 z M 89 152 L 89 159 L 96 159 L 96 152 L 89 152 z"/></g></g><g id="layer3"><path id="path4180" fill="#fff" fill-opacity="1" fill-rule="evenodd" stroke="none" stroke-linecap="butt" stroke-linejoin="miter" stroke-opacity="1" stroke-width="1" d="m 32,20 c -6,0 -12,6 -12,12 l 0,1 c 0,-6 6,-12 12,-12 l 128,0 c 6,0 12,6 12,12 l 0,-1 c 0,-6 -6,-12 -12,-12 L 32,20 Z" opacity=".1"/><path id="path4186" fill="#3e2723" fill-opacity="1" fill-rule="evenodd" stroke="none" stroke-linecap="butt" stroke-linejoin="miter" stroke-opacity="1" stroke-width="1" d="m 20,159 0,1 c 0,6 6,12 12,12 l 128,0 c 6,0 12,-6 12,-12 l 0,-1 c 0,6 -6,12 -12,12 l -128,0 c -6,0 -12,-6 -12,-12 z" opacity=".2"/><path id="path4192" fill="url(#radialGradient4200)" fill-opacity="1" fill-rule="evenodd" stroke="none" stroke-dasharray="none" stroke-linecap="butt" stroke-linejoin="miter" stroke-miterlimit="4" stroke-opacity="1" stroke-width=".1" d="m 32,880.36216 128,0 c 6,0 12,6 12,12 l 0,128.00004 c 0,6 -6,12 -12,12 l -128,0 c -6,0 -12,-6 -12,-12 l 0,-128.00004 c 0,-6 6,-12 12,-12 z" opacity=".1" transform="translate(0,-860.36216)"/></g></svg>