<svg xmlns="http://www.w3.org/2000/svg" xmlns:svg="http://www.w3.org/2000/svg" xmlns:xlink="http://www.w3.org/1999/xlink" id="svg2" width="48" height="48" version="1.1"><defs id="defs4"><linearGradient id="linearGradient4188"><stop id="stop4190" offset="0" stop-color="#f59f3a" stop-opacity="1"/><stop id="stop4192" offset="1" stop-color="#ffab46" stop-opacity="1"/></linearGradient><linearGradient id="linearGradient4112"><stop id="stop4114" offset="0" stop-color="#f77c13" stop-opacity="1"/><stop id="stop4116" offset="1" stop-color="#fb9b49" stop-opacity="1"/></linearGradient><linearGradient id="linearGradient3929"><stop id="stop3931" offset="0" stop-color="#313131" stop-opacity="1"/><stop id="stop3933" offset="1" stop-color="#555" stop-opacity="1"/></linearGradient><linearGradient id="linearGradient3757"><stop id="stop3759" offset="0" stop-color="#0f88de" stop-opacity="1"/><stop id="stop3761" offset="1" stop-color="#81bffa" stop-opacity="1"/></linearGradient><linearGradient id="linearGradient3935" x1="27" x2="27" y1="47" y2="2" gradientUnits="userSpaceOnUse" xlink:href="#linearGradient3929"/><linearGradient id="linearGradient4530" x1="24" x2="24" y1="46" y2="2" gradientUnits="userSpaceOnUse" xlink:href="#linearGradient4524"/><linearGradient id="linearGradient4524"><stop id="stop4526" offset="0" stop-color="#ca7f4f" stop-opacity="1"/><stop id="stop4528" offset="1" stop-color="#d99356" stop-opacity="1"/></linearGradient><linearGradient id="linearGradient5893" x1="29.2" x2="23.8" y1="14.867" y2="40.067" gradientUnits="userSpaceOnUse" xlink:href="#linearGradient5847"/><linearGradient id="linearGradient5847"><stop id="stop5849" offset="0" stop-color="#fff" stop-opacity="1"/><stop id="stop5859" offset=".217" stop-color="#d22d2d" stop-opacity="1"/><stop id="stop6761" offset=".391" stop-color="#e81670" stop-opacity="1"/><stop id="stop5857" offset=".478" stop-color="#cfcbce" stop-opacity="1"/><stop id="stop6769" offset=".596" stop-color="#4db7f4" stop-opacity="1"/><stop id="stop5855" offset=".739" stop-color="#14b560" stop-opacity="1"/><stop id="stop5851" offset="1" stop-color="#fff" stop-opacity="1"/></linearGradient><linearGradient id="linearGradient3152" x1="29.2" x2="23.8" y1="14.867" y2="40.067" gradientUnits="userSpaceOnUse" xlink:href="#linearGradient5847"/><linearGradient id="linearGradient5893-4" x1="29.2" x2="23.8" y1="14.867" y2="40.067" gradientTransform="matrix(1.1111111,0,0,1.0714286,-5.4447011,-4.92857)" gradientUnits="userSpaceOnUse" xlink:href="#linearGradient5847-0"/><linearGradient id="linearGradient5847-0"><stop id="stop5849-8" offset="0" stop-color="#fff" stop-opacity="1"/><stop id="stop5859-9" offset=".217" stop-color="#d22d2d" stop-opacity="1"/><stop id="stop6761-5" offset=".391" stop-color="#e81670" stop-opacity="1"/><stop id="stop5857-2" offset=".478" stop-color="#cfcbce" stop-opacity="1"/><stop id="stop6769-3" offset=".596" stop-color="#4db7f4" stop-opacity="1"/><stop id="stop5855-0" offset=".739" stop-color="#14b560" stop-opacity="1"/><stop id="stop5851-1" offset="1" stop-color="#fff" stop-opacity="1"/></linearGradient><linearGradient id="linearGradient4559" x1="17.696" x2="12.946" y1="1018.596" y2="1015.104" gradientTransform="matrix(0.9996487,0,0,1.0125088,0.00416191,-11.777303)" gradientUnits="userSpaceOnUse" xlink:href="#linearGradient4561"/><linearGradient id="linearGradient4561"><stop id="stop4563" offset="0" stop-color="#ffe900" stop-opacity="1"/><stop id="stop4565" offset="1" stop-color="#fffd84" stop-opacity=".256"/></linearGradient><linearGradient id="linearGradient5847-7"><stop id="stop5849-9" offset="0" stop-color="#fff" stop-opacity="1"/><stop id="stop5859-6" offset=".217" stop-color="#d22d2d" stop-opacity="1"/><stop id="stop6761-0" offset=".391" stop-color="#e81670" stop-opacity="1"/><stop id="stop5857-5" offset=".478" stop-color="#cfcbce" stop-opacity="1"/><stop id="stop6769-0" offset=".596" stop-color="#4db7f4" stop-opacity="1"/><stop id="stop5855-6" offset=".739" stop-color="#14b560" stop-opacity="1"/><stop id="stop5851-3" offset="1" stop-color="#fff" stop-opacity="1"/></linearGradient></defs><metadata id="metadata7"/><g id="layer1" transform="translate(0,-1004.3622)"><g id="g3871" fill="#000" fill-opacity="1" opacity=".15" transform="translate(0,1)"><path id="path3865" fill="#000" fill-opacity="1" stroke="none" d="M 18.28125,2 C 11.981113,2 6.875,7.16375 6.875,13.53125 c 0,0.2276 0.018385,0.4633 0.03125,0.6875 C 4.0181588,15.48715 2,18.3721 2,21.75 c 0,3.799164 2.5358202,7.018334 6,7.96875 L 8,22 l 12,0 0,8 5.75,0 8.25,-9 7.46875,8.125 C 44.149723,27.769451 46,24.973722 46,21.75 c 0,-3.4529 -2.11083,-6.4012 -5.09375,-7.625 -0.852037,-4.1065 -4.433674,-7.1875 -8.75,-7.1875 -1.406205,0 -2.753072,0.32295 -3.9375,0.90625 C 26.258915,4.34965 22.539076,2 18.28125,2 z" transform="translate(0,1004.3622)"/><path id="path3867" fill="#000" fill-opacity="1" stroke="none" d="m 14,1050.3622 -8,-9 4,0 0,-13 8,0 0,13 4,0 z"/><path id="path3869" fill="#000" fill-opacity="1" stroke="none" d="m 34,1028.3622 -8,9 4,0 0,13 8,0 0,-13 4,0 z"/></g><path id="cloud" fill="#5c6bcf" fill-opacity="1" stroke="none" d="M 18.28125 2 C 11.981113 2 6.875 7.16375 6.875 13.53125 C 6.875 13.75885 6.893385 13.99455 6.90625 14.21875 C 4.0181588 15.48715 2 18.3721 2 21.75 C 2 25.549164 4.5358202 28.768334 8 29.71875 L 8 22 L 20 22 L 20 30 L 25.75 30 L 34 21 L 41.46875 29.125 C 44.149723 27.769451 46 24.973722 46 21.75 C 46 18.2971 43.88917 15.3488 40.90625 14.125 C 40.054213 10.0185 36.472576 6.9375 32.15625 6.9375 C 30.750045 6.9375 29.403178 7.26045 28.21875 7.84375 C 26.258915 4.34965 22.539076 2 18.28125 2 z" transform="translate(0,1004.3622)"/><path id="path3827" fill="#03a9f4" fill-opacity="1" stroke="none" d="m 14,1050.3622 -8,-9 4,0 0,-13 8,0 0,13 4,0 z"/><path id="path3859" fill="#72d162" fill-opacity="1" stroke="none" d="m 34,1028.3622 -8,9 4,0 0,13 8,0 0,-13 4,0 z"/></g></svg>