<svg xmlns="http://www.w3.org/2000/svg" xmlns:svg="http://www.w3.org/2000/svg" xmlns:xlink="http://www.w3.org/1999/xlink" id="svg2" width="48" height="48" version="1.1"><defs id="defs4"><linearGradient id="linearGradient4241"><stop id="stop4243" offset="0" stop-color="#000" stop-opacity="1"/><stop id="stop4245" offset="1" stop-color="#000" stop-opacity="0"/></linearGradient><linearGradient id="linearGradient4233"><stop id="stop4235" offset="0" stop-color="#000" stop-opacity="1"/><stop id="stop4237" offset="1" stop-color="#000" stop-opacity="0"/></linearGradient><linearGradient id="linearGradient3837"><stop id="stop3839" offset="0" stop-color="#d6d6d6" stop-opacity="1"/><stop id="stop3841" offset="1" stop-color="#ededed" stop-opacity="1"/></linearGradient><linearGradient id="linearGradient3865"><stop id="stop3867" offset="0" stop-color="#eac643" stop-opacity="1"/><stop id="stop3869" offset="1" stop-color="#f3d769" stop-opacity="1"/></linearGradient><linearGradient id="linearGradient3857"><stop id="stop3859" offset="0" stop-color="#e3a309" stop-opacity="1"/><stop id="stop3861" offset="1" stop-color="#f0b70b" stop-opacity="1"/></linearGradient><linearGradient id="linearGradient3846"><stop id="stop3849" offset="0" stop-color="#000" stop-opacity="1"/><stop id="stop3852" offset="1" stop-color="#000" stop-opacity="0"/></linearGradient><linearGradient id="linearGradient3830"><stop id="stop3832" offset="0" stop-color="#3b3b3b" stop-opacity="1"/><stop id="stop3834" offset="1" stop-color="#1a1a1a" stop-opacity="1"/></linearGradient><linearGradient id="linearGradient3818"><stop id="stop3820" offset="0" stop-color="#dadad8" stop-opacity="1"/><stop id="stop3822" offset="1" stop-color="#efefef" stop-opacity="1"/></linearGradient><linearGradient id="linearGradient3956"><stop id="stop3958" offset="0" stop-color="#f8f4e1" stop-opacity="1"/><stop id="stop3960" offset="1" stop-color="#eae5c8" stop-opacity="1"/></linearGradient><linearGradient id="linearGradient3915"><stop id="stop3917" offset="0" stop-color="#f8f4e1" stop-opacity="1"/><stop id="stop3919" offset="1" stop-color="#ad9e57" stop-opacity="1"/></linearGradient><linearGradient id="linearGradient3861"><stop id="stop3863" offset="0" stop-color="#000" stop-opacity="1"/><stop id="stop3865" offset="1" stop-color="#000" stop-opacity="0"/></linearGradient><linearGradient id="linearGradient3844"><stop id="stop3846" offset="0" stop-color="#000" stop-opacity=".392"/><stop id="stop3848" offset="1" stop-color="#000" stop-opacity="0"/></linearGradient><linearGradient id="linearGradient3810"><stop id="stop3812" offset="0" stop-color="#f2c66f" stop-opacity="1"/><stop id="stop3814" offset="1" stop-color="#fbd68f" stop-opacity="1"/></linearGradient><linearGradient id="linearGradient3816" x1="24" x2="24" y1="1046.362" y2="1014.362" gradientUnits="userSpaceOnUse" xlink:href="#linearGradient3810"/><linearGradient id="linearGradient3856" x1="24" x2="24" y1="1046.362" y2="1014.362" gradientTransform="translate(0,-3)" gradientUnits="userSpaceOnUse" xlink:href="#linearGradient3810"/><linearGradient id="linearGradient3858" x1="24" x2="24" y1="1046.362" y2="1014.362" gradientTransform="translate(0,-1004.3622)" gradientUnits="userSpaceOnUse" xlink:href="#linearGradient3810"/><linearGradient id="linearGradient3867" x1="1.995" x2="46.005" y1="28.563" y2="28.563" gradientUnits="userSpaceOnUse" xlink:href="#linearGradient3861"/><linearGradient id="linearGradient3921" x1="35" x2="38" y1="8" y2="5" gradientUnits="userSpaceOnUse" xlink:href="#linearGradient3915"/><linearGradient id="linearGradient3933" x1="35" x2="38" y1="8" y2="5" gradientTransform="matrix(1.0436562,0,0,1.2222222,26.301501,1003.2511)" gradientUnits="userSpaceOnUse" xlink:href="#linearGradient3915"/><linearGradient id="linearGradient3018-5" x1="20" x2="20" y1="26" y2="13" gradientTransform="translate(0,0.9999922)" gradientUnits="userSpaceOnUse" xlink:href="#linearGradient3680-6-6-6-3-7"/><linearGradient id="linearGradient3680-6-6-6-3-7"><stop id="stop3682-4-6-1-3-7" offset="0" stop-color="#d2eecc" stop-opacity="1"/><stop id="stop3684-8-5-8-0-2" offset="1" stop-color="#ecffe7" stop-opacity="1"/></linearGradient><linearGradient id="linearGradient3854" x1="23" x2="23" y1="12" y2="15" gradientTransform="translate(0,1006.3622)" gradientUnits="userSpaceOnUse" xlink:href="#linearGradient3846"/><linearGradient id="linearGradient4239" x1="25" x2="31" y1="1023.362" y2="1029.362" gradientUnits="userSpaceOnUse" xlink:href="#linearGradient4233"/><linearGradient id="linearGradient4247" x1="25" x2="46" y1="1023.362" y2="1038.362" gradientUnits="userSpaceOnUse" xlink:href="#linearGradient4241"/></defs><metadata id="metadata7"/><g id="layer2"><path id="rect4258" fill="#000" fill-opacity="1" stroke="none" d="m 4,41 0,1 c 0,1.108 0.892,2 2,2 l 38,0 c 1.108,0 2,-0.892 2,-2 l 0,-1 c 0,1.108 -0.892,2 -2,2 L 6,43 C 4.892,43 4,42.108 4,41 Z" opacity=".04"/><path id="rect4253" fill="#000" fill-opacity="1" stroke="none" d="m 4,40 0,0.5 c 0,1.108 0.892,2 2,2 l 38,0 c 1.108,0 2,-0.892 2,-2 L 46,40 c 0,1.108 -0.892,2 -2,2 L 6,42 C 4.892,42 4,41.108 4,40 Z" opacity=".16"/><path id="path4256" fill="#000" fill-opacity="1" stroke="none" d="M 4,40.5 4,41 c 0,1.108 0.892,2 2,2 l 38,0 c 1.108,0 2,-0.892 2,-2 l 0,-0.5 c 0,1.108 -0.892,2 -2,2 l -38,0 c -1.108,0 -2,-0.892 -2,-2 z" opacity=".08"/></g><g id="layer1" transform="translate(0,-1004.3622)"><rect id="rect3043" width="42" height="38" x="4" y="1008.362" fill="#263238" fill-opacity="1" stroke="none" rx="2" ry="2"/><path id="rect3832" fill="#eceff1" fill-opacity="1" stroke="none" d="m 4,34 0,6 c 0,1.108 0.892,2 2,2 l 38,0 c 1.108,0 2.35038,-0.948859 2,-2 l 0,-6 z" transform="translate(0,1004.3622)"/><path id="path4227" fill="url(#linearGradient4247)" fill-opacity="1" fill-rule="evenodd" stroke="none" stroke-linecap="butt" stroke-linejoin="miter" stroke-opacity="1" stroke-width="1" d="m 15,1028.3622 10,-6 9,-7 12,8 0,15 -21,0 z" opacity=".15"/><rect id="rect4196" width="20" height="14" x="15" y="1015.362" fill="#546e7a" fill-opacity="1" stroke="none" stroke-dasharray="none" stroke-miterlimit="4" stroke-opacity="1" stroke-width=".5" opacity="1" rx="1" ry="1"/><path id="path3856" fill="#eceff1" fill-opacity="1" stroke="none" d="m 22,1019.3622 0,6 6,-3 z"/><rect id="rect3863" width="36" height="2" x="7" y="1041.362" fill="#b0bec5" fill-opacity="1" stroke="none" rx="1" ry="1"/><rect id="rect4194" width="20" height="2" x="7" y="1041.362" fill="#ff4d4d" fill-opacity="1" stroke="none" rx="1" ry="1"/><path id="path4229" fill="url(#linearGradient4239)" fill-opacity="1" fill-rule="evenodd" stroke="none" stroke-linecap="butt" stroke-linejoin="miter" stroke-opacity="1" stroke-width="1" d="m 22,1025.3622 4,4 9,0 -7,-7 z" opacity=".15"/></g></svg>