<svg xmlns="http://www.w3.org/2000/svg" xmlns:xlink="http://www.w3.org/1999/xlink" width="192" height="192" version="1.1" viewBox="0 0 192 192"><title>MD App Icon</title><desc>Created with Sketch.</desc><defs><filter id="filter-1" width="200%" height="200%" x="-50%" y="-50%" filterUnits="objectBoundingBox"><feOffset dx="0" dy="4" in="SourceAlpha" result="shadowOffsetOuter1"/><feGaussianBlur in="shadowOffsetOuter1" result="shadowBlurOuter1" stdDeviation="2"/><feColorMatrix in="shadowBlurOuter1" result="shadowMatrixOuter1" type="matrix" values="0 0 0 0 0.243137255 0 0 0 0 0.152941176 0 0 0 0 0.137254902 0 0 0 0.139334239 0"/><feOffset dx="0" dy="1" in="SourceAlpha" result="shadowOffsetInner1"/><feGaussianBlur in="shadowOffsetInner1" result="shadowBlurInner1" stdDeviation="0"/><feComposite in="shadowBlurInner1" in2="SourceAlpha" k2="-1" k3="1" operator="arithmetic" result="shadowInnerInner1"/><feColorMatrix in="shadowInnerInner1" result="shadowMatrixInner1" type="matrix" values="0 0 0 0 1 0 0 0 0 1 0 0 0 0 1 0 0 0 0.14 0"/><feOffset dx="0" dy="-1" in="SourceAlpha" result="shadowOffsetInner2"/><feGaussianBlur in="shadowOffsetInner2" result="shadowBlurInner2" stdDeviation="0"/><feComposite in="shadowBlurInner2" in2="SourceAlpha" k2="-1" k3="1" operator="arithmetic" result="shadowInnerInner2"/><feColorMatrix in="shadowInnerInner2" result="shadowMatrixInner2" type="matrix" values="0 0 0 0 0.243137255 0 0 0 0 0.152941176 0 0 0 0 0.137254902 0 0 0 0.14 0"/><feMerge><feMergeNode in="shadowMatrixOuter1"/><feMergeNode in="SourceGraphic"/><feMergeNode in="shadowMatrixInner1"/><feMergeNode in="shadowMatrixInner2"/></feMerge></filter><path id="path-2" d="M152,11.9906395 C152,5.36839215 146.634886,0 140.009361,0 L11.9906395,0 C5.36839215,0 0,5.36511358 0,11.9906395 L0,140.009361 C0,146.631608 5.36511358,152 11.9906395,152 L140.009361,152 C146.631608,152 152,146.634886 152,140.009361 L152,11.9906395 Z"/><filter id="filter-4" width="200%" height="200%" x="-50%" y="-50%" filterUnits="objectBoundingBox"><feOffset dx="0" dy="4" in="SourceAlpha" result="shadowOffsetOuter1"/><feGaussianBlur in="shadowOffsetOuter1" result="shadowBlurOuter1" stdDeviation="2"/><feColorMatrix in="shadowBlurOuter1" result="shadowMatrixOuter1" type="matrix" values="0 0 0 0 0.243137255 0 0 0 0 0.152941176 0 0 0 0 0.137254902 0 0 0 0.141533628 0"/><feOffset dx="0" dy="1" in="SourceAlpha" result="shadowOffsetOuter2"/><feGaussianBlur in="shadowOffsetOuter2" result="shadowBlurOuter2" stdDeviation="0"/><feColorMatrix in="shadowBlurOuter2" result="shadowMatrixOuter2" type="matrix" values="0 0 0 0 0.243137255 0 0 0 0 0.152941176 0 0 0 0 0.137254902 0 0 0 0.142028986 0"/><feMerge><feMergeNode in="shadowMatrixOuter1"/><feMergeNode in="shadowMatrixOuter2"/><feMergeNode in="SourceGraphic"/></feMerge></filter><filter id="filter-5" width="200%" height="200%" x="-50%" y="-50%" filterUnits="objectBoundingBox"><feOffset dx="0" dy="4" in="SourceAlpha" result="shadowOffsetOuter1"/><feGaussianBlur in="shadowOffsetOuter1" result="shadowBlurOuter1" stdDeviation="2"/><feColorMatrix in="shadowBlurOuter1" result="shadowMatrixOuter1" type="matrix" values="0 0 0 0 0.243137255 0 0 0 0 0.152941176 0 0 0 0 0.137254902 0 0 0 0.143396173 0"/><feOffset dx="0" dy="1" in="SourceAlpha" result="shadowOffsetOuter2"/><feGaussianBlur in="shadowOffsetOuter2" result="shadowBlurOuter2" stdDeviation="0"/><feColorMatrix in="shadowBlurOuter2" result="shadowMatrixOuter2" type="matrix" values="0 0 0 0 0.243137255 0 0 0 0 0.152941176 0 0 0 0 0.137254902 0 0 0 0.140622169 0"/><feOffset dx="0" dy="1" in="SourceAlpha" result="shadowOffsetInner1"/><feGaussianBlur in="shadowOffsetInner1" result="shadowBlurInner1" stdDeviation="0"/><feComposite in="shadowBlurInner1" in2="SourceAlpha" k2="-1" k3="1" operator="arithmetic" result="shadowInnerInner1"/><feColorMatrix in="shadowInnerInner1" result="shadowMatrixInner1" type="matrix" values="0 0 0 0 1 0 0 0 0 1 0 0 0 0 1 0 0 0 0.279025136 0"/><feMerge><feMergeNode in="shadowMatrixOuter1"/><feMergeNode in="shadowMatrixOuter2"/><feMergeNode in="SourceGraphic"/><feMergeNode in="shadowMatrixInner1"/></feMerge></filter><radialGradient id="radialGradient-6" cx="0%" cy="0%" r="141.421%" fx="0%" fy="0%"><stop offset="0%" stop-color="#FFF" stop-opacity=".102"/><stop offset="32.444%" stop-color="#FFF" stop-opacity=".069"/><stop offset="100%" stop-color="#FFF" stop-opacity="0"/></radialGradient></defs><g id="Page-1" fill="none" fill-rule="evenodd" stroke="none" stroke-width="1"><g id="MD-App-Icon"><g id="tunable-icon" transform="translate(20.000000, 20.000000)"><mask id="mask-3" fill="#fff"><use xlink:href="#path-2"/></mask><use id="Base" fill="#E91E63" filter="url(#filter-1)" xlink:href="#path-2"/><path id="tunable-note" fill="#FAFAFA" d="M68.9703759,92.0079917 C68.9802426,92.0053246 68.9901173,92.0026607 69,92 C68.9999992,92 67.9999992,81 67.9999992,81 C46,81 34.0000004,113 60.9999997,124 C86.4999985,130.5 92.9999989,107.5 92,102 C91.9999991,102 87,44 87,44 C86.9999989,43 87.4999989,42 89,42 C88.9999991,42 109.499999,41 109.499999,41 L110,49 C110,49 109.999999,50 109,50 C108.999999,50 93,51 93,51 L94,63 L110.999999,62 C117.999999,61.5 122.499999,59.5 122,51 C121.999999,51 120,29 120,29 L85,31 C78.4999989,31.5 75.5000008,33.5 76.0000008,41 L80.7946906,101.413102 C80.9295439,102.089879 81,102.78737 81,103.5 C81,103.635368 80.9974577,103.770189 80.9924148,103.904426 L81,104 C80.995569,104.011816 80.9911331,104.023619 80.9866924,104.03541 C80.6826939,110.138125 75.2084946,115 68.5,115 C61.5964406,115 56,109.851275 56,103.5 C56,97.1487254 61.5964406,92 68.5,92 C68.6574892,92 68.8142981,92.0026795 68.9703759,92.0079917 Z" filter="url(#filter-4)"/><path id="=" fill="#FAFAFA" d="M64,41.7 L36,41.7 L36,34 L64,34 L64,41.7 Z M64,56 L36,56 L36,48.3 L64,48.3 L64,56 Z" filter="url(#filter-5)"/><path id="Finish" fill="url(#radialGradient-6)" d="M152,11.9903721 C152,5.36827246 146.634886,0 140.009361,0 L11.9906395,0 C5.36839215,0 0,5.36511358 0,11.9906395 L0,140.009361 C0,146.631608 5.36511358,152 11.9906395,152 L140.009361,152 C146.631608,152 152,146.630804 152,139.998833 L152,41.4545455 L152,11.9903721 Z"/></g></g></g></svg>